<!-- Generator: Adobe Illustrator 18.1.1, SVG Export Plug-In  -->
<svg version="1.1"
	 xmlns="http://www.w3.org/2000/svg" xmlns:xlink="http://www.w3.org/1999/xlink" xmlns:a="http://ns.adobe.com/AdobeSVGViewerExtensions/3.0/"
	 x="0px" y="0px" width="178.5px" height="36.1px" viewBox="0 0 178.5 36.1" enable-background="new 0 0 178.5 36.1"
	 xml:space="preserve">
<defs>
</defs>
<g>
	<path fill="#F1AE1C" d="M6.5,7.1c0,0.4-0.3,0.7-0.9,1c-0.2,0.1-0.3,0.1-0.5,0C4.9,8.1,4.7,8.1,4.7,8.1c-0.1,0-0.2,0.1-0.4,0.2
		c-1.1,1.1-1.6,2.4-1.6,3.9c0,0.6,0.1,1.1,0.3,1.6c0.1,0.2,0.8,1.8,2.3,4.6c1,1.9,1.4,3.5,1.4,4.9c0,1.1-0.3,2.1-0.8,3.2
		c-0.2,0.3-0.6,0.8-1.3,1.3C4,28.2,3.5,28.4,3,28.4c-0.2,0-0.3,0-0.5-0.1c-0.6-0.3-0.9-0.6-0.9-1c0-0.2,0.1-0.5,0.4-0.9
		c0.1-0.1,0.3-0.2,0.6-0.2c0.3,0,0.5-0.1,0.6-0.4c0.4-0.9,0.6-1.8,0.6-2.7c0-1.3-0.6-3.2-1.9-5.6C0.6,15.2,0,13.2,0,11.7
		c0-1.2,0.2-2.3,0.7-3.3C1.3,7.4,2,6.6,3,6.1c0.5-0.2,0.9-0.3,1.3-0.3c0.8,0,1.5,0.2,1.9,0.7C6.4,6.7,6.5,6.9,6.5,7.1"/>
	<path fill="#F1AE1C" d="M5.1,3.3c0,0.1,0,0.3,0,0.5c0,0.3-0.1,0.9-0.2,1.6C4.8,6.1,4.7,6.6,4.7,6.9c0,0.1,0,0.3,0,0.4
		C4.6,7.5,4.4,7.5,4.1,7.5c-0.4,0-0.7-0.1-0.7-0.3c0-0.2-0.1-0.4-0.1-0.6c0-0.3,0.1-0.9,0.3-1.5c0.2-0.7,0.3-1.2,0.3-1.5
		c0-0.1,0-0.3,0-0.4c0.1-0.1,0.3-0.1,0.5-0.1c0.2,0,0.4,0,0.6,0.1c0,0,0.1,0,0.1,0c0,0,0,0,0,0.1C5,3.3,5,3.3,5.1,3.3
		C5.1,3.3,5.1,3.3,5.1,3.3"/>
	<path fill="#F1AE1C" d="M5.1,26.3c0,0.2,0,0.3,0,0.5c0,0.4-0.1,1-0.2,1.8c-0.1,0.8-0.2,1.4-0.2,1.8c0,0.2,0,0.3,0,0.4
		c-0.1,0.2-0.3,0.2-0.6,0.2c-0.4,0-0.7-0.1-0.7-0.3c0-0.2-0.1-0.4-0.1-0.7c0-0.4,0.1-1,0.3-1.8c0.2-0.8,0.3-1.4,0.3-1.8
		c0-0.2,0-0.3,0-0.4C3.9,26,4.1,26,4.3,26c0.2,0,0.4,0,0.6,0.1C5,26,5,26,5,26c0,0,0,0,0,0.1C5,26.2,5,26.2,5.1,26.3
		C5.1,26.3,5.1,26.3,5.1,26.3"/>
</g>
<g>
	<g>
		<path fill="#F5B003" d="M16.5,20.2c0.5,0,1-0.2,1.7-0.6c0.7-0.4,1.1-0.6,1.4-0.6c0.2-0.7,0.6-1.4,1.3-2.1c0.1,0.7,0.1,1.4,0.1,2.1
			c0,1.6-0.3,3.3-0.8,5.2c-0.2,0.7-0.8,2.3-1.7,4.9c-0.7,1.9-1.3,3.2-1.8,4c-0.3,0.4-0.5,0.7-0.8,1c0.1,0.7,0.4,1.3,1.1,1.6
			c0.4,0.2,0.8,0.3,1.2,0.4c0.4-0.2,0.9-0.4,1.3-0.6c0.1-0.1,0.2-0.3,0.3-0.4c3.6-6.4,5.2-12.3,5-17.7c-0.1-1.9-0.1-3.7-0.1-5.6
			C24.5,9.6,24,8,23,6.8c-0.2,0-0.4,0-0.5,0c-0.5,0-1-0.1-1.5-0.5c-0.5-0.3-1-0.6-1.4-0.9c-0.3-0.1-0.6-0.1-0.9-0.1
			c-2.2,0-4,1.2-5.5,3.7c-1.4,2.3-2.1,4.3-2.1,6c0,1.3,0.4,2.5,1.2,3.4C13.1,19.6,14.5,20.2,16.5,20.2z M15,13.8
			c1.1-2.5,2.2-4,3.1-4.5c0.1-0.4,0.2-0.6,0.5-0.6c0.1,0,0.3,0.1,0.6,0.2c0.3,0.1,0.5,0.2,0.6,0.2c0.2,0,0.3,0,0.5-0.1
			c0,0.1,0,0.2,0.1,0.4c0,0.2,0,0.3,0,0.5c-0.1,1.8-1,3.8-2.8,6c-0.8,0.8-1.6,1.4-2.3,1.5c-0.3-0.5-0.5-1.2-0.5-2
			C14.8,14.6,14.9,14.2,15,13.8z"/>
		<path fill="#F5B003" d="M33.1,10.5c0.1,2.1,0,5.1-0.3,8.9c-0.2,4.2-0.4,7.1-0.4,8.9c0,1.2,0,2.4,0.1,3.5c0.1,0.8-0.2,1.1-0.8,1.1
			c-1.8,0-2.8-0.4-3-1.2c-0.4-1.7-0.6-3.7-0.6-5.9c0-1.5,0.1-3.8,0.4-7c0.3-3.1,0.4-5.4,0.4-6.9c0-1.9-0.2-3.7-0.5-5.2
			c0-0.2,0.1-0.4,0.2-0.7s0.4-0.5,0.7-0.5c1.2-0.4,2.1-0.2,2.7,0.6C32.7,6.9,33.1,8.4,33.1,10.5z"/>
		<path fill="#F5B003" d="M44.3,26.5c0.3,1.1,0.2,1.8-0.2,2.2c-0.4,0.4-0.9,0.5-1.6,0.5c-0.6,0-1.2-0.3-1.7-0.8
			c-0.5-0.5-0.8-1-0.8-1.6c0-0.4,0.2-0.7,0.5-1s0.6-0.5,0.9-0.4c0.6,0,1.1,0.1,1.7,0.1C43.7,25.6,44.1,26,44.3,26.5z"/>
		<path fill="#F5B003" d="M62.3,1.2c0.2,0.2,0.3,0.4,0.3,0.7c0,0.6-0.2,1-0.6,1.1c-1,0.3-2,0.9-2.8,1.8c-2.6,2.6-4.8,6.8-6.7,12.5
			c0.4,0,0.9-0.2,1.6-0.5c0.7-0.4,1.3-0.5,1.7-0.5c0.3,0,0.5,0.1,0.8,0.2c2.2,0.9,3.5,2.4,3.9,4.5c0.1,0.5,0.1,0.9,0.1,1.4
			c0,1.7-0.6,3.3-1.8,4.9c-1,1.4-2.3,2.6-3.9,3.6c-0.5,0.3-0.9,0.4-1.4,0.4c-0.6,0-1.5-0.4-2.8-1.1c-2-1.1-3-3.2-3-6.3
			c0-1,0.1-2.2,0.4-3.3c0.9-4.2,2.1-7.7,3.7-10.5c1.9-3.4,2.9-5.2,3.2-5.6c1.4-2,2.9-3.4,4.6-4.1C59.9,0.1,60.1,0,60.4,0
			C60.8,0,61.4,0.4,62.3,1.2z M57,21.7c0-0.5-0.1-0.9-0.4-1.5c-0.3-0.5-0.6-0.8-1-0.8c-0.2,0-0.6,0.2-1.2,0.5
			c-0.6,0.3-1,0.5-1.3,0.5c-0.4,0-0.7-0.2-0.9-0.5c-0.5,0.7-0.8,1.6-0.8,2.8c0,0.6,0.1,1.5,0.3,2.6c0.2,1.5,0.6,2.2,1.1,2.2
			c0.1,0,0.3,0,0.5-0.1c1-0.5,1.9-1.3,2.7-2.4C56.6,23.9,57,22.8,57,21.7z"/>
		<path fill="#F5B003" d="M96.1,31.3c0.1,0.6-0.3,0.9-1.3,1c-0.7,0-1.3-0.3-2-0.9c-0.6-0.5-1-1.3-1.4-2.5c-0.3-1-0.5-2.5-0.5-4.5
			c-0.1-2.2-0.2-3.6-0.3-4.5c-0.4,1.4-1,3.4-1.9,6c-0.5,1.5-0.9,2.3-1,2.5c-0.5,0.9-1.1,1.4-1.8,1.3c-1.4-0.3-2.5-1.1-3.3-2.4
			c-0.5-0.8-1-2.2-1.4-4c-0.5-2-0.9-3.4-1.2-4.1c-1.3,6.3-2.7,11-4.1,14c-0.2,0.5-0.8,0.4-1.9-0.1c-0.9-0.4-1.3-1-1.3-1.8
			c0-0.3,0.3-1.2,0.9-2.9c0.3-0.7,1.3-4.2,3.2-10.4c0.6-2.2,1.3-6,2-11.4c0.1-0.1,0.2-0.4,0.4-0.9c0.2-0.4,0.4-0.6,0.8-0.6
			c1,0,1.7,0.2,2.1,0.6c0,0.9,0.1,2.3,0.4,4.2s0.4,3.4,0.4,4.4c0.3,1.7,0.5,3.4,0.8,5.1c0.3,1.9,0.9,3.5,1.8,4.7
			c2.9-8,4.7-14.3,5.5-19c0.1-0.5,0.6-0.7,1.4-0.7c1.1,0,1.7,0.4,1.9,1.1c0.2,1.1,0.3,2.3,0.3,3.7c0,0.4,0,1.4-0.1,3
			c0,1.2,0,2.2,0,3C94.6,21.7,95.2,27,96.1,31.3z"/>
		<path fill="#F5B003" d="M103.5,7.7c0.1,0.9,0.1,1.8,0.1,2.7c0,2-0.2,5.1-0.6,9.2c-0.4,4.1-0.6,7.2-0.6,9.3c0,0.8,0,1.5,0,2.3
			c-0.3,0.8-0.9,1.2-1.8,1.2c-1.3-0.1-2-0.6-2.1-1.7s-0.2-2.2-0.2-3.3c0-2,0.2-5.1,0.7-9.1c0.5-4.1,0.7-7.1,0.7-9.1
			c0-0.8,0-1.5-0.1-2.3c0.3-0.6,0.8-0.9,1.5-0.9c0.6,0,1.1,0.2,1.7,0.5c0.1-0.1,0.2-0.1,0.3-0.1c0.1,0,0.1,0.2,0.1,0.4
			c0,0.4,0,0.6,0,0.6C103.4,7.6,103.4,7.7,103.5,7.7z"/>
		<path fill="#F5B003" d="M119,25.3c-0.1,0-1.8,1.3-5.3,3.8c-2,1.4-3.8,2.5-5.4,3.2c-0.2,0.1-0.4,0.1-0.5,0.1
			c-0.4,0-0.8-0.3-1.2-0.8c-0.5-0.7-0.8-1.1-0.9-1.1c-0.1-2.6,0.1-6.3,0.5-11c0.5-5,0.7-8.6,0.7-10.9c0-1.5-0.1-3-0.2-4.3
			c0.4-0.4,0.9-0.6,1.5-0.6c1.1,0,1.8,0.4,2,1.3c0.1,2.5,0,6.1-0.3,11c-0.3,4.9-0.4,8.6-0.4,11c0.8-0.4,1.9-1,3.3-1.9
			c1.5-1,2.5-1.7,3.2-2c0.2,0,0.4,0,0.8-0.1c0.4-0.1,0.7-0.1,0.8-0.1c0.6,0,1,0.2,1.3,0.7C119.3,24.3,119.3,24.8,119,25.3z"/>
		<path fill="#F5B003" d="M133.3,25.3c-0.1,0-1.8,1.3-5.3,3.8c-2,1.4-3.8,2.5-5.4,3.2c-0.2,0.1-0.4,0.1-0.5,0.1
			c-0.4,0-0.8-0.3-1.2-0.8c-0.5-0.7-0.8-1.1-0.9-1.1c-0.1-2.6,0.1-6.3,0.5-11c0.5-5,0.7-8.6,0.7-10.9c0-1.5-0.1-3-0.2-4.3
			c0.4-0.4,0.9-0.6,1.5-0.6c1.1,0,1.8,0.4,2,1.3c0.1,2.5,0,6.1-0.3,11c-0.3,4.9-0.4,8.6-0.4,11c0.8-0.4,1.9-1,3.3-1.9
			c1.5-1,2.5-1.7,3.2-2c0.2,0,0.4,0,0.8-0.1c0.4-0.1,0.7-0.1,0.8-0.1c0.6,0,1,0.2,1.3,0.7C133.6,24.3,133.6,24.8,133.3,25.3z"/>
		<path fill="#F5B003" d="M139.6,7.7c0.1,0.9,0.1,1.8,0.1,2.7c0,2-0.2,5.1-0.6,9.2c-0.4,4.1-0.6,7.2-0.6,9.3c0,0.8,0,1.5,0,2.3
			c-0.3,0.8-0.9,1.2-1.8,1.2c-1.3-0.1-2-0.6-2.1-1.7s-0.2-2.2-0.2-3.3c0-2,0.2-5.1,0.7-9.1c0.5-4.1,0.7-7.1,0.7-9.1
			c0-0.8,0-1.5-0.1-2.3c0.3-0.6,0.8-0.9,1.5-0.9c0.6,0,1.1,0.2,1.7,0.5c0.1-0.1,0.2-0.1,0.3-0.1c0.1,0,0.1,0.2,0.1,0.4
			c0,0.4,0,0.6,0,0.6C139.5,7.6,139.6,7.7,139.6,7.7z"/>
		<path fill="#F5B003" d="M157.5,20.8c-1.8,4-4.3,6.4-7.5,7.1c-0.4,0.1-0.8,0.1-1.2,0.1c-1.7,0-3.4-0.9-5.2-2.8
			c-1.2-1.3-1.8-2.9-1.8-4.9c0-2.2,0.7-4.6,2-7.2c0.6-1.1,1.3-2,2.1-2.8c0.9-0.9,1.8-1.4,2.7-1.4c0.5,0,0.9,0.2,1.3,0.5
			c0.4,0.4,1.5,0.8,3.4,1.4c1.4,0.5,2.5,1.3,3.1,2.4c1,2,1.6,3.7,1.6,5.2C157.9,19.4,157.8,20.1,157.5,20.8z M153.9,18
			c-0.2-2.2-0.8-3.5-1.8-3.9c-0.2-0.1-0.3-0.1-0.4-0.1c-0.4,0-0.8,0.3-1.3,0.9c-0.6,0.7-1.1,1.1-1.4,1.2c-0.2,0.1-0.5,0-0.9-0.3
			c-0.4-0.3-0.6-0.4-0.8-0.4c-0.1,0-0.2,0-0.2,0.1c-1.1,0.9-1.6,2.3-1.6,4.2c0,1.3,0.3,2.4,0.9,3.3c0.8,1.2,1.5,1.8,2.1,1.8
			c1.3,0,2.6-0.8,3.8-2.5C153.5,20.8,154,19.3,153.9,18z"/>
		<path fill="#F5B003" d="M178.5,3.2c-0.4,4-0.8,8.1-1.2,12.1c-0.5,4.8-0.8,8.8-0.8,12c0,1.1,0,2.1,0.1,3.1c0,0.5-0.1,0.9-0.5,1.3
			c-0.4,0.4-0.8,0.5-1.3,0.5c-0.9,0-1.7-0.6-2.3-1.9c-1.9-3.8-4.3-9.6-7.2-17.6c-0.1-0.2-0.1-0.3-0.2-0.3c-0.2,0-0.3,0.2-0.4,0.6
			c-0.5,4.3-0.8,8.8-0.8,13.5c0,2.3,0.1,4.6,0.2,7c0,0.9-0.2,1.5-0.8,1.8c-0.2,0.2-0.4,0.3-0.7,0.3c-0.2,0-0.5-0.1-0.8-0.3
			c-0.5-0.2-0.7-0.3-0.9-0.4c-0.4-0.1-0.6-0.5-0.7-1.1c0-0.5-0.1-1-0.1-1.5c-0.1-1.7-0.1-3.4-0.1-5.3c0-3.2,0.2-7.2,0.5-11.9
			c0.6-7.3,0.9-11.3,0.9-12.1c0-0.7,0.6-1,1.7-1c0.5-0.1,1.3,0.3,2.2,1.1c1,1.8,2.1,4.8,3.6,8.9c1.4,3.9,2.6,6.9,3.7,9
			c0.5-4,1.2-10,2.1-18.1c0.1-0.6,0.5-0.9,1.3-0.9c0.3,0,0.6,0,0.9,0.1c0.5,0.1,0.8,0.2,0.9,0.2C178.2,2.7,178.4,2.9,178.5,3.2z"/>
	</g>
</g>
</svg>
