<!-- Generator: Adobe Illustrator 18.1.1, SVG Export Plug-In  -->
<svg version="1.1"
	 xmlns="http://www.w3.org/2000/svg" xmlns:xlink="http://www.w3.org/1999/xlink" xmlns:a="http://ns.adobe.com/AdobeSVGViewerExtensions/3.0/"
	 x="0px" y="0px" width="176px" height="29.3px" viewBox="0 0 176 29.3" enable-background="new 0 0 176 29.3" xml:space="preserve"
	>
<defs>
</defs>
<g>
	<path fill="#796E65" d="M20.2,11.8h-1V0.2H23c1,0,1.8,0.1,2.7,0.6c0.8,0.5,1.2,1.3,1.2,2.4c0,1.2-0.9,2.1-2.2,2.5v0
		C26.1,6,26.4,7,26.6,8.4c0.2,1.9,0.1,2.7,0.6,3.4H26c-0.3-0.8-0.3-1.6-0.4-2.4c-0.2-2.6-0.4-3.1-2.5-3.1h-2.9V11.8z M22.5,5.3
		c1.5,0,3.3-0.1,3.3-2.1c0-2.2-2.1-2.1-3.2-2.1h-2.3v4.1H22.5z"/>
	<path fill="#796E65" d="M29.2,11.8l4.6-11.6H35l4.6,11.6h-1.1l-1.2-3.1h-5.7l-1.2,3.1H29.2z M36.8,7.7l-2.5-6.5l-2.5,6.5H36.8z"/>
	<path fill="#796E65" d="M42.2,11.8V0.2h1v11.6H42.2z"/>
	<path fill="#796E65" d="M50.1,12c-1.8,0-3.4-1.3-3.4-3.2h1.1c0,1.8,1.3,2.3,2.9,2.3c1.3,0,2.8-0.8,2.8-2.2c0-1.2-0.8-1.7-1.8-2
		c-1.9-0.6-4.7-1.2-4.7-3.7c0-2,1.9-3.1,3.7-3.1c1.5,0,3.5,0.5,3.8,2.8h-1.1c0-1.4-1.3-1.8-2.5-1.8c-1.2,0-2.7,0.6-2.7,2
		c0,3.3,6.5,1.8,6.5,5.8C54.6,11.3,52.4,12,50.1,12z"/>
	<path fill="#796E65" d="M57.9,11.8V0.2h6.9v1H59v4.1h5.6v1H59v4.5h6.1v1H57.9z"/>
	<path fill="#796E65" d="M71.5,0.2c3.8,0,6,2,6,5.8s-2.2,5.8-6,5.8h-3.1V0.2H71.5z M71.7,10.8c3.2,0,4.6-1.9,4.6-4.8
		c0-3.4-2-4.9-5.3-4.8h-1.6v9.6H71.7z"/>
	<path fill="#796E65" d="M90.7,12c-3.3,0-5.2-2.4-5.2-6s1.8-6,5.2-6s5.2,2.4,5.2,6S94,12,90.7,12z M90.7,11.1c2.9,0,4-2.5,4-5.1
		S93.6,1,90.7,1s-4,2.5-4,5.1S87.8,11.1,90.7,11.1z"/>
	<path fill="#796E65" d="M99.2,0.2h1.2l6.4,10.2h0V0.2h1v11.6h-1.3l-6.2-10h0v10h-1V0.2z"/>
	<path fill="#796E65" d="M117,11.8V0.2h6.9v1H118v4.1h5.6v1H118v4.5h6.1v1H117z"/>
	<path fill="#796E65" d="M127.5,11.8V0.2l4.1,0c1.7,0,3.2,1,3.2,2.9c0,1.3-0.9,2.3-2.1,2.6v0c1.6,0.3,2.6,1.3,2.6,2.9
		c0,1.5-0.9,3.1-3.4,3.1H127.5z M131.1,5.3c1.3,0,2.7-0.5,2.7-2.1c0-1.7-1.4-2-2.7-2h-2.5v4.1H131.1z M128.6,10.8h2.5
		c2,0,3.1-0.5,3.1-2.3c0-2-1.6-2.3-3.8-2.3h-1.9V10.8z"/>
	<path fill="#796E65" d="M137.5,11.8l4.6-11.6h1.2l4.6,11.6h-1.1l-1.2-3.1h-5.7l-1.2,3.1H137.5z M145.2,7.7l-2.5-6.5l-2.5,6.5H145.2
		z"/>
	<path fill="#796E65" d="M152.1,6.8l-4.3-6.6h1.3l3.5,5.6l3.5-5.6h1.1l-4.2,6.5v5h-1V6.8z"/>
	<path fill="#796E65" d="M0,29V17.5h6.5v1H1v4.1h5.3v1H1V29H0z"/>
	<path fill="#796E65" d="M14.4,29.3c-3.3,0-5.2-2.4-5.2-6s1.8-6,5.2-6s5.2,2.4,5.2,6S17.7,29.3,14.4,29.3z M14.4,28.3
		c2.9,0,4-2.5,4-5.1s-1.2-5.1-4-5.1s-4,2.5-4,5.1S11.5,28.3,14.4,28.3z"/>
	<path fill="#796E65" d="M24.1,29h-1V17.5h3.8c1,0,1.8,0.1,2.7,0.6c0.8,0.5,1.2,1.3,1.2,2.4c0,1.2-0.9,2.1-2.2,2.5v0
		c1.5,0.2,1.8,1.2,1.9,2.6c0.2,1.9,0.1,2.7,0.6,3.4h-1.2c-0.3-0.8-0.3-1.6-0.4-2.4c-0.2-2.6-0.4-3.1-2.5-3.1h-2.9V29z M26.3,22.6
		c1.5,0,3.3-0.1,3.3-2.1c0-2.2-2.1-2.1-3.2-2.1h-2.3v4.1H26.3z"/>
	<path fill="#796E65" d="M46.8,20.2c-0.2-1.4-1.4-2-2.7-2c-3,0-3.9,2.7-3.9,5.1s0.9,5.1,3.9,5.1c1.3,0,2.6-0.6,2.8-2.1h1.1
		c-0.3,1.9-2.1,3-4,3c-3.5,0-5-2.8-5-6c0-3.2,1.5-6,5-6c1.9,0,3.7,0.9,3.8,2.9H46.8z"/>
	<path fill="#796E65" d="M51.2,29V17.5h1v5.1h6.3v-5.1h1V29h-1v-5.5h-6.3V29H51.2z"/>
	<path fill="#796E65" d="M62.1,29l4.6-11.6h1.2L72.5,29h-1.1l-1.2-3.1h-5.7L63.2,29H62.1z M69.8,25l-2.5-6.5L64.7,25H69.8z"/>
	<path fill="#796E65" d="M76.1,29h-1V17.5h3.8c1,0,1.8,0.1,2.7,0.6c0.8,0.5,1.2,1.3,1.2,2.4c0,1.2-0.9,2.1-2.2,2.5v0
		c1.5,0.2,1.8,1.2,1.9,2.6c0.2,1.9,0.1,2.7,0.6,3.4h-1.2c-0.3-0.8-0.3-1.6-0.4-2.4c-0.2-2.6-0.4-3.1-2.5-3.1h-2.9V29z M78.4,22.6
		c1.5,0,3.3-0.1,3.3-2.1c0-2.2-2.1-2.1-3.2-2.1h-2.3v4.1H78.4z"/>
	<path fill="#796E65" d="M86.6,29V17.4h1V29H86.6z"/>
	<path fill="#796E65" d="M94.1,18.4h-3.7v-1h8.5v1h-3.7l0,10.6h-1L94.1,18.4z"/>
	<path fill="#796E65" d="M104.2,24.1l-4.3-6.6h1.3l3.5,5.6l3.5-5.6h1.1l-4.2,6.5v5h-1V24.1z"/>
	<path fill="#796E65" d="M117.4,29V17.4h1V29H117.4z"/>
	<path fill="#796E65" d="M122.4,17.5h1.2l6.4,10.2h0V17.5h1V29h-1.3l-6.2-10h0v10h-1V17.5z"/>
	<path fill="#796E65" d="M139.3,29V28c1.4-1.3,5.7-5.3,5.7-7.3c0-1.3-1-2-2.2-2c-1.3,0-2.2,0.9-2.2,2.2h-1.1c0-2,1.5-3.2,3.4-3.2
		c1.8,0,3.3,0.9,3.3,2.9c0,2.6-3.9,5.8-5.6,7.5h5.7v1H139.3z"/>
	<path fill="#796E65" d="M156.4,23.5c0,2.8-0.7,5.8-3.7,5.8c-3,0-3.7-3-3.7-5.8c0-2.8,0.7-5.8,3.7-5.8
		C155.7,17.7,156.4,20.7,156.4,23.5z M150.1,23.5c0,1.6,0.2,4.8,2.6,4.8c2.4,0,2.6-3.2,2.6-4.8c0-1.6-0.2-4.8-2.6-4.8
		C150.3,18.7,150.1,21.9,150.1,23.5z"/>
	<path fill="#796E65" d="M159.8,19.7c0.9-0.4,1.8-1,2.5-1.7h1V29h-1v-10c-0.7,0.7-1.6,1.2-2.5,1.7V19.7z"/>
	<path fill="#796E65" d="M168,26.5v-0.8l4.9-7.7h1.3v7.5h1.8v1h-1.8V29h-1v-2.6H168z M173.2,19.2L173.2,19.2l-3.9,6.3h3.9V19.2z"/>
</g>
</svg>
