<!-- Generator: Adobe Illustrator 18.1.1, SVG Export Plug-In  -->
<svg version="1.1"
	 xmlns="http://www.w3.org/2000/svg" xmlns:xlink="http://www.w3.org/1999/xlink" xmlns:a="http://ns.adobe.com/AdobeSVGViewerExtensions/3.0/"
	 x="0px" y="0px" width="173.3px" height="26.2px" viewBox="0 0 173.3 26.2" enable-background="new 0 0 173.3 26.2"
	 xml:space="preserve">
<defs>
</defs>
<g>
	<path fill="#796E65" d="M1.3,3.4H0.1V2.8h1.2V1.5L2,1.2v1.6h1.4v0.7H2v4C2,8,2.3,8.3,2.8,8.3c0.2,0,0.4,0,0.6-0.1v0.6
		C3.2,8.9,2.9,8.9,2.7,8.9c-1.5,0-1.4-1-1.4-1.8V3.4z"/>
	<path fill="#796E65" d="M5.4,3.7L5.4,3.7c0.4-0.7,1.1-1.1,1.9-1.1c2,0,2.1,1.7,2.1,2.4v3.7H8.7V4.9c0-1-0.6-1.6-1.6-1.6
		c-1.2,0-1.7,1-1.7,2.1v3.4H4.7V0.1h0.7V3.7z"/>
	<path fill="#796E65" d="M11.8,5.9c0,1.3,0.6,2.3,2.1,2.3c0.8,0,1.5-0.6,1.7-1.4h0.8c-0.4,1.4-1.3,2.1-2.7,2.1
		c-1.8,0-2.6-1.5-2.6-3.2c0-1.6,0.9-3.2,2.7-3.2c2,0,2.7,1.5,2.7,3.3H11.8z M15.6,5.3c-0.1-1.2-0.7-2-1.9-2c-1.2,0-1.8,1-1.9,2H15.6
		z"/>
	<path fill="#796E65" d="M22,3.6L22,3.6c0.4-0.7,1.1-1.1,1.9-1.1c0.9,0,1.7,0.5,1.9,1.3c0.4-0.7,1.1-1.3,2.1-1.3
		c2,0,2.1,1.7,2.1,2.4v3.7h-0.7V4.9c0-1-0.6-1.6-1.6-1.6c-1.2,0-1.7,1-1.7,2.1v3.4h-0.7V4.9c0-1-0.6-1.6-1.6-1.6
		c-1.2,0-1.7,1-1.7,2.1v3.4h-0.7V4.1c0-0.5,0-0.9-0.1-1.3H22L22,3.6z"/>
	<path fill="#796E65" d="M35.3,4.5c-0.1-1-0.6-1.3-1.4-1.3c-0.8,0-1.4,0.2-1.5,1h-0.8c0.2-1.2,1.1-1.7,2.2-1.7c1.3,0,2.1,0.6,2.1,2
		v2.8c0,0.5,0,0.9,0.1,1.3h-0.7l0-0.9h0l0,0.1c-0.3,0.5-1.1,1-1.9,1c-1.1,0-2-0.7-2-1.8c0-0.8,0.5-1.4,1.2-1.7
		c0.8-0.3,1.8-0.2,2.7-0.3V4.5z M33.5,8.3c1.6,0,1.9-1.3,1.8-2.5c-1,0-3.1-0.2-3.1,1.3C32.1,7.9,32.7,8.3,33.5,8.3z"/>
	<path fill="#796E65" d="M36.9,10.4c1,0,0.9-0.3,0.9-1.8V2.8h0.7V9c0,1.5,0,2.1-1.6,2V10.4z M38.6,1h-0.8V0.1h0.8V1z"/>
	<path fill="#796E65" d="M45.6,5.8c0,1.6-0.9,3.2-2.8,3.2c-1.9,0-2.8-1.6-2.8-3.2s0.9-3.2,2.8-3.2C44.7,2.6,45.6,4.2,45.6,5.8z
		 M42.8,3.2c-1.4,0-2,1.4-2,2.5s0.6,2.5,2,2.5c1.4,0,2-1.4,2-2.5S44.3,3.2,42.8,3.2z"/>
	<path fill="#796E65" d="M47.8,8.7h-0.7V4.1c0-0.5,0-0.9-0.1-1.3h0.7l0,0.9h0c0.2-0.6,0.8-1,1.3-1.1c0.2,0,0.5,0,0.7,0v0.7
		c-0.1,0-0.3,0-0.4,0c-1.1,0-1.6,0.8-1.6,1.9V8.7z"/>
	<path fill="#796E65" d="M51.9,1H51V0.1h0.8V1z M51.8,2.8v6h-0.7v-6H51.8z"/>
	<path fill="#796E65" d="M54.2,3.4H53V2.8h1.2V1.5l0.7-0.3v1.6h1.4v0.7h-1.4v4c0,0.5,0.3,0.8,0.8,0.8c0.2,0,0.4,0,0.6-0.1v0.6
		c-0.2,0.1-0.5,0.1-0.7,0.1c-1.5,0-1.4-1-1.4-1.8V3.4z"/>
	<path fill="#796E65" d="M57.7,2.8l2,5l2-5h0.8L59.2,11h-0.8l0.9-2.3l-2.5-6H57.7z"/>
	<path fill="#796E65" d="M70.7,4.6c-0.1-0.9-0.6-1.4-1.6-1.4c-1.1,0-1.8,1.1-1.8,2.5c0,1.4,0.7,2.5,1.8,2.5c0.9,0,1.6-0.6,1.6-1.4
		h0.8c-0.2,1.4-1,2-2.3,2c-1.8,0-2.6-1.5-2.6-3.2c0-1.6,0.9-3.2,2.7-3.2c1.2,0,2.2,0.7,2.3,2H70.7z"/>
	<path fill="#796E65" d="M78.1,5.8c0,1.6-0.9,3.2-2.8,3.2c-1.9,0-2.8-1.6-2.8-3.2s0.9-3.2,2.8-3.2C77.2,2.6,78.1,4.2,78.1,5.8z
		 M75.3,3.2c-1.4,0-2,1.4-2,2.5s0.6,2.5,2,2.5c1.4,0,2-1.4,2-2.5S76.7,3.2,75.3,3.2z"/>
	<path fill="#796E65" d="M80.2,3.6L80.2,3.6c0.4-0.7,1.1-1.1,1.9-1.1c0.9,0,1.7,0.5,1.9,1.3c0.4-0.7,1.1-1.3,2.1-1.3
		c2,0,2.1,1.7,2.1,2.4v3.7h-0.7V4.9c0-1-0.6-1.6-1.6-1.6c-1.2,0-1.7,1-1.7,2.1v3.4h-0.7V4.9c0-1-0.6-1.6-1.6-1.6
		c-1.2,0-1.7,1-1.7,2.1v3.4h-0.7V4.1c0-0.5,0-0.9-0.1-1.3h0.7L80.2,3.6z"/>
	<path fill="#796E65" d="M90.9,1h-0.8V0.1h0.8V1z M90.8,2.8v6h-0.7v-6H90.8z"/>
	<path fill="#796E65" d="M93.5,8.7h-0.7V4.1c0-0.5,0-0.9-0.1-1.3h0.7l0,0.9l0,0c0.4-0.7,1.1-1.1,1.9-1.1c2,0,2.1,1.7,2.1,2.4v3.7
		h-0.7V4.9c0-1-0.6-1.6-1.6-1.6c-1.2,0-1.7,1-1.7,2.1V8.7z"/>
	<path fill="#796E65" d="M103.5,2.8h0.7c0,0.4-0.1,0.9-0.1,1.3v3.6c0,1.2,0.1,2.4-1.3,3.1c-0.5,0.2-0.8,0.3-1.4,0.3
		c-1.1,0-2.4-0.4-2.4-1.6h0.8c0.1,0.7,0.9,1,1.7,1c0.9,0,1.8-0.7,1.8-1.7V7.6h0c-0.3,0.7-1.2,1.1-1.9,1.1c-1.8,0-2.6-1.4-2.6-3
		c0-1.6,0.7-3.1,2.6-3.1c0.9,0,1.5,0.4,2,1.1l0,0L103.5,2.8z M101.6,3.2c-1.3,0-1.8,1.3-1.8,2.4c0,1.1,0.6,2.4,1.9,2.4
		c1.4,0,1.9-1.3,1.9-2.4C103.5,4.5,102.9,3.2,101.6,3.2z"/>
	<path fill="#796E65" d="M109.8,8.7V3.4h-1.2V2.8h1.2V1.5c0-1,0.4-1.5,1.4-1.5c0.2,0,0.5,0.1,0.7,0.1v0.6c-0.1,0-0.3,0-0.4,0
		c-1,0-1,0.5-1,1.3v0.8h1.4v0.7h-1.4v5.3H109.8z"/>
	<path fill="#796E65" d="M114,8.7h-0.7V4.1c0-0.5,0-0.9-0.1-1.3h0.7l0,0.9h0c0.2-0.6,0.8-1,1.3-1.1c0.2,0,0.5,0,0.7,0v0.7
		c-0.1,0-0.3,0-0.4,0c-1.1,0-1.6,0.8-1.6,1.9V8.7z"/>
	<path fill="#796E65" d="M122.4,5.8c0,1.6-0.9,3.2-2.8,3.2c-1.9,0-2.8-1.6-2.8-3.2s0.9-3.2,2.8-3.2C121.5,2.6,122.4,4.2,122.4,5.8z
		 M119.6,3.2c-1.4,0-2,1.4-2,2.5s0.6,2.5,2,2.5c1.4,0,2-1.4,2-2.5S121.1,3.2,119.6,3.2z"/>
	<path fill="#796E65" d="M124.6,3.6L124.6,3.6c0.4-0.7,1.1-1.1,1.9-1.1c0.9,0,1.7,0.5,1.9,1.3c0.4-0.7,1.1-1.3,2.1-1.3
		c2,0,2.1,1.7,2.1,2.4v3.7h-0.7V4.9c0-1-0.6-1.6-1.6-1.6c-1.2,0-1.7,1-1.7,2.1v3.4h-0.7V4.9c0-1-0.6-1.6-1.6-1.6
		c-1.2,0-1.7,1-1.7,2.1v3.4h-0.7V4.1c0-0.5,0-0.9-0.1-1.3h0.7L124.6,3.6z"/>
	<path fill="#796E65" d="M138.5,8.7h-0.7V0.1h0.7V8.7z"/>
	<path fill="#796E65" d="M141.2,1h-0.8V0.1h0.8V1z M141.2,2.8v6h-0.7v-6H141.2z"/>
	<path fill="#796E65" d="M145.1,2.6c1.1,0,2.1,0.4,2.2,1.7h-0.8c-0.1-0.8-0.7-1-1.5-1c-0.7,0-1.3,0.3-1.3,1c0,0.9,1.2,0.8,2.8,1.4
		c0.6,0.2,1,0.8,1,1.4c0,1.3-1.3,2-2.5,2c-1,0-2.2-0.5-2.3-1.8h0.8c0.1,0.9,0.8,1.2,1.7,1.2c0.8,0,1.6-0.4,1.6-1.2
		c0-0.9-0.9-1-1.9-1.2c-0.9-0.2-1.9-0.5-1.9-1.6C142.9,3,144,2.6,145.1,2.6z"/>
	<path fill="#796E65" d="M149.5,3.4h-1.2V2.8h1.2V1.5l0.7-0.3v1.6h1.4v0.7h-1.4v4c0,0.5,0.3,0.8,0.8,0.8c0.2,0,0.4,0,0.6-0.1v0.6
		c-0.2,0.1-0.5,0.1-0.7,0.1c-1.5,0-1.4-1-1.4-1.8V3.4z"/>
	<path fill="#796E65" d="M153.8,1h-0.8V0.1h0.8V1z M153.7,2.8v6H153v-6H153.7z"/>
	<path fill="#796E65" d="M156.4,8.7h-0.7V4.1c0-0.5,0-0.9-0.1-1.3h0.7l0,0.9l0,0c0.4-0.7,1.1-1.1,1.9-1.1c2,0,2.1,1.7,2.1,2.4v3.7
		h-0.7V4.9c0-1-0.6-1.6-1.6-1.6c-1.2,0-1.7,1-1.7,2.1V8.7z"/>
	<path fill="#796E65" d="M166.4,2.8h0.7c0,0.4-0.1,0.9-0.1,1.3v3.6c0,1.2,0.1,2.4-1.3,3.1c-0.5,0.2-0.8,0.3-1.4,0.3
		c-1.1,0-2.4-0.4-2.4-1.6h0.8c0.1,0.7,0.9,1,1.7,1c0.9,0,1.8-0.7,1.8-1.7V7.6h0c-0.3,0.7-1.2,1.1-1.9,1.1c-1.8,0-2.6-1.4-2.6-3
		c0-1.6,0.7-3.1,2.6-3.1c0.9,0,1.5,0.4,2,1.1l0,0L166.4,2.8z M164.5,3.2c-1.3,0-1.8,1.3-1.8,2.4c0,1.1,0.6,2.4,1.9,2.4
		c1.4,0,1.9-1.3,1.9-2.4C166.4,4.5,165.8,3.2,164.5,3.2z"/>
	<path fill="#796E65" d="M170.9,2.6c1.1,0,2.1,0.4,2.2,1.7h-0.8c-0.1-0.8-0.7-1-1.5-1c-0.7,0-1.3,0.3-1.3,1c0,0.9,1.2,0.8,2.8,1.4
		c0.6,0.2,1,0.8,1,1.4c0,1.3-1.3,2-2.5,2c-1,0-2.2-0.5-2.3-1.8h0.8c0.1,0.9,0.8,1.2,1.7,1.2c0.8,0,1.6-0.4,1.6-1.2
		c0-0.9-0.9-1-1.9-1.2c-0.9-0.2-1.9-0.5-1.9-1.6C168.7,3,169.8,2.6,170.9,2.6z"/>
	<path fill="#796E65" d="M2.6,23L2.6,23l1.8-5h0.8l1.8,5h0l1.7-5h0.8l-2.2,6H6.7l-1.8-5.2h0l-1.9,5.2H2.2l-2.2-6h0.8L2.6,23z"/>
	<path fill="#796E65" d="M11.5,16.2h-0.8v-0.9h0.8V16.2z M11.4,17.9v6h-0.7v-6H11.4z"/>
	<path fill="#796E65" d="M13.8,18.6h-1.2v-0.7h1.2v-1.3l0.7-0.3v1.6h1.4v0.7h-1.4v4c0,0.5,0.3,0.8,0.8,0.8c0.2,0,0.4,0,0.6-0.1V24
		c-0.2,0.1-0.5,0.1-0.7,0.1c-1.5,0-1.4-1-1.4-1.8V18.6z"/>
	<path fill="#796E65" d="M18,18.8L18,18.8c0.4-0.7,1.1-1.1,1.9-1.1c2,0,2.1,1.7,2.1,2.4v3.7h-0.7V20c0-1-0.6-1.6-1.6-1.6
		c-1.2,0-1.7,1-1.7,2.1v3.4h-0.7v-8.6H18V18.8z"/>
	<path fill="#796E65" d="M31.4,23L31.4,23c-0.5,0.7-1.2,1.1-2.1,1.1c-1.8,0-2.5-1.7-2.5-3.2c0-1.5,0.7-3.1,2.5-3.1
		c0.8,0,1.6,0.4,2,1.1l0,0v-3.5h0.7v7.3c0,0.5,0,0.9,0.1,1.3h-0.7L31.4,23z M29.4,18.4c-1.4,0-1.8,1.3-1.8,2.4
		c0,1.1,0.3,2.6,1.7,2.6c1.6,0,2-1.3,2-2.7C31.3,19.6,30.8,18.4,29.4,18.4z"/>
	<path fill="#796E65" d="M34.3,21.1c0,1.3,0.6,2.3,2.1,2.3c0.8,0,1.5-0.6,1.7-1.4h0.8c-0.4,1.4-1.3,2.1-2.7,2.1
		c-1.8,0-2.6-1.5-2.6-3.2c0-1.6,0.9-3.2,2.7-3.2c2,0,2.7,1.5,2.7,3.3H34.3z M38.1,20.4c-0.1-1.2-0.7-2-1.9-2c-1.2,0-1.8,1-1.9,2
		H38.1z"/>
	<path fill="#796E65" d="M42.5,17.7c1.1,0,2.1,0.4,2.2,1.7h-0.8c-0.1-0.8-0.7-1-1.5-1c-0.7,0-1.3,0.3-1.3,1c0,0.9,1.2,0.8,2.8,1.4
		c0.6,0.2,1,0.8,1,1.4c0,1.3-1.3,2-2.5,2c-1,0-2.2-0.5-2.3-1.8h0.8c0.1,0.9,0.8,1.2,1.7,1.2c0.8,0,1.6-0.4,1.6-1.2
		c0-0.9-0.9-1-1.9-1.2c-0.9-0.2-1.9-0.5-1.9-1.6C40.3,18.2,41.4,17.7,42.5,17.7z"/>
	<path fill="#796E65" d="M47.2,16.2h-0.8v-0.9h0.8V16.2z M47.2,17.9v6h-0.7v-6H47.2z"/>
	<path fill="#796E65" d="M53.2,17.9H54c0,0.4-0.1,0.9-0.1,1.3v3.6c0,1.2,0.1,2.4-1.3,3.1c-0.5,0.2-0.8,0.3-1.4,0.3
		c-1.1,0-2.4-0.4-2.4-1.6h0.8c0.1,0.7,0.9,1,1.7,1c0.9,0,1.8-0.7,1.8-1.7v-1.1h0c-0.3,0.7-1.2,1.1-1.9,1.1c-1.8,0-2.6-1.4-2.6-3
		c0-1.6,0.7-3.1,2.6-3.1c0.9,0,1.5,0.4,2,1.1l0,0L53.2,17.9z M51.3,18.4c-1.3,0-1.8,1.3-1.8,2.4c0,1.1,0.6,2.4,1.9,2.4
		c1.4,0,1.9-1.3,1.9-2.4C53.2,19.6,52.6,18.4,51.3,18.4z"/>
	<path fill="#796E65" d="M56.4,23.9h-0.7v-4.6c0-0.5,0-0.9-0.1-1.3h0.7l0,0.9l0,0c0.4-0.7,1.1-1.1,1.9-1.1c2,0,2.1,1.7,2.1,2.4v3.7
		h-0.7V20c0-1-0.6-1.6-1.6-1.6c-1.2,0-1.7,1-1.7,2.1V23.9z"/>
	<path fill="#796E65" d="M65.7,19.7c-0.1-1-0.6-1.3-1.4-1.3c-0.8,0-1.4,0.2-1.5,1h-0.8c0.2-1.2,1.1-1.7,2.2-1.7c1.3,0,2.1,0.6,2.1,2
		v2.8c0,0.5,0,0.9,0.1,1.3h-0.7l0-0.9h0l0,0.1c-0.3,0.5-1.1,1-1.9,1c-1.1,0-2-0.7-2-1.8c0-0.8,0.5-1.4,1.2-1.7
		c0.8-0.3,1.8-0.2,2.7-0.3V19.7z M63.9,23.4c1.6,0,1.9-1.3,1.8-2.5c-1,0-3.1-0.2-3.1,1.3C62.6,23.1,63.2,23.4,63.9,23.4z"/>
	<path fill="#796E65" d="M68.8,18.6h-1.2v-0.7h1.2v-1.3l0.7-0.3v1.6h1.4v0.7h-1.4v4c0,0.5,0.3,0.8,0.8,0.8c0.2,0,0.4,0,0.6-0.1V24
		c-0.2,0.1-0.5,0.1-0.7,0.1c-1.5,0-1.4-1-1.4-1.8V18.6z"/>
	<path fill="#796E65" d="M73,16.2h-0.8v-0.9H73V16.2z M73,17.9v6h-0.7v-6H73z"/>
	<path fill="#796E65" d="M80,20.9c0,1.6-0.9,3.2-2.8,3.2c-1.9,0-2.8-1.6-2.8-3.2s0.9-3.2,2.8-3.2C79.2,17.7,80,19.3,80,20.9z
		 M77.3,18.4c-1.4,0-2,1.4-2,2.5s0.6,2.5,2,2.5c1.4,0,2-1.4,2-2.5S78.7,18.4,77.3,18.4z"/>
	<path fill="#796E65" d="M82.2,23.9h-0.7v-4.6c0-0.5,0-0.9-0.1-1.3h0.7l0,0.9l0,0c0.4-0.7,1.1-1.1,1.9-1.1c2,0,2.1,1.7,2.1,2.4v3.7
		h-0.7V20c0-1-0.6-1.6-1.6-1.6c-1.2,0-1.7,1-1.7,2.1V23.9z"/>
	<path fill="#796E65" d="M90.1,17.7c1.1,0,2.1,0.4,2.2,1.7h-0.8c-0.1-0.8-0.7-1-1.5-1c-0.7,0-1.3,0.3-1.3,1c0,0.9,1.2,0.8,2.8,1.4
		c0.6,0.2,1,0.8,1,1.4c0,1.3-1.3,2-2.5,2c-1,0-2.2-0.5-2.3-1.8h0.8c0.1,0.9,0.8,1.2,1.7,1.2c0.8,0,1.6-0.4,1.6-1.2
		c0-0.9-0.9-1-1.9-1.2c-0.9-0.2-1.9-0.5-1.9-1.6C87.9,18.2,89.1,17.7,90.1,17.7z"/>
	<path fill="#796E65" d="M102.6,20.9c0,1.6-0.9,3.2-2.8,3.2c-1.9,0-2.8-1.6-2.8-3.2s0.9-3.2,2.8-3.2
		C101.7,17.7,102.6,19.3,102.6,20.9z M99.8,18.4c-1.4,0-2,1.4-2,2.5s0.6,2.5,2,2.5c1.4,0,2-1.4,2-2.5S101.2,18.4,99.8,18.4z"/>
	<path fill="#796E65" d="M104.5,23.9v-5.3h-1.2v-0.7h1.2v-1.3c0-1,0.4-1.5,1.4-1.5c0.2,0,0.5,0.1,0.7,0.1v0.6c-0.1,0-0.3,0-0.4,0
		c-1,0-1,0.5-1,1.3v0.8h1.4v0.7h-1.4v5.3H104.5z"/>
	<path fill="#796E65" d="M111.7,17c0.7-0.3,1.4-0.8,1.9-1.3h0.7v8.2h-0.8v-7.4c-0.5,0.5-1.2,0.9-1.9,1.2V17z"/>
	<path fill="#796E65" d="M123,19.8c0,2.1-0.5,4.3-2.7,4.3c-2.3,0-2.7-2.2-2.7-4.3c0-2.1,0.5-4.3,2.7-4.3
		C122.5,15.5,123,17.7,123,19.8z M118.4,19.8c0,1.2,0.2,3.6,1.9,3.6c1.8,0,1.9-2.4,1.9-3.6c0-1.2-0.2-3.6-1.9-3.6
		C118.5,16.2,118.4,18.6,118.4,19.8z"/>
	<path fill="#796E65" d="M128.8,17.7c0,1.2-0.7,2.3-1.9,2.3c-1.2,0-1.9-1.1-1.9-2.3c0-1.2,0.7-2.3,1.9-2.3
		C128.1,15.5,128.8,16.6,128.8,17.7z M125.7,17.7c0,0.8,0.3,1.7,1.2,1.7s1.2-0.9,1.2-1.7c0-0.8-0.3-1.7-1.2-1.7S125.7,17,125.7,17.7
		z M132.1,15.5l-4.6,8.4h-0.7l4.6-8.4H132.1z M134.1,21.8c0,1.2-0.7,2.3-1.9,2.3c-1.2,0-1.9-1.1-1.9-2.3c0-1.2,0.7-2.3,1.9-2.3
		C133.4,19.6,134.1,20.7,134.1,21.8z M131,21.8c0,0.8,0.3,1.7,1.2,1.7s1.2-0.9,1.2-1.7c0-0.8-0.3-1.7-1.2-1.7S131,21.1,131,21.8z"/>
</g>
</svg>
