<!-- Generator: Adobe Illustrator 18.1.1, SVG Export Plug-In  -->
<svg version="1.1"
	 xmlns="http://www.w3.org/2000/svg" xmlns:xlink="http://www.w3.org/1999/xlink" xmlns:a="http://ns.adobe.com/AdobeSVGViewerExtensions/3.0/"
	 x="0px" y="0px" width="90.9px" height="57.8px" viewBox="0 0 90.9 57.8" enable-background="new 0 0 90.9 57.8"
	 xml:space="preserve">
<defs>
</defs>
<g>
	<path fill="#F5B003" d="M8.8,23c-3.2,0-5.9,2.6-5.9,5.9c0,3.3,2.6,5.9,5.9,5.9c3.2,0,5.9-2.6,5.9-5.9C14.7,25.6,12.1,23,8.8,23z"/>
	<path fill="#F5B003" d="M23.9,12.3c-4.9,0-8.9,4-8.9,8.9c0,4.9,4,8.9,8.9,8.9c4.9,0,8.9-4,8.9-8.9C32.8,16.3,28.8,12.3,23.9,12.3z"
		/>
	<path fill="#F5B003" d="M45.5,0c-6.6,0-12,5.4-12,12c0,6.6,5.4,12,12,12c6.6,0,12-5.4,12-12C57.5,5.4,52.1,0,45.5,0z"/>
	<path fill="#F5B003" d="M63.5,57.8l0-12.1c0-9.9-4.9-18-18-18c-14,0-18,8.1-18,18l0,12.1H63.5z"/>
	<path fill="#F5B003" d="M82.1,22.9c3.2,0,5.9,2.6,5.9,5.9c0,3.3-2.6,5.9-5.9,5.9c-3.2,0-5.9-2.6-5.9-5.9
		C76.2,25.5,78.9,22.9,82.1,22.9z"/>
	<path fill="#F5B003" d="M67,12.2c4.9,0,8.9,4,8.9,8.9c0,4.9-4,8.9-8.9,8.9c-4.9,0-8.9-4-8.9-8.9C58.1,16.2,62.1,12.2,67,12.2z"/>
	<path fill="#F5B003" d="M65.1,57.8h15.3V46.1c0-7.4-3-13.4-13.4-13.4c-1.9,0-3.6,0.2-5,0.6c2.1,3.3,3.1,7.5,3.1,12L65.1,57.8z"/>
	<path fill="#F5B003" d="M25.8,57.8l0-12.3c0-4.6,0.8-8.8,2.8-12.1c-1.4-0.4-3-0.6-4.8-0.6c-10.4,0-13.4,6-13.4,13.4v11.6H25.8z"/>
	<path fill="#F5B003" d="M9.5,57.8l0-11.9c0-3.4,0.6-6.6,2.3-9c-0.9-0.2-1.9-0.4-3-0.4c-6.8,0-8.8,4-8.8,8.8v12.4H9.5z"/>
	<path fill="#F5B003" d="M81.4,57.8h9.5c0-0.1,0-0.1,0-0.1V45.2c0-4.9-2-8.8-8.8-8.8c-1.2,0-2.3,0.1-3.2,0.4c1.8,2.4,2.5,5.5,2.5,9
		L81.4,57.8z"/>
</g>
</svg>
