<!-- Generator: Adobe Illustrator 18.1.1, SVG Export Plug-In  -->
<svg version="1.1"
	 xmlns="http://www.w3.org/2000/svg" xmlns:xlink="http://www.w3.org/1999/xlink" xmlns:a="http://ns.adobe.com/AdobeSVGViewerExtensions/3.0/"
	 x="0px" y="0px" width="279px" height="87px" viewBox="0 0 279 87" enable-background="new 0 0 279 87" xml:space="preserve">
<defs>
</defs>
<g>
	<g>
		<rect x="0" y="4.3" fill="none" width="279" height="82.6"/>
		<text transform="matrix(1 0 0 1 2.768880e-02 16.9971)"><tspan x="0" y="0" fill="#796E65" font-family="'TrashHand'" font-size="23">$8.7 MILLION raised through </tspan><tspan x="0" y="28" fill="#F5B003" font-family="'TrashHand'" font-size="28">COMMUNITY SELLING listings,</tspan><tspan x="254.1" y="28" fill="#F5B003" font-family="'TrashHand'" font-size="29.2408"> </tspan></text>
	</g>
	<g>
		<g>
			<path fill="#796E65" d="M5,3.5C5,3.7,4.8,4,4.4,4.2C4.3,4.2,4.1,4.2,4,4.2C3.8,4.2,3.7,4.1,3.6,4.1c-0.1,0-0.2,0-0.3,0.1
				C2.5,5,2.1,5.9,2.1,6.9c0,0.4,0.1,0.8,0.2,1.1C2.4,8.1,3,9.2,4.1,11.1c0.7,1.3,1.1,2.4,1.1,3.3c0,0.7-0.2,1.5-0.6,2.1
				c-0.1,0.2-0.5,0.5-1,0.9c-0.4,0.3-0.8,0.4-1.2,0.4c-0.1,0-0.3,0-0.4-0.1c-0.5-0.2-0.7-0.4-0.7-0.7c0-0.2,0.1-0.4,0.3-0.6
				c0.1-0.1,0.2-0.1,0.4-0.1c0.2,0,0.4-0.1,0.5-0.2C2.8,15.6,3,15,3,14.4c0-0.9-0.5-2.1-1.5-3.8c-1-1.7-1.5-3-1.5-4
				C0,5.8,0.2,5,0.6,4.4c0.4-0.7,1-1.3,1.8-1.6c0.4-0.1,0.7-0.2,1-0.2C4,2.6,4.5,2.7,4.8,3C5,3.2,5,3.3,5,3.5"/>
			<path fill="#796E65" d="M3.9,0.9C4,1,4,1.1,4,1.2c0,0.2-0.1,0.6-0.2,1.1C3.7,2.7,3.6,3.1,3.6,3.3c0,0.1,0,0.2,0,0.3
				C3.6,3.7,3.4,3.7,3.2,3.7c-0.3,0-0.5-0.1-0.6-0.2c0-0.1,0-0.2,0-0.4c0-0.2,0.1-0.6,0.2-1C2.9,1.7,3,1.3,3,1.1C3,1,3,0.9,3,0.8
				C3,0.8,3.2,0.7,3.4,0.7c0.1,0,0.3,0,0.4,0.1c0,0,0.1,0,0.1,0C3.9,0.8,3.9,0.8,3.9,0.9C3.9,0.9,3.9,0.9,3.9,0.9
				C3.9,0.9,3.9,0.9,3.9,0.9"/>
			<path fill="#796E65" d="M3.9,16.5c0,0.1,0,0.2,0,0.4c0,0.3-0.1,0.7-0.2,1.2c-0.1,0.5-0.2,1-0.2,1.2c0,0.1,0,0.2,0,0.3
				c-0.1,0.1-0.2,0.2-0.5,0.2c-0.3,0-0.5-0.1-0.6-0.2c0-0.1,0-0.3,0-0.4c0-0.3,0.1-0.7,0.2-1.2C2.9,17.3,3,16.9,3,16.7
				c0-0.1,0-0.2,0-0.3c0.1-0.1,0.2-0.1,0.4-0.1c0.1,0,0.3,0,0.4,0.1c0,0,0.1,0,0.1,0c0,0,0,0,0,0.1C3.9,16.4,3.9,16.4,3.9,16.5
				C3.9,16.4,3.9,16.4,3.9,16.5"/>
		</g>
	</g>
</g>
</svg>
