<!-- Generator: Adobe Illustrator 18.1.1, SVG Export Plug-In  -->
<svg version="1.1"
	 xmlns="http://www.w3.org/2000/svg" xmlns:xlink="http://www.w3.org/1999/xlink" xmlns:a="http://ns.adobe.com/AdobeSVGViewerExtensions/3.0/"
	 x="0px" y="0px" width="252.7px" height="49.9px" viewBox="0 0 252.7 49.9" enable-background="new 0 0 252.7 49.9"
	 xml:space="preserve">
<defs>
</defs>
<g>
	<g>
		<g>
			<path fill="#796E65" d="M13.5,1.8c0.3,0.4,0.4,0.8,0.4,1.2c0,0.4-0.1,0.9-0.4,1.5c-0.3,0.5-0.5,1-0.8,1.4c-0.5,1-0.9,1.7-1.2,2.2
				c0.4,1,0.7,2.2,1.1,3.7c0.2,0.7,0.2,1.2,0.2,1.5c0,0.4-0.1,0.8-0.2,1.1c0,0-0.1,0.3-0.3,0.9c-0.1,0.3-0.2,0.5-0.4,0.7
				c-0.3,0.3-1,0.8-1.9,1.3c-0.4,0.2-0.8,0.3-1.2,0.3c-0.5,0-1-0.1-1.4-0.4c-0.8-0.4-1.2-1.1-1.2-1.9c0-0.7,0.2-1.4,0.5-2.3
				c0.4-0.7,0.7-1.4,1.1-2c0.1-0.2,0.5-0.7,1.1-1.6c0.5-0.6,0.7-1.2,0.7-1.7c0-0.5-0.1-1.2-0.3-2.1C9.1,4.6,9,3.8,9,3.4
				c0-0.6,0.2-1.2,0.5-1.6c0.2-0.2,0.4-0.3,0.7-0.3c0.1,0,0.2,0,0.4,0.1c0.2,0,0.3,0.1,0.4,0.1c0.2,0,0.5-0.1,0.7-0.2
				c0.2-0.1,0.4-0.2,0.6-0.2C12.8,1.2,13.2,1.4,13.5,1.8z M10.9,14.3c0.2-0.3,0.3-0.6,0.3-1c0-0.3-0.1-0.6-0.2-1
				c-0.1-0.3-0.2-0.7-0.3-1c0-0.2-0.2-0.6-0.4-1c-0.5,0.7-1,1.5-1.5,2.2c-0.6,0.9-0.9,1.7-0.9,2.3c0,0.4,0.1,0.8,0.4,1.2
				c0.1,0.2,0.3,0.3,0.5,0.3c0.3,0,0.7-0.2,1.1-0.7C10.3,15.1,10.6,14.7,10.9,14.3z M11.5,3.9c-0.2-0.3-0.3-0.5-0.6-0.5
				c-0.1,0-0.2,0.1-0.3,0.2c-0.1,0.2-0.1,0.6,0,1c0.1,0.4,0.2,0.7,0.3,0.9c0-0.1,0.2-0.3,0.4-0.7c0.1-0.2,0.2-0.4,0.2-0.5
				C11.6,4.2,11.6,4.1,11.5,3.9z"/>
			<path fill="#796E65" d="M18.7,14.3c0.1,0.6,0.1,0.9-0.1,1.1c-0.2,0.2-0.5,0.3-0.8,0.2c-0.3,0-0.6-0.2-0.9-0.4
				c-0.3-0.3-0.4-0.5-0.4-0.8c0-0.2,0.1-0.4,0.2-0.5c0.2-0.2,0.3-0.2,0.5-0.2c0.3,0,0.6,0,0.9,0.1C18.4,13.8,18.6,14,18.7,14.3z"/>
			<path fill="#796E65" d="M28.8,11.7c0,0.1,0,0.2,0,0.2c0,0.2-0.2,0.5-0.7,0.8c-0.3,0.2-0.7,0.3-1.2,0.4c-0.6,0.1-0.9,0.2-1.1,0.2
				c-0.1,0.5-0.3,1.7-0.5,3.5c-0.2,1.4-0.4,2.6-0.7,3.3c-0.5,0.2-0.9,0.1-1.2-0.2c-0.1-0.5-0.2-1.1-0.2-1.7c0-0.6,0.1-1.4,0.2-2.4
				c0.1-0.8,0.2-1.6,0.4-2.4c-0.1,0-0.2,0-0.4,0c-0.3,0-0.7,0.1-1.1,0.2c-0.6,0.2-1,0.3-1.1,0.3c-0.1-0.1-0.3-0.3-0.6-0.5
				s-0.5-0.4-0.5-0.6c0-0.1,0.1-0.3,0.3-0.4c0.4-0.3,1-0.6,1.8-0.7c1-0.1,1.6-0.3,1.8-0.3c0.1-0.5,0.2-1.5,0.3-2.9
				c0.1-1.2,0.2-2.2,0.4-2.9c-0.2,0-0.4,0-0.6,0C24,5.7,23.5,5.8,23,6c-0.5,0.2-1,0.4-1.4,0.5c0,0-0.2-0.2-0.6-0.6
				c-0.3-0.2-0.4-0.4-0.4-0.6c0-0.1,0-0.2,0.1-0.3c0.4-0.3,1-0.5,1.7-0.7C23.4,4.1,24,4,24.2,3.9c0.1,0,0.5-0.1,1-0.3
				c0.4-0.1,0.8-0.2,1.1-0.2c0.4,0,0.7,0.2,0.9,0.5c0,0.6-0.2,1.9-0.6,3.7c-0.3,1.5-0.4,2.8-0.4,3.8c0.2,0,0.5,0,0.9-0.1
				s0.7-0.2,0.9-0.2C28.3,11.2,28.6,11.4,28.8,11.7z"/>
			<path fill="#796E65" d="M46.3,16.7c0.1,0.3-0.2,0.5-0.7,0.5c-0.3,0-0.7-0.1-1-0.4c-0.3-0.3-0.5-0.7-0.7-1.3
				c-0.2-0.5-0.2-1.3-0.3-2.3c0-1.1-0.1-1.9-0.2-2.3c-0.2,0.7-0.5,1.7-1,3.1c-0.3,0.8-0.4,1.2-0.5,1.3c-0.2,0.5-0.6,0.7-0.9,0.6
				c-0.7-0.2-1.3-0.6-1.7-1.2c-0.3-0.4-0.5-1.1-0.7-2c-0.2-1-0.5-1.7-0.6-2.1c-0.7,3.2-1.4,5.6-2.1,7.2c-0.1,0.2-0.4,0.2-1,0
				c-0.4-0.2-0.7-0.5-0.7-0.9c0-0.1,0.2-0.6,0.5-1.5c0.1-0.4,0.7-2.1,1.6-5.3c0.3-1.1,0.7-3,1-5.8c0,0,0.1-0.2,0.2-0.5
				c0.1-0.2,0.2-0.3,0.4-0.3c0.5,0,0.9,0.1,1.1,0.3c0,0.4,0.1,1.2,0.2,2.2c0.1,1,0.2,1.7,0.2,2.2c0.1,0.9,0.3,1.7,0.4,2.6
				c0.2,1,0.5,1.8,0.9,2.4c1.5-4.1,2.4-7.3,2.8-9.7C43.7,3.1,43.9,3,44.3,3c0.6,0,0.9,0.2,1,0.6c0.1,0.6,0.2,1.2,0.2,1.9
				c0,0.2,0,0.7,0,1.5c0,0.6,0,1.1,0,1.5C45.5,11.8,45.8,14.5,46.3,16.7z"/>
			<path fill="#796E65" d="M50.1,4.6c0,0.4,0,0.9,0,1.4c0,1-0.1,2.6-0.3,4.7c-0.2,2.1-0.3,3.7-0.3,4.8c0,0.4,0,0.8,0,1.2
				c-0.1,0.4-0.4,0.6-0.9,0.6c-0.7,0-1-0.3-1.1-0.9c-0.1-0.5-0.1-1.1-0.1-1.7c0-1,0.1-2.6,0.4-4.7C48,8,48.2,6.4,48.2,5.4
				c0-0.4,0-0.8,0-1.2c0.2-0.3,0.4-0.4,0.8-0.4c0.3,0,0.6,0.1,0.9,0.3C49.8,4,49.9,4,49.9,4C50,4,50,4.1,50,4.2
				C50,4.4,50,4.5,50.1,4.6C50,4.6,50,4.6,50.1,4.6z"/>
			<path fill="#796E65" d="M58,13.6c0,0-0.9,0.7-2.7,1.9c-1,0.7-1.9,1.3-2.7,1.6c-0.1,0-0.2,0.1-0.3,0.1c-0.2,0-0.4-0.1-0.6-0.4
				c-0.3-0.4-0.4-0.6-0.4-0.6c0-1.4,0.1-3.2,0.3-5.6c0.2-2.6,0.3-4.4,0.3-5.6c0-0.8,0-1.5-0.1-2.2c0.2-0.2,0.5-0.3,0.8-0.3
				c0.6,0,0.9,0.2,1,0.6c0,1.3,0,3.1-0.2,5.6s-0.2,4.4-0.2,5.6c0.4-0.2,1-0.5,1.7-1c0.8-0.5,1.3-0.9,1.6-1c0.1,0,0.2,0,0.4,0
				s0.3,0,0.4,0c0.3,0,0.5,0.1,0.7,0.4C58.2,13.1,58.2,13.4,58,13.6z"/>
			<path fill="#796E65" d="M65.3,13.6c0,0-0.9,0.7-2.7,1.9c-1,0.7-1.9,1.3-2.7,1.6c-0.1,0-0.2,0.1-0.3,0.1c-0.2,0-0.4-0.1-0.6-0.4
				c-0.3-0.4-0.4-0.6-0.4-0.6c0-1.4,0.1-3.2,0.3-5.6C59,8,59.1,6.2,59.1,5.1c0-0.8,0-1.5-0.1-2.2c0.2-0.2,0.5-0.3,0.8-0.3
				c0.6,0,0.9,0.2,1,0.6c0,1.3,0,3.1-0.2,5.6s-0.2,4.4-0.2,5.6c0.4-0.2,1-0.5,1.7-1c0.8-0.5,1.3-0.9,1.6-1c0.1,0,0.2,0,0.4,0
				s0.3,0,0.4,0c0.3,0,0.5,0.1,0.7,0.4C65.5,13.1,65.5,13.4,65.3,13.6z"/>
			<path fill="#796E65" d="M68.5,4.6c0,0.4,0,0.9,0,1.4c0,1-0.1,2.6-0.3,4.7c-0.2,2.1-0.3,3.7-0.3,4.8c0,0.4,0,0.8,0,1.2
				c-0.1,0.4-0.4,0.6-0.9,0.6c-0.7,0-1-0.3-1.1-0.9c-0.1-0.5-0.1-1.1-0.1-1.7c0-1,0.1-2.6,0.4-4.7c0.3-2.1,0.4-3.6,0.4-4.6
				c0-0.4,0-0.8,0-1.2C66.8,4,67,3.8,67.4,3.8c0.3,0,0.6,0.1,0.9,0.3C68.3,4,68.4,4,68.4,4c0,0,0.1,0.1,0.1,0.2
				C68.5,4.4,68.5,4.5,68.5,4.6C68.5,4.6,68.5,4.6,68.5,4.6z"/>
			<path fill="#796E65" d="M77.7,11.3c-0.9,2-2.2,3.3-3.8,3.6c-0.2,0-0.4,0.1-0.6,0.1c-0.9,0-1.8-0.5-2.6-1.4
				c-0.6-0.6-0.9-1.5-0.9-2.5c0-1.1,0.3-2.4,1-3.7c0.3-0.6,0.6-1,1.1-1.4c0.5-0.5,0.9-0.7,1.4-0.7c0.2,0,0.5,0.1,0.7,0.3
				C74,5.7,74.6,6,75.5,6.3c0.7,0.2,1.3,0.7,1.6,1.2c0.5,1,0.8,1.9,0.8,2.6C77.9,10.6,77.8,11,77.7,11.3z M75.8,9.9
				c-0.1-1.1-0.4-1.8-0.9-2c-0.1,0-0.1,0-0.2,0c-0.2,0-0.4,0.2-0.7,0.5c-0.3,0.4-0.5,0.6-0.7,0.6c-0.1,0-0.3,0-0.5-0.1
				s-0.3-0.2-0.4-0.2c0,0-0.1,0-0.1,0c-0.5,0.5-0.8,1.2-0.8,2.1c0,0.7,0.2,1.2,0.5,1.7c0.4,0.6,0.8,0.9,1.1,0.9c0.7,0,1.3-0.4,2-1.3
				C75.6,11.3,75.9,10.6,75.8,9.9z"/>
			<path fill="#796E65" d="M88.4,2.3c-0.2,2.1-0.4,4.1-0.6,6.2c-0.3,2.5-0.4,4.5-0.4,6.1c0,0.5,0,1.1,0,1.6c0,0.2-0.1,0.5-0.3,0.6
				c-0.2,0.2-0.4,0.3-0.7,0.3c-0.5,0-0.9-0.3-1.2-1c-1-1.9-2.2-4.9-3.7-9c0-0.1-0.1-0.1-0.1-0.1c-0.1,0-0.2,0.1-0.2,0.3
				c-0.3,2.2-0.4,4.5-0.4,6.9c0,1.2,0,2.4,0.1,3.6c0,0.4-0.1,0.8-0.4,0.9c-0.1,0.1-0.2,0.2-0.3,0.2c-0.1,0-0.2,0-0.4-0.1
				c-0.2-0.1-0.4-0.2-0.4-0.2c-0.2-0.1-0.3-0.2-0.4-0.6c0-0.2,0-0.5,0-0.8c0-0.9-0.1-1.8-0.1-2.7c0-1.6,0.1-3.7,0.3-6.1
				c0.3-3.7,0.5-5.8,0.5-6.2c0-0.3,0.3-0.5,0.9-0.5c0.3,0,0.6,0.2,1.1,0.6c0.5,0.9,1.1,2.5,1.8,4.6c0.7,2,1.3,3.5,1.9,4.6
				c0.2-2,0.6-5.1,1.1-9.2c0-0.3,0.3-0.5,0.7-0.5c0.1,0,0.3,0,0.5,0.1C87.9,2,88.1,2,88.1,2C88.3,2.1,88.4,2.2,88.4,2.3z"/>
			<path fill="#796E65" d="M104.7,16.4c0,0.1,0.1,0.1,0.1,0.2c0,0.4-0.4,0.6-1.1,0.8c-0.8-0.6-1.8-1.6-3-2.9c-1.3-1.5-2.4-2.5-3-3
				c0,0.4-0.1,1.4-0.3,3.1c-0.1,1.3-0.2,2.3-0.4,3c0,0-0.1,0-0.3,0.1c-0.2,0.1-0.3,0.1-0.4,0.1c-0.7-0.2-1-0.6-1-1.4
				c0-0.2,0-0.5,0.1-0.9c0.1-0.4,0.1-0.7,0.1-0.8c0.1-0.9,0.1-1.9,0.1-3.2V9c0-2.1,0.1-3.8,0.3-5.3c0.2-1,1-1.4,2.7-1.3
				c0.8,0,1.5,0.4,2.2,1.2c0.6,0.7,0.9,1.5,0.9,2.4c0,0.7-0.3,1.4-0.8,2.2c-0.5,0.6-1,1.1-1.7,1.5c-0.3,0.2-0.4,0.3-0.4,0.5
				c0,0.2,0.2,0.4,0.5,0.7c0.2,0.2,0.5,0.4,0.7,0.6c0,0,0.9,0.8,2.5,2.3C103.5,14.8,104.3,15.7,104.7,16.4z M99.9,6.1
				c0-0.3,0.1-0.5,0-0.7c0-0.3-0.2-0.6-0.4-0.9s-0.6-0.4-1.1-0.4c-0.4,0-0.6,0.1-0.7,0.3c-0.1,0.4-0.1,0.8-0.1,1.3
				c0,0.2,0,0.7,0.1,1.5c0,0.6,0,1.1,0,1.5C99,7.9,99.7,7,99.9,6.1z"/>
			<path fill="#796E65" d="M111.8,15.2c0.1,0.2,0.1,0.5,0.1,0.6c0,0.3-0.1,0.6-0.4,0.8c-0.3,0.2-0.4,0.3-0.5,0.3
				c-0.8-0.1-1.2-0.7-1.4-1.8c-0.2-1.2-0.5-2.1-0.8-2.9c-0.5,0-1,0.1-1.6,0.1c-0.6,0.1-1.1,0.3-1.4,0.6c-0.2,0.5-0.4,1.3-0.7,2.5
				c-0.3,1.1-0.5,2-0.8,2.6c-0.1,0.3-0.4,0.4-0.8,0.2c-0.5-0.2-0.8-0.4-0.8-0.7c0-0.6,0.1-1.4,0.5-2.3c0.5-1.1,0.7-1.9,0.8-2.4
				c0-0.1-0.1-0.3-0.3-0.5c-0.2-0.2-0.3-0.3-0.3-0.4c0-0.1,0-0.2,0.1-0.2c0.1-0.1,0.2-0.2,0.5-0.2s0.4-0.1,0.4-0.2
				c0.3-0.8,0.7-2.2,1.3-4.3c0.5-1.8,1-3.2,1.4-4.2c0.1-0.2,0.3-0.3,0.6-0.3c0.2,0,0.4,0.1,0.6,0.2c0.4,0.4,0.7,0.9,0.8,1.7
				c0.1,0.6,0.2,1.3,0.3,1.9C110.2,9.8,111,12.8,111.8,15.2z M108.5,10.8c0-0.6-0.1-1.2-0.3-1.9c-0.2-0.6-0.3-1.2-0.4-1.8
				c-0.5,1.3-0.9,2.5-1.2,3.8C106.8,10.8,107.4,10.8,108.5,10.8z"/>
			<path fill="#796E65" d="M115.3,4.6c0,0.4,0,0.9,0,1.4c0,1-0.1,2.6-0.3,4.7c-0.2,2.1-0.3,3.7-0.3,4.8c0,0.4,0,0.8,0,1.2
				c-0.1,0.4-0.4,0.6-0.9,0.6c-0.7,0-1-0.3-1.1-0.9c-0.1-0.5-0.1-1.1-0.1-1.7c0-1,0.1-2.6,0.4-4.7c0.3-2.1,0.4-3.6,0.4-4.6
				c0-0.4,0-0.8,0-1.2c0.2-0.3,0.4-0.4,0.8-0.4c0.3,0,0.6,0.1,0.9,0.3c0.1,0,0.1-0.1,0.1-0.1c0,0,0.1,0.1,0.1,0.2
				C115.2,4.4,115.2,4.5,115.3,4.6C115.2,4.6,115.2,4.6,115.3,4.6z"/>
			<path fill="#796E65" d="M121.5,2.4c0,0.3-0.2,0.6-0.7,0.8c-0.1,0.1-0.3,0.1-0.4,0c-0.2-0.1-0.3-0.1-0.3-0.1c-0.1,0-0.2,0-0.3,0.1
				c-0.8,0.8-1.2,1.8-1.2,3c0,0.4,0.1,0.9,0.2,1.2c0.1,0.2,0.6,1.4,1.7,3.6c0.7,1.5,1.1,2.7,1.1,3.7c0,0.8-0.2,1.7-0.6,2.4
				c-0.1,0.3-0.5,0.6-1,1c-0.4,0.3-0.8,0.5-1.2,0.5c-0.1,0-0.3,0-0.4-0.1c-0.5-0.2-0.7-0.5-0.7-0.8c0-0.2,0.1-0.4,0.3-0.7
				c0.1-0.1,0.2-0.1,0.4-0.1c0.2,0,0.4-0.1,0.5-0.3c0.3-0.7,0.5-1.4,0.5-2.1c0-1-0.5-2.4-1.5-4.3c-1-1.9-1.5-3.4-1.5-4.5
				c0-0.9,0.2-1.8,0.6-2.5c0.4-0.8,1-1.4,1.8-1.8c0.4-0.2,0.7-0.3,1-0.3c0.6,0,1.1,0.2,1.4,0.5C121.4,2,121.5,2.2,121.5,2.4z"/>
			<path fill="#796E65" d="M130.8,4.8c-0.6,0.2-1.4,0.5-2.5,0.8c-1.1,0.3-1.9,0.6-2.5,0.8c-0.1,0.4-0.2,1.3-0.3,2.7
				c0.2,0.1,0.5,0.1,0.9,0.1c0.2,0,0.6,0,1.1-0.1c0.5-0.1,0.9-0.1,1.1-0.1c0.4,0,0.8,0.1,1.1,0.3c0.2,0.3,0.3,0.5,0.3,0.6
				c0,0.1-0.1,0.2-0.2,0.3c0,0-0.1,0.1-0.3,0.3c-0.1,0.1-0.3,0.2-0.5,0.2c-0.3,0.1-0.9,0.1-1.8,0.1c-0.7,0-1.3,0.1-1.7,0.3
				c-0.3,1.1-0.4,2-0.4,2.7c0,0.4,0.1,0.8,0.2,1.1c0.7,0.5,2,0.7,3.7,0.6c0.1,0,0.3-0.1,0.4-0.2c0.1-0.1,0.3-0.2,0.3-0.2
				c0.4-0.1,0.7,0.2,0.9,1c0,0.2,0,0.5-0.1,0.7c-0.1,0.2-0.3,0.3-0.6,0.3c-1.9,0.1-3.5-0.1-4.8-0.4c-0.4-0.1-0.8-0.3-1.2-0.7
				c-0.4-0.4-0.6-0.8-0.6-1.2c-0.1-1.3-0.1-2.5,0-3.6c-0.4-0.3-0.6-0.6-0.6-0.9c0-0.1,0.1-0.3,0.4-0.4c0.2-0.1,0.3-0.2,0.4-0.4
				c0-0.1,0.1-0.9,0.2-2.2c-0.9-0.2-1.3-0.5-1.3-1c0-0.4,0.3-0.8,0.8-1.1c0.5-0.2,1-0.4,1.5-0.6c0.6-0.3,1.3-0.6,2.2-0.8
				c0.7-0.2,1.5-0.4,2.2-0.6c0.1,0,0.2,0,0.3,0c0.4,0,0.9,0.2,1.4,0.5c0,0.1,0.1,0.2,0.1,0.3c0.1,0.2,0.1,0.3,0.1,0.4
				C131,4.6,130.9,4.7,130.8,4.8z"/>
			<path fill="#796E65" d="M138,11.2c-0.2,0.4-0.3,0.7-0.4,1.1c-0.2,0.4-0.4,0.7-0.6,1c-0.5,0.6-1,1.2-1.4,1.8
				c-0.6,0.7-1.1,1.2-1.5,1.5c-0.2,0.2-0.3,0.4-0.5,0.6c-0.2,0.2-0.4,0.3-0.6,0.3c-0.1,0-0.2,0-0.3-0.1c-0.1,0-0.3-0.1-0.4-0.2
				c-0.1-0.1-0.2-0.2-0.3-0.3c0-0.6-0.1-1.3-0.1-2.1c0-0.8,0-1.9,0.1-3.4C132,9.9,132,8.8,132,8c0-1,0-1.9-0.1-2.7
				c0,0-0.2-0.2-0.5-0.5c-0.2-0.2-0.3-0.4-0.3-0.6c0-0.1,0-0.2,0-0.2c0.1-0.2,0.2-0.3,0.5-0.3c0.2,0,0.4-0.1,0.6-0.1
				c1.3,0.3,2.6,1,4,2.2c0.4,0.3,0.7,0.6,0.9,1c0.7,1.1,1.1,2.1,1.1,3.1C138.3,10.3,138.2,10.7,138,11.2z M136.3,8.7
				c-0.1-1-1-1.8-2.5-2.6c-0.1,2.6-0.1,5.3-0.1,8.1c1.7-1.7,2.6-3.4,2.6-4.9C136.4,9.2,136.4,8.9,136.3,8.7z"/>
			<path fill="#796E65" d="M156.7,1.9c-0.1,0.6-0.4,0.9-0.8,1c-1,0.2-2.7,0.6-5.2,1c-0.3,3.8-0.5,7-0.5,9.5c0,1,0,1.9,0,2.9
				c0,0.3,0,0.5,0,0.7c-0.1,0.2-0.2,0.4-0.5,0.3c-0.4,0-0.8-0.2-1.1-0.6c-0.3-0.4-0.5-0.8-0.5-1.2c0-0.6,0-1.2,0-1.8
				c0-1,0.1-2.6,0.2-4.8c0.1-2.1,0.2-3.7,0.2-4.8c-0.4,0-1,0-1.7,0.1c-0.8,0.1-1.4,0.2-1.7,0.2c-0.8,0-1.4-0.2-1.8-0.6
				c-0.2-0.4-0.3-0.6-0.3-0.6c0-0.1,0.1-0.2,0.2-0.3c0.5-0.2,1.5-0.3,3-0.5c1.3-0.1,2.3-0.4,3-0.7c0.5,0.2,1.2,0.3,1.8,0.3
				c0.7,0,1.3-0.1,2-0.3c0.2,0,0.7-0.1,1.4-0.3c0.6-0.1,1-0.2,1.4-0.1c0.3,0,0.4,0.1,0.3,0.3C156.5,1.5,156.7,1.7,156.7,1.9z"/>
			<path fill="#796E65" d="M161.5,3.4c0,1.4-0.3,3.5-0.7,6.5c-0.4,2.8-0.6,5-0.6,6.5c0,0.5,0,0.9,0,1.4c0,0.1,0,0.2-0.1,0.3
				s-0.2,0.1-0.3,0.1c-0.4,0-0.7,0-0.9-0.1c-0.6-0.3-0.9-1-0.9-1.9c0-0.2,0-0.5,0-0.9s0-0.7,0-0.9c0-0.3,0-0.8,0.1-1.4
				c0.1-0.6,0.1-1.1,0.1-1.4c-0.2,0-0.5,0-0.9-0.1c-0.4-0.1-0.6-0.1-0.8-0.1c-0.2,0-0.4,0-0.6,0.1c-0.4,1.2-0.6,3-0.6,5.4
				c-0.5,0.2-1,0.2-1.5-0.1c-0.4-0.2-0.5-0.6-0.5-1.1c0-0.1,0-0.3,0-0.5c0-0.2,0-0.3,0-0.4c0-0.8,0.2-2.5,0.5-4.9
				c0.3-2.1,0.4-3.7,0.4-4.9c0-0.2,0.1-0.3,0.4-0.3c0.2,0,0.4-0.1,0.4-0.1c0.1,0.1,0.3,0.2,0.7,0.3c0.3,0.1,0.5,0.2,0.5,0.4
				c0.1,0.4,0.2,0.8,0.2,1.3c0,0.3,0,0.9-0.1,1.6c-0.1,0.7-0.1,1.3-0.1,1.7c0.2,0.1,0.4,0.2,0.7,0.3c0.2,0,0.4,0,0.8,0
				c0.4,0,0.7,0,0.8,0c0.4-1.6,0.7-3.7,1-6.3c0.1-0.5,0.3-0.8,0.6-0.8C161,2.8,161.4,3,161.5,3.4z"/>
			<path fill="#796E65" d="M172.4,16.4c0,0.1,0.1,0.1,0.1,0.2c0,0.4-0.4,0.6-1.1,0.8c-0.8-0.6-1.8-1.6-3-2.9c-1.3-1.5-2.4-2.5-3-3
				c0,0.4-0.1,1.4-0.3,3.1c-0.1,1.3-0.2,2.3-0.4,3c0,0-0.1,0-0.3,0.1c-0.2,0.1-0.3,0.1-0.4,0.1c-0.7-0.2-1-0.6-1-1.4
				c0-0.2,0-0.5,0.1-0.9c0.1-0.4,0.1-0.7,0.1-0.8c0.1-0.9,0.1-1.9,0.1-3.2V9c0-2.1,0.1-3.8,0.3-5.3c0.2-1,1-1.4,2.7-1.3
				c0.8,0,1.5,0.4,2.2,1.2c0.6,0.7,0.9,1.5,0.9,2.4c0,0.7-0.3,1.4-0.8,2.2c-0.5,0.6-1,1.1-1.7,1.5c-0.3,0.2-0.4,0.3-0.4,0.5
				c0,0.2,0.2,0.4,0.5,0.7c0.2,0.2,0.5,0.4,0.7,0.6c0,0,0.9,0.8,2.5,2.3C171.2,14.8,171.9,15.7,172.4,16.4z M167.5,6.1
				c0-0.3,0.1-0.5,0-0.7c0-0.3-0.2-0.6-0.4-0.9s-0.6-0.4-1.1-0.4c-0.4,0-0.6,0.1-0.7,0.3c-0.1,0.4-0.1,0.8-0.1,1.3
				c0,0.2,0,0.7,0.1,1.5c0,0.6,0,1.1,0,1.5C166.6,7.9,167.3,7,167.5,6.1z"/>
			<path fill="#796E65" d="M179,11.3c-0.9,2-2.2,3.3-3.8,3.6c-0.2,0-0.4,0.1-0.6,0.1c-0.9,0-1.8-0.5-2.6-1.4
				c-0.6-0.6-0.9-1.5-0.9-2.5c0-1.1,0.3-2.4,1-3.7c0.3-0.6,0.6-1,1.1-1.4c0.5-0.5,0.9-0.7,1.4-0.7c0.2,0,0.5,0.1,0.7,0.3
				c0.2,0.2,0.8,0.4,1.7,0.7c0.7,0.2,1.3,0.7,1.6,1.2c0.5,1,0.8,1.9,0.8,2.6C179.2,10.6,179.1,11,179,11.3z M177.1,9.9
				c-0.1-1.1-0.4-1.8-0.9-2c-0.1,0-0.1,0-0.2,0c-0.2,0-0.4,0.2-0.7,0.5c-0.3,0.4-0.5,0.6-0.7,0.6c-0.1,0-0.3,0-0.5-0.1
				s-0.3-0.2-0.4-0.2c0,0-0.1,0-0.1,0c-0.5,0.5-0.8,1.2-0.8,2.1c0,0.7,0.2,1.2,0.5,1.7c0.4,0.6,0.8,0.9,1.1,0.9c0.7,0,1.3-0.4,2-1.3
				C177,11.3,177.2,10.6,177.1,9.9z"/>
			<path fill="#796E65" d="M188.3,3.7c-0.1,1.1-0.4,2.5-0.9,4.3c-0.7,2.4-1.1,3.9-1.2,4.4c-0.3,1.5-1,3-1.9,4.2
				c-0.6,0.8-1.3,1.2-2.1,1.2c-0.7,0-1.2-0.5-1.5-1.3c-0.6-1.4-0.9-3.1-0.9-5.1c0-1.1,0.1-2.6,0.3-4.3c0,0.2,0-0.3,0-1.4
				c0-1,0.4-1.4,1.1-1.4c0.2,0,0.3,0,0.5,0.1c0.2,0.1,0.3,0.2,0.5,0.3c0,0.8,0,1.9-0.1,3.5c-0.1,1.6-0.1,2.8-0.1,3.5
				c0,0.8,0,1.5,0.1,2.1c0,0.3,0.2,0.9,0.4,1.8c0.6-0.7,1.1-1.7,1.5-2.9c0.1-0.4,0.4-1.5,0.7-3.3c0.3-1.3,0.6-2.4,1-3.2
				c0.1-0.2,0.2-0.6,0.3-1.2c0.1-0.6,0.2-1,0.3-1.2c0.2-0.4,0.5-0.6,0.9-0.6C187.7,3.2,188.1,3.4,188.3,3.7z"/>
			<path fill="#796E65" d="M197.3,10.5c-0.4,1-0.7,2.3-0.8,3.8c-0.1,1.3-0.1,2.6-0.2,3.9c0,0.4-0.3,0.6-0.8,0.6
				c-0.1,0-0.3,0-0.4-0.1c-0.7-0.3-1-0.8-1-1.5c0-0.2,0-0.5,0.1-1c0.1-0.4,0.1-0.8,0.1-1c0.1-0.4,0.1-1.1,0.2-2
				c-1.1,1-2.3,1.7-3.6,2.2c-0.2,0.1-0.4,0.1-0.6,0.1c-0.7,0-1.4-0.4-2-1.2c-0.3-0.4-0.5-1-0.5-1.7c0-0.6,0.1-1.3,0.4-2
				c0.8-2.5,2.1-4.9,3.9-7.3c0.9-1.2,1.7-1.8,2.4-1.8c0.6,0,1,0.2,1,0.7c0.1,0.4-0.1,0.7-0.4,0.8c-0.5,0.3-0.8,0.5-0.9,0.5
				c-1.3,1.4-2.5,3.3-3.5,5.5c-0.7,1.4-1,2.6-1,3.7c0,0.2,0,0.4,0,0.6c0,0,0.1,0.1,0.1,0.2c0.1,0.1,0.1,0.2,0.3,0.1
				c1-0.4,2.5-1.4,4.6-3.2c0.2-0.1,0.3-0.5,0.5-1.1c0.2-0.4,0.4-0.6,0.8-0.6c-0.1,0,0,0,0.4,0c0.2,0,0.3,0,0.4,0.1
				c0.3,0.4,0.4,0.8,0.4,1.1C197.4,10.2,197.3,10.4,197.3,10.5z"/>
			<path fill="#796E65" d="M206.7,3.4c0,1.4-0.3,3.5-0.7,6.5c-0.4,2.8-0.6,5-0.6,6.5c0,0.5,0,0.9,0,1.4c0,0.1,0,0.2-0.1,0.3
				s-0.2,0.1-0.3,0.1c-0.4,0-0.7,0-0.9-0.1c-0.6-0.3-0.9-1-0.9-1.9c0-0.2,0-0.5,0-0.9s0-0.7,0-0.9c0-0.3,0-0.8,0.1-1.4
				c0.1-0.6,0.1-1.1,0.1-1.4c-0.2,0-0.5,0-0.9-0.1c-0.4-0.1-0.6-0.1-0.8-0.1c-0.2,0-0.4,0-0.6,0.1c-0.4,1.2-0.6,3-0.6,5.4
				c-0.5,0.2-1,0.2-1.5-0.1c-0.4-0.2-0.5-0.6-0.5-1.1c0-0.1,0-0.3,0-0.5c0-0.2,0-0.3,0-0.4c0-0.8,0.2-2.5,0.5-4.9
				c0.3-2.1,0.4-3.7,0.4-4.9c0-0.2,0.1-0.3,0.4-0.3c0.2,0,0.4-0.1,0.4-0.1c0.1,0.1,0.3,0.2,0.7,0.3c0.3,0.1,0.5,0.2,0.5,0.4
				c0.1,0.4,0.2,0.8,0.2,1.3c0,0.3,0,0.9-0.1,1.6c-0.1,0.7-0.1,1.3-0.1,1.7c0.2,0.1,0.4,0.2,0.7,0.3c0.2,0,0.4,0,0.8,0
				c0.4,0,0.7,0,0.8,0c0.4-1.6,0.7-3.7,1-6.3c0.1-0.5,0.3-0.8,0.6-0.8C206.1,2.8,206.6,3,206.7,3.4z"/>
			<path fill="#F5B003" d="M8.5,27.4c0,0.5-0.3,0.8-1,1c-0.9,0.2-1.4,0.4-1.6,0.6c-2.1,2.2-3.1,5-3.1,8.5c0,1.6,0.3,3.2,0.8,4.6
				c0.4,1.2,0.7,2,0.9,2.4c0.5,0.9,1,1.6,1.7,2c0.3,0.1,0.6,0.3,0.8,0.4c0.3,0.2,0.4,0.4,0.4,0.7c0,0.3-0.1,0.6-0.3,0.8
				c-0.2,0.2-0.4,0.3-0.6,0.3c-0.2,0-0.6-0.2-1.1-0.4c-0.9-0.5-1.9-1.6-2.9-3.3c-0.3-0.4-0.5-0.9-0.8-1.3s-0.5-0.9-0.6-1.3
				C1,42,0.8,40.8,0.6,38.6c-0.1-0.7-0.1-1.3-0.1-1.9c0-3.3,1-6.1,2.9-8.4c1.1-1.3,2.3-2,3.5-2c0.5,0,1,0.2,1.4,0.5
				C8.4,26.9,8.5,27.1,8.5,27.4z"/>
			<path fill="#F5B003" d="M17.6,38.2c-1.1,2.5-2.7,4-4.7,4.4c-0.2,0.1-0.5,0.1-0.7,0.1c-1.1,0-2.1-0.6-3.2-1.7
				c-0.7-0.8-1.1-1.8-1.1-3.1c0-1.4,0.4-2.9,1.2-4.5c0.4-0.7,0.8-1.3,1.3-1.7c0.6-0.6,1.1-0.9,1.7-0.9c0.3,0,0.6,0.1,0.8,0.3
				c0.3,0.2,1,0.5,2.1,0.9c0.9,0.3,1.5,0.8,1.9,1.5c0.7,1.3,1,2.3,1,3.2C17.9,37.4,17.8,37.8,17.6,38.2z M15.3,36.5
				c-0.1-1.4-0.5-2.2-1.1-2.4C14.2,34,14.1,34,14,34c-0.2,0-0.5,0.2-0.8,0.6c-0.4,0.4-0.7,0.7-0.9,0.8c-0.1,0.1-0.3,0-0.6-0.2
				c-0.2-0.2-0.4-0.3-0.5-0.3c-0.1,0-0.1,0-0.1,0.1c-0.7,0.6-1,1.4-1,2.6c0,0.8,0.2,1.5,0.6,2c0.5,0.8,1,1.1,1.3,1.1
				c0.8,0,1.6-0.5,2.4-1.5C15.1,38.2,15.4,37.3,15.3,36.5z"/>
			<path fill="#F5B003" d="M32.6,44.8c0.1,0.4-0.2,0.6-0.8,0.6c-0.4,0-0.8-0.2-1.3-0.5c-0.4-0.3-0.6-0.8-0.8-1.5
				c-0.2-0.7-0.3-1.6-0.3-2.8c0-1.3-0.1-2.3-0.2-2.8c-0.2,0.8-0.6,2.1-1.2,3.8c-0.3,0.9-0.5,1.4-0.6,1.6c-0.3,0.6-0.7,0.8-1.1,0.8
				c-0.9-0.2-1.6-0.7-2.1-1.5c-0.3-0.5-0.6-1.4-0.9-2.5c-0.3-1.3-0.6-2.1-0.8-2.5c-0.8,3.9-1.7,6.8-2.6,8.7
				c-0.1,0.3-0.5,0.3-1.2-0.1c-0.5-0.3-0.8-0.6-0.8-1.1c0-0.2,0.2-0.8,0.6-1.8c0.2-0.4,0.8-2.6,2-6.5c0.4-1.3,0.8-3.7,1.2-7.1
				c0,0,0.1-0.2,0.3-0.6c0.1-0.3,0.3-0.4,0.5-0.4c0.6,0,1.1,0.1,1.3,0.4c0,0.5,0.1,1.4,0.3,2.6c0.2,1.2,0.3,2.1,0.3,2.7
				c0.2,1,0.3,2.1,0.5,3.2c0.2,1.2,0.6,2.2,1.1,2.9c1.8-5,2.9-8.9,3.4-11.8c0.1-0.3,0.4-0.4,0.8-0.4c0.7,0,1.1,0.2,1.2,0.7
				c0.1,0.7,0.2,1.4,0.2,2.3c0,0.3,0,0.9-0.1,1.8c0,0.8,0,1.4,0,1.9C31.7,38.8,32.1,42.1,32.6,44.8z"/>
			<path fill="#F5B003" d="M47.8,44.8c0.1,0.4-0.2,0.6-0.8,0.6c-0.4,0-0.8-0.2-1.3-0.5c-0.4-0.3-0.6-0.8-0.8-1.5
				c-0.2-0.7-0.3-1.6-0.3-2.8c0-1.3-0.1-2.3-0.2-2.8c-0.2,0.8-0.6,2.1-1.2,3.8c-0.3,0.9-0.5,1.4-0.6,1.6c-0.3,0.6-0.7,0.8-1.1,0.8
				c-0.9-0.2-1.6-0.7-2.1-1.5c-0.3-0.5-0.6-1.4-0.9-2.5c-0.3-1.3-0.6-2.1-0.8-2.5c-0.8,3.9-1.7,6.8-2.6,8.7
				c-0.1,0.3-0.5,0.3-1.2-0.1c-0.5-0.3-0.8-0.6-0.8-1.1c0-0.2,0.2-0.8,0.6-1.8c0.2-0.4,0.8-2.6,2-6.5c0.4-1.3,0.8-3.7,1.2-7.1
				c0,0,0.1-0.2,0.3-0.6c0.1-0.3,0.3-0.4,0.5-0.4c0.6,0,1.1,0.1,1.3,0.4c0,0.5,0.1,1.4,0.3,2.6c0.2,1.2,0.3,2.1,0.3,2.7
				c0.2,1,0.3,2.1,0.5,3.2c0.2,1.2,0.6,2.2,1.1,2.9c1.8-5,2.9-8.9,3.4-11.8c0.1-0.3,0.4-0.4,0.8-0.4c0.7,0,1.1,0.2,1.2,0.7
				c0.1,0.7,0.2,1.4,0.2,2.3c0,0.3,0,0.9-0.1,1.8c0,0.8,0,1.4,0,1.9C46.9,38.8,47.2,42.1,47.8,44.8z"/>
			<path fill="#F5B003" d="M59.2,29c-0.1,1.3-0.5,3.1-1.1,5.2c-0.8,2.9-1.3,4.7-1.5,5.3c-0.4,1.9-1.2,3.6-2.4,5.2
				c-0.7,1-1.6,1.5-2.5,1.5c-0.8,0-1.5-0.6-1.9-1.6c-0.7-1.8-1.1-3.8-1.1-6.2c0-1.4,0.1-3.1,0.4-5.3c0,0.2,0-0.4,0-1.7
				c0-1.2,0.4-1.7,1.3-1.7c0.2,0,0.4,0.1,0.6,0.2c0.2,0.1,0.4,0.2,0.6,0.3c0,1,0,2.4-0.1,4.2c-0.1,2-0.1,3.4-0.1,4.3
				c0,0.9,0,1.8,0.1,2.5c0,0.4,0.2,1.1,0.5,2.2c0.8-0.9,1.4-2,1.8-3.5c0.1-0.5,0.4-1.8,0.9-4c0.4-1.6,0.8-2.9,1.2-3.9
				c0.1-0.3,0.2-0.8,0.3-1.5c0.1-0.7,0.2-1.2,0.3-1.5c0.2-0.4,0.6-0.7,1.1-0.7C58.5,28.4,59,28.6,59.2,29z"/>
			<path fill="#F5B003" d="M71.9,27.3c-0.3,2.5-0.5,5-0.8,7.5c-0.3,3-0.5,5.5-0.5,7.5c0,0.7,0,1.3,0.1,1.9c0,0.3-0.1,0.6-0.3,0.8
				c-0.2,0.2-0.5,0.3-0.8,0.3c-0.6,0-1.1-0.4-1.5-1.2c-1.2-2.3-2.7-6-4.5-11c0-0.1-0.1-0.2-0.1-0.2c-0.1,0-0.2,0.1-0.3,0.4
				c-0.3,2.7-0.5,5.5-0.5,8.4c0,1.4,0,2.9,0.1,4.3c0,0.5-0.1,0.9-0.5,1.1c-0.1,0.1-0.3,0.2-0.4,0.2c-0.1,0-0.3-0.1-0.5-0.2
				c-0.3-0.1-0.5-0.2-0.5-0.3c-0.2-0.1-0.4-0.3-0.4-0.7c0-0.3,0-0.6-0.1-0.9c-0.1-1-0.1-2.1-0.1-3.3c0-2,0.1-4.5,0.3-7.4
				c0.4-4.5,0.6-7,0.6-7.5c0-0.4,0.4-0.6,1-0.6c0.3,0,0.8,0.2,1.4,0.7c0.6,1.1,1.3,3,2.2,5.5c0.8,2.4,1.6,4.3,2.3,5.6
				c0.3-2.5,0.7-6.2,1.3-11.3c0.1-0.4,0.3-0.6,0.8-0.6c0.2,0,0.4,0,0.6,0.1c0.3,0.1,0.5,0.1,0.5,0.1C71.8,27,71.9,27.1,71.9,27.3z"
				/>
			<path fill="#F5B003" d="M76.6,30.1c0,0.5,0.1,1.1,0.1,1.7c0,1.3-0.1,3.2-0.4,5.7c-0.3,2.6-0.4,4.5-0.4,5.8c0,0.5,0,1,0,1.4
				c-0.2,0.5-0.5,0.8-1.1,0.8c-0.8,0-1.2-0.4-1.3-1c-0.1-0.7-0.1-1.3-0.1-2.1c0-1.3,0.2-3.2,0.5-5.7c0.3-2.5,0.5-4.4,0.5-5.7
				c0-0.5,0-1-0.1-1.4c0.2-0.4,0.5-0.5,1-0.5c0.4,0,0.7,0.1,1.1,0.3c0.1-0.1,0.1-0.1,0.2-0.1c0.1,0,0.1,0.1,0.1,0.3
				c0,0.2,0,0.4,0,0.4C76.5,30.1,76.5,30.1,76.6,30.1z"/>
			<path fill="#F5B003" d="M92.2,26.8c-0.2,0.7-0.5,1.1-1,1.2c-1.2,0.3-3.3,0.7-6.3,1.2c-0.4,4.6-0.6,8.5-0.6,11.6
				c0,1.2,0,2.3,0.1,3.5c0,0.4,0,0.6-0.1,0.8c-0.1,0.3-0.3,0.4-0.6,0.4c-0.5,0-1-0.2-1.3-0.7c-0.4-0.4-0.6-0.9-0.6-1.5
				c0-0.7-0.1-1.4-0.1-2.2c0-1.2,0.1-3.2,0.3-5.9c0.2-2.6,0.2-4.5,0.2-5.9c-0.5,0-1.2,0-2.1,0.1c-1,0.1-1.7,0.2-2.1,0.2
				c-0.9,0-1.7-0.2-2.2-0.7c-0.2-0.5-0.3-0.7-0.3-0.8c0-0.1,0.1-0.3,0.2-0.4c0.6-0.2,1.8-0.4,3.7-0.6c1.6-0.2,2.8-0.5,3.6-0.9
				c0.7,0.2,1.4,0.3,2.2,0.3s1.6-0.1,2.4-0.3c0.2,0,0.8-0.1,1.7-0.4c0.7-0.2,1.2-0.2,1.7-0.2c0.3,0,0.5,0.1,0.4,0.4
				C92,26.3,92.2,26.5,92.2,26.8z"/>
			<path fill="#F5B003" d="M97.6,27.7c-0.5,2.1-1.5,4.9-2.9,8.2c-1.6,3.9-2.7,6.7-3.2,8.1c-0.1,0.3-0.1,0.7-0.1,1.1c0,0.6,0,1,0,1.2
				c-0.1,0.7-0.4,1-1,1c-0.3,0-0.7-0.1-1-0.3s-0.5-0.5-0.5-0.8c0.1-1.4,0.4-2.9,1-4.7c0.6-1.5,1.2-3,1.7-4.5
				c-1.3-3.5-2.5-6.1-3.4-7.8c-0.1-0.1-0.1-0.2-0.1-0.3c0-0.2,0.1-0.4,0.3-0.6c0.2-0.2,0.5-0.3,0.7-0.3c0,0,0.4,0.1,1.1,0.3
				c0.5,0.7,1,1.6,1.5,2.7c0.4,1,0.8,1.9,1.3,2.9c0.4-1.1,0.7-2.2,1.1-3.3c0.4-1.3,0.9-2.4,1.4-3.2c0.1-0.3,0.4-0.4,0.8-0.4
				C96.8,27.2,97.3,27.3,97.6,27.7z"/>
			<path fill="#F5B003" d="M111.7,27.3c0,0.4-0.3,0.7-0.8,1c-0.1,0.1-0.3,0.1-0.5,0c-0.3-0.1-0.4-0.1-0.4-0.1
				c-0.1,0-0.2,0.1-0.3,0.2c-1,1-1.5,2.2-1.5,3.7c0,0.5,0.1,1,0.3,1.5c0.1,0.2,0.8,1.7,2.1,4.3c0.9,1.8,1.3,3.3,1.3,4.6
				c0,1-0.3,2-0.8,3c-0.2,0.3-0.6,0.7-1.3,1.2c-0.5,0.4-1,0.6-1.5,0.6c-0.2,0-0.3,0-0.5-0.1c-0.6-0.2-0.8-0.6-0.8-0.9
				c0-0.2,0.1-0.5,0.4-0.8c0.1-0.1,0.3-0.1,0.5-0.2c0.3,0,0.5-0.1,0.6-0.3c0.4-0.8,0.6-1.7,0.6-2.5c0-1.2-0.6-3-1.8-5.3
				c-1.2-2.3-1.8-4.1-1.8-5.5c0-1.1,0.2-2.2,0.7-3.1c0.5-1,1.2-1.8,2.2-2.2c0.4-0.2,0.8-0.3,1.3-0.3c0.8,0,1.4,0.2,1.8,0.6
				C111.6,26.9,111.7,27.1,111.7,27.3z"/>
			<path fill="#F5B003" d="M123.1,30.3c-0.7,0.3-1.7,0.6-3.1,1c-1.3,0.4-2.4,0.7-3.1,1c-0.2,0.5-0.3,1.6-0.4,3.2
				c0.3,0.1,0.6,0.2,1,0.2c0.3,0,0.7,0,1.3-0.1c0.6-0.1,1-0.1,1.3-0.1c0.5,0,1,0.1,1.3,0.3c0.3,0.4,0.4,0.6,0.4,0.7
				c0,0.1-0.1,0.2-0.2,0.3c0,0-0.2,0.1-0.4,0.4c-0.1,0.2-0.3,0.2-0.6,0.2c-0.4,0.1-1.1,0.1-2.2,0.2c-0.9,0-1.6,0.1-2.1,0.3
				c-0.4,1.4-0.5,2.5-0.5,3.3c0,0.5,0.1,1,0.2,1.3c0.9,0.6,2.4,0.9,4.6,0.8c0.1,0,0.3-0.1,0.5-0.2s0.3-0.2,0.4-0.2
				c0.5-0.1,0.9,0.3,1,1.2c0.1,0.3,0,0.6-0.2,0.8c-0.2,0.3-0.4,0.4-0.7,0.4c-2.3,0.1-4.2-0.1-5.9-0.5c-0.5-0.1-1-0.4-1.4-0.9
				c-0.4-0.4-0.7-1-0.7-1.5c-0.2-1.6-0.2-3.1,0-4.4c-0.5-0.4-0.8-0.7-0.7-1c0-0.2,0.2-0.3,0.4-0.5s0.4-0.3,0.5-0.4
				c0-0.1,0.1-1,0.2-2.7c-1-0.2-1.6-0.6-1.5-1.2c0-0.5,0.3-1,1-1.3c0.6-0.2,1.2-0.5,1.8-0.7c0.7-0.4,1.6-0.7,2.6-1
				c0.9-0.2,1.8-0.5,2.7-0.7c0.1,0,0.2,0,0.3,0c0.5,0,1.1,0.2,1.8,0.6c0,0.1,0.1,0.2,0.1,0.4c0.1,0.2,0.1,0.4,0.1,0.4
				C123.3,30.1,123.2,30.2,123.1,30.3z"/>
			<path fill="#F5B003" d="M131.8,41c0,0-1.1,0.8-3.3,2.3c-1.3,0.9-2.4,1.6-3.3,2c-0.1,0.1-0.2,0.1-0.3,0.1c-0.3,0-0.5-0.2-0.7-0.5
				c-0.3-0.4-0.5-0.7-0.5-0.7c0-1.6,0.1-3.9,0.3-6.9c0.3-3.1,0.4-5.4,0.4-6.8c0-1,0-1.9-0.1-2.7c0.2-0.2,0.5-0.4,0.9-0.4
				c0.7,0,1.1,0.3,1.2,0.8c0.1,1.5,0,3.8-0.2,6.9c-0.2,3.1-0.3,5.3-0.2,6.9c0.5-0.2,1.2-0.6,2-1.2c0.9-0.6,1.6-1.1,2-1.3
				c0.1,0,0.3,0,0.5-0.1s0.4-0.1,0.5-0.1c0.4,0,0.6,0.1,0.8,0.5C132,40.4,132,40.8,131.8,41z"/>
			<path fill="#F5B003" d="M140.6,41c0,0-1.1,0.8-3.3,2.3c-1.2,0.9-2.4,1.6-3.3,2c-0.1,0.1-0.2,0.1-0.3,0.1c-0.3,0-0.5-0.2-0.7-0.5
				c-0.3-0.4-0.5-0.7-0.5-0.7c0-1.6,0.1-3.9,0.3-6.9c0.3-3.1,0.4-5.4,0.4-6.8c0-1,0-1.9-0.1-2.7c0.2-0.2,0.5-0.4,0.9-0.4
				c0.7,0,1.1,0.3,1.2,0.8c0.1,1.5,0,3.8-0.2,6.9c-0.2,3.1-0.3,5.3-0.2,6.9c0.5-0.2,1.2-0.6,2-1.2c0.9-0.6,1.6-1.1,2-1.3
				c0.1,0,0.3,0,0.5-0.1s0.4-0.1,0.5-0.1c0.4,0,0.6,0.1,0.8,0.5C140.9,40.4,140.9,40.8,140.6,41z"/>
			<path fill="#F5B003" d="M144.6,30.1c0,0.5,0.1,1.1,0.1,1.7c0,1.3-0.1,3.2-0.4,5.7c-0.3,2.6-0.4,4.5-0.4,5.8c0,0.5,0,1,0,1.4
				c-0.2,0.5-0.5,0.8-1.1,0.8c-0.8,0-1.2-0.4-1.3-1c-0.1-0.7-0.1-1.3-0.1-2.1c0-1.3,0.2-3.2,0.5-5.7c0.3-2.5,0.5-4.4,0.5-5.7
				c0-0.5,0-1-0.1-1.4c0.2-0.4,0.5-0.5,1-0.5c0.4,0,0.7,0.1,1.1,0.3c0.1-0.1,0.1-0.1,0.2-0.1c0.1,0,0.1,0.1,0.1,0.3
				c0,0.2,0,0.4,0,0.4C144.6,30.1,144.6,30.1,144.6,30.1z"/>
			<path fill="#F5B003" d="M158.1,27.3c-0.3,2.5-0.5,5-0.8,7.5c-0.3,3-0.5,5.5-0.5,7.5c0,0.7,0,1.3,0.1,1.9c0,0.3-0.1,0.6-0.3,0.8
				c-0.2,0.2-0.5,0.3-0.8,0.3c-0.6,0-1.1-0.4-1.5-1.2c-1.2-2.3-2.7-6-4.5-11c0-0.1-0.1-0.2-0.1-0.2c-0.1,0-0.2,0.1-0.3,0.4
				c-0.3,2.7-0.5,5.5-0.5,8.4c0,1.4,0,2.9,0.1,4.3c0,0.5-0.1,0.9-0.5,1.1c-0.1,0.1-0.3,0.2-0.4,0.2c-0.1,0-0.3-0.1-0.5-0.2
				c-0.3-0.1-0.5-0.2-0.5-0.3c-0.2-0.1-0.4-0.3-0.4-0.7c0-0.3,0-0.6-0.1-0.9c-0.1-1-0.1-2.1-0.1-3.3c0-2,0.1-4.5,0.3-7.4
				c0.4-4.5,0.6-7,0.6-7.5c0-0.4,0.4-0.6,1-0.6c0.3,0,0.8,0.2,1.4,0.7c0.6,1.1,1.3,3,2.2,5.5c0.8,2.4,1.6,4.3,2.3,5.6
				c0.3-2.5,0.7-6.2,1.3-11.3c0.1-0.4,0.3-0.6,0.8-0.6c0.2,0,0.4,0,0.6,0.1c0.3,0.1,0.5,0.1,0.5,0.1C157.9,27,158,27.1,158.1,27.3z"
				/>
			<path fill="#F5B003" d="M169.6,37.3c-0.5,1.3-0.8,2.8-1,4.6c-0.1,1.6-0.2,3.2-0.3,4.8c0,0.5-0.3,0.7-0.9,0.7
				c-0.2,0-0.3,0-0.5-0.1c-0.8-0.3-1.2-1-1.2-1.9c0-0.3,0-0.7,0.1-1.2c0.1-0.5,0.1-0.9,0.1-1.2c0.1-0.5,0.2-1.4,0.3-2.4
				c-1.3,1.2-2.7,2.1-4.4,2.7c-0.2,0.1-0.4,0.1-0.7,0.1c-0.9,0-1.7-0.5-2.4-1.5c-0.4-0.5-0.6-1.2-0.6-2c0-0.7,0.2-1.5,0.5-2.5
				c1-3,2.6-6,4.7-8.9c1.1-1.4,2-2.2,2.9-2.2c0.7,0,1.2,0.3,1.3,0.8c0.1,0.5-0.1,0.8-0.5,1c-0.7,0.4-1,0.6-1,0.6
				c-1.6,1.7-3,4-4.3,6.7c-0.8,1.7-1.2,3.2-1.2,4.6c0,0.2,0,0.5,0,0.7c0,0,0.1,0.1,0.2,0.3c0.1,0.2,0.2,0.2,0.3,0.2
				c1.2-0.5,3.1-1.8,5.6-3.8c0.2-0.1,0.4-0.6,0.6-1.3c0.2-0.5,0.5-0.8,1-0.8c-0.1,0,0,0,0.4-0.1c0.2,0,0.4,0,0.4,0.1
				c0.4,0.5,0.5,1,0.5,1.3C169.7,36.9,169.7,37.1,169.6,37.3z"/>
			<path fill="#F5B003" d="M186.6,41c0,0-1.1,0.8-3.3,2.3c-1.2,0.9-2.4,1.6-3.3,2c-0.1,0.1-0.2,0.1-0.3,0.1c-0.3,0-0.5-0.2-0.7-0.5
				c-0.3-0.4-0.5-0.7-0.5-0.7c0-1.6,0.1-3.9,0.3-6.9c0.3-3.1,0.4-5.4,0.4-6.8c0-1,0-1.9-0.1-2.7c0.2-0.2,0.5-0.4,0.9-0.4
				c0.7,0,1.1,0.3,1.2,0.8c0.1,1.5,0,3.8-0.2,6.9c-0.2,3.1-0.3,5.3-0.2,6.9c0.5-0.2,1.2-0.6,2-1.2c0.9-0.6,1.6-1.1,2-1.3
				c0.1,0,0.3,0,0.5-0.1s0.4-0.1,0.5-0.1c0.4,0,0.6,0.1,0.8,0.5C186.8,40.4,186.8,40.8,186.6,41z"/>
			<path fill="#F5B003" d="M190.5,30.1c0,0.5,0.1,1.1,0.1,1.7c0,1.3-0.1,3.2-0.4,5.7c-0.3,2.6-0.4,4.5-0.4,5.8c0,0.5,0,1,0,1.4
				c-0.2,0.5-0.5,0.8-1.1,0.8c-0.8,0-1.2-0.4-1.3-1c-0.1-0.7-0.1-1.3-0.1-2.1c0-1.3,0.2-3.2,0.5-5.7c0.3-2.5,0.5-4.4,0.5-5.7
				c0-0.5,0-1-0.1-1.4c0.2-0.4,0.5-0.5,1-0.5c0.4,0,0.7,0.1,1.1,0.3c0.1-0.1,0.1-0.1,0.2-0.1c0.1,0,0.1,0.1,0.1,0.3
				c0,0.2,0,0.4,0,0.4C190.5,30.1,190.5,30.1,190.5,30.1z"/>
			<path fill="#F5B003" d="M198.1,27.3c0,0.4-0.3,0.7-0.8,1c-0.1,0.1-0.3,0.1-0.5,0c-0.3-0.1-0.4-0.1-0.4-0.1
				c-0.1,0-0.2,0.1-0.3,0.2c-1,1-1.5,2.2-1.5,3.7c0,0.5,0.1,1,0.3,1.5c0.1,0.2,0.8,1.7,2.1,4.3c0.9,1.8,1.3,3.3,1.3,4.6
				c0,1-0.3,2-0.8,3c-0.2,0.3-0.6,0.7-1.3,1.2c-0.5,0.4-1,0.6-1.5,0.6c-0.2,0-0.3,0-0.5-0.1c-0.6-0.2-0.8-0.6-0.8-0.9
				c0-0.2,0.1-0.5,0.4-0.8c0.1-0.1,0.3-0.1,0.5-0.2c0.3,0,0.5-0.1,0.6-0.3c0.4-0.8,0.6-1.7,0.6-2.5c0-1.2-0.6-3-1.8-5.3
				c-1.2-2.3-1.8-4.1-1.8-5.5c0-1.1,0.2-2.2,0.7-3.1c0.5-1,1.2-1.8,2.2-2.2c0.4-0.2,0.8-0.3,1.3-0.3c0.8,0,1.4,0.2,1.8,0.6
				C198,26.9,198.1,27.1,198.1,27.3z"/>
			<path fill="#F5B003" d="M214,26.8c-0.2,0.7-0.5,1.1-1,1.2c-1.2,0.3-3.3,0.7-6.3,1.2c-0.4,4.6-0.6,8.5-0.6,11.6
				c0,1.2,0,2.3,0.1,3.5c0,0.4,0,0.6-0.1,0.8c-0.1,0.3-0.3,0.4-0.6,0.4c-0.5,0-1-0.2-1.3-0.7c-0.4-0.4-0.6-0.9-0.6-1.5
				c0-0.7-0.1-1.4-0.1-2.2c0-1.2,0.1-3.2,0.3-5.9c0.2-2.6,0.2-4.5,0.2-5.9c-0.5,0-1.2,0-2.1,0.1c-1,0.1-1.7,0.2-2.1,0.2
				c-0.9,0-1.7-0.2-2.2-0.7c-0.2-0.5-0.3-0.7-0.3-0.8c0-0.1,0.1-0.3,0.2-0.4c0.6-0.2,1.8-0.4,3.7-0.6c1.6-0.2,2.8-0.5,3.6-0.9
				c0.7,0.2,1.4,0.3,2.2,0.3s1.6-0.1,2.4-0.3c0.2,0,0.8-0.1,1.7-0.4c0.7-0.2,1.2-0.2,1.7-0.2c0.3,0,0.5,0.1,0.4,0.4
				C213.7,26.3,214,26.5,214,26.8z"/>
			<path fill="#F5B003" d="M213.4,30.1c0,0.5,0.1,1.1,0.1,1.7c0,1.3-0.1,3.2-0.4,5.7c-0.3,2.6-0.4,4.5-0.4,5.8c0,0.5,0,1,0,1.4
				c-0.2,0.5-0.5,0.8-1.1,0.8c-0.8,0-1.2-0.4-1.3-1c-0.1-0.7-0.1-1.3-0.1-2.1c0-1.3,0.2-3.2,0.5-5.7c0.3-2.5,0.5-4.4,0.5-5.7
				c0-0.5,0-1-0.1-1.4c0.2-0.4,0.5-0.5,1-0.5c0.4,0,0.7,0.1,1.1,0.3c0.1-0.1,0.1-0.1,0.2-0.1c0.1,0,0.1,0.1,0.1,0.3
				c0,0.2,0,0.4,0,0.4C213.3,30.1,213.4,30.1,213.4,30.1z"/>
			<path fill="#F5B003" d="M226.9,27.3c-0.3,2.5-0.5,5-0.8,7.5c-0.3,3-0.5,5.5-0.5,7.5c0,0.7,0,1.3,0.1,1.9c0,0.3-0.1,0.6-0.3,0.8
				c-0.2,0.2-0.5,0.3-0.8,0.3c-0.6,0-1.1-0.4-1.5-1.2c-1.2-2.3-2.7-6-4.5-11c0-0.1-0.1-0.2-0.1-0.2c-0.1,0-0.2,0.1-0.3,0.4
				c-0.3,2.7-0.5,5.5-0.5,8.4c0,1.4,0,2.9,0.1,4.3c0,0.5-0.1,0.9-0.5,1.1c-0.1,0.1-0.3,0.2-0.4,0.2c-0.1,0-0.3-0.1-0.5-0.2
				c-0.3-0.1-0.5-0.2-0.5-0.3c-0.2-0.1-0.4-0.3-0.4-0.7c0-0.3,0-0.6-0.1-0.9c-0.1-1-0.1-2.1-0.1-3.3c0-2,0.1-4.5,0.3-7.4
				c0.4-4.5,0.6-7,0.6-7.5c0-0.4,0.4-0.6,1-0.6c0.3,0,0.8,0.2,1.4,0.7c0.6,1.1,1.3,3,2.2,5.5c0.8,2.4,1.6,4.3,2.3,5.6
				c0.3-2.5,0.7-6.2,1.3-11.3c0.1-0.4,0.3-0.6,0.8-0.6c0.2,0,0.4,0,0.6,0.1c0.3,0.1,0.5,0.1,0.5,0.1C226.7,27,226.8,27.1,226.9,27.3
				z"/>
			<path fill="#F5B003" d="M238.4,37.3c-0.5,1.3-0.8,2.8-1,4.6c-0.1,1.6-0.2,3.2-0.3,4.8c0,0.5-0.3,0.7-0.9,0.7
				c-0.2,0-0.3,0-0.5-0.1c-0.8-0.3-1.2-1-1.2-1.9c0-0.3,0-0.7,0.1-1.2c0.1-0.5,0.1-0.9,0.1-1.2c0.1-0.5,0.2-1.4,0.3-2.4
				c-1.3,1.2-2.7,2.1-4.4,2.7c-0.2,0.1-0.4,0.1-0.7,0.1c-0.9,0-1.7-0.5-2.4-1.5c-0.4-0.5-0.6-1.2-0.6-2c0-0.7,0.2-1.5,0.5-2.5
				c1-3,2.6-6,4.7-8.9c1.1-1.4,2-2.2,2.9-2.2c0.7,0,1.2,0.3,1.3,0.8c0.1,0.5-0.1,0.8-0.5,1c-0.7,0.4-1,0.6-1,0.6
				c-1.6,1.7-3,4-4.3,6.7c-0.8,1.7-1.2,3.2-1.2,4.6c0,0.2,0,0.5,0,0.7c0,0,0.1,0.1,0.2,0.3c0.1,0.2,0.2,0.2,0.3,0.2
				c1.2-0.5,3.1-1.8,5.6-3.8c0.2-0.1,0.4-0.6,0.6-1.3c0.2-0.5,0.5-0.8,1-0.8c-0.1,0,0,0,0.4-0.1c0.2,0,0.4,0,0.4,0.1
				c0.4,0.5,0.5,1,0.5,1.3C238.5,36.9,238.5,37.1,238.4,37.3z"/>
			<path fill="#F5B003" d="M246.3,27.3c0,0.4-0.3,0.7-0.8,1c-0.1,0.1-0.3,0.1-0.5,0c-0.3-0.1-0.4-0.1-0.4-0.1
				c-0.1,0-0.2,0.1-0.3,0.2c-1,1-1.5,2.2-1.5,3.7c0,0.5,0.1,1,0.3,1.5c0.1,0.2,0.8,1.7,2.1,4.3c0.9,1.8,1.3,3.3,1.3,4.6
				c0,1-0.3,2-0.8,3c-0.2,0.3-0.6,0.7-1.3,1.2c-0.5,0.4-1,0.6-1.5,0.6c-0.2,0-0.3,0-0.5-0.1c-0.6-0.2-0.8-0.6-0.8-0.9
				c0-0.2,0.1-0.5,0.4-0.8c0.1-0.1,0.3-0.1,0.5-0.2c0.3,0,0.5-0.1,0.6-0.3c0.4-0.8,0.6-1.7,0.6-2.5c0-1.2-0.6-3-1.8-5.3
				c-1.2-2.3-1.8-4.1-1.8-5.5c0-1.1,0.2-2.2,0.7-3.1c0.5-1,1.2-1.8,2.2-2.2c0.4-0.2,0.8-0.3,1.3-0.3c0.8,0,1.4,0.2,1.8,0.6
				C246.2,26.9,246.3,27.1,246.3,27.3z"/>
			<path fill="#F5B003" d="M252.6,41.3c-0.5,2.6-0.8,4-0.9,4.2c-0.4,1.6-0.8,2.9-1.3,4c-0.1,0.2-0.3,0.3-0.7,0.3
				c-0.3,0-0.7-0.1-1.1-0.3c-0.4-0.2-0.6-0.5-0.6-0.9c0-0.3,0.1-0.6,0.2-1c0.1-0.3,0.3-0.6,0.4-1c0.5-1.7,0.8-2.8,0.9-3.2
				c0.3-1.2,0.5-2.4,0.6-3.3c0-0.4,0.2-0.7,0.5-0.8c0.2-0.1,0.3-0.1,0.5-0.1c0.5,0,0.9,0.1,1.3,0.4
				C252.7,39.9,252.8,40.4,252.6,41.3z"/>
		</g>
	</g>
	<g>
		<g>
			<path fill="#796E65" d="M5,2.8C5,3,4.8,3.3,4.4,3.5C4.3,3.5,4.1,3.5,4,3.5C3.8,3.4,3.7,3.4,3.6,3.4c-0.1,0-0.2,0-0.3,0.1
				C2.5,4.2,2.1,5.1,2.1,6.2c0,0.4,0.1,0.8,0.2,1.1C2.4,7.4,3,8.5,4.1,10.4c0.7,1.3,1.1,2.4,1.1,3.3c0,0.7-0.2,1.5-0.6,2.1
				c-0.1,0.2-0.5,0.5-1,0.9c-0.4,0.3-0.8,0.4-1.2,0.4c-0.1,0-0.3,0-0.4-0.1c-0.5-0.2-0.7-0.4-0.7-0.7c0-0.2,0.1-0.4,0.3-0.6
				c0.1-0.1,0.2-0.1,0.4-0.1c0.2,0,0.4-0.1,0.5-0.2C2.8,14.9,3,14.3,3,13.7c0-0.9-0.5-2.1-1.5-3.8c-1-1.7-1.5-3-1.5-4
				C0,5,0.2,4.3,0.6,3.7c0.4-0.7,1-1.3,1.8-1.6c0.4-0.1,0.7-0.2,1-0.2C4,1.8,4.5,2,4.8,2.3C5,2.5,5,2.6,5,2.8"/>
			<path fill="#796E65" d="M3.9,0.2c0,0.1,0,0.2,0,0.3c0,0.2-0.1,0.6-0.2,1.1C3.7,2,3.6,2.4,3.6,2.6c0,0.1,0,0.2,0,0.3
				C3.6,3,3.4,3,3.2,3C2.9,3,2.7,3,2.6,2.8c0-0.1,0-0.2,0-0.4c0-0.2,0.1-0.6,0.2-1C2.9,0.9,3,0.6,3,0.4c0-0.1,0-0.2,0-0.3
				C3,0,3.2,0,3.4,0c0.1,0,0.3,0,0.4,0.1c0,0,0.1,0,0.1,0C3.9,0,3.9,0.1,3.9,0.2C3.9,0.1,3.9,0.2,3.9,0.2C3.9,0.2,3.9,0.2,3.9,0.2"
				/>
			<path fill="#796E65" d="M3.9,15.7c0,0.1,0,0.2,0,0.4c0,0.3-0.1,0.7-0.2,1.2c-0.1,0.5-0.2,1-0.2,1.2c0,0.1,0,0.2,0,0.3
				C3.6,19,3.4,19,3.2,19c-0.3,0-0.5-0.1-0.6-0.2c0-0.1,0-0.3,0-0.4c0-0.3,0.1-0.7,0.2-1.2C2.9,16.6,3,16.2,3,15.9
				c0-0.1,0-0.2,0-0.3c0.1-0.1,0.2-0.1,0.4-0.1c0.1,0,0.3,0,0.4,0.1c0,0,0.1,0,0.1,0c0,0,0,0,0,0.1C3.9,15.7,3.9,15.7,3.9,15.7
				C3.9,15.7,3.9,15.7,3.9,15.7"/>
		</g>
	</g>
</g>
</svg>
