<?xml version="1.0" encoding="utf-8"?>
<!-- Generator: Adobe Illustrator 18.1.1, SVG Export Plug-In . SVG Version: 6.00 Build 0)  -->
<!DOCTYPE svg PUBLIC "-//W3C//DTD SVG 1.1//EN" "http://www.w3.org/Graphics/SVG/1.1/DTD/svg11.dtd">
<svg version="1.1" id="Layer_1" xmlns="http://www.w3.org/2000/svg" xmlns:xlink="http://www.w3.org/1999/xlink" x="0px" y="0px"
	 viewBox="0 0 364 364" enable-background="new 0 0 364 364" xml:space="preserve">
<g id="Your_Icon_32_">
	<g>
		<g>
			<path fill="#BFB9B0" d="M300.8,129.4c0.2-0.2,0.1-0.4-0.2-0.4h-59.7c-0.3,0-0.6-0.3-0.6-0.6l0-117.9c0-0.3-0.3-0.6-0.6-0.6H118.9
				c-0.3,0-0.6,0.3-0.6,0.6v117.9c0,0.3-0.3,0.6-0.6,0.6H63.2c-0.3,0-0.4,0.2-0.2,0.4l119.5,118.7c0.2,0.2,0.6,0.2,0.8,0
				L300.8,129.4z"/>
		</g>
		<g>
			<path fill="#BFB9B0" d="M301.8,233.6c-0.3,0-0.6,0.3-0.6,0.6v70.5c0,0.3-0.3,0.6-0.6,0.6H63.3c-0.3,0-0.6-0.3-0.6-0.6v-70.5
				c0-0.3-0.3-0.6-0.6-0.6H3.7c-0.3,0-0.6,0.3-0.6,0.6v118.1c0,0.3,0.3,0.6,0.6,0.6h356.6c0.3,0,0.6-0.3,0.6-0.6V234.1
				c0-0.3-0.3-0.6-0.6-0.6H301.8z"/>
		</g>
	</g>
</g>
</svg>
