<?xml version="1.0" encoding="utf-8"?>
<!-- Generator: Adobe Illustrator 18.1.1, SVG Export Plug-In . SVG Version: 6.00 Build 0)  -->
<!DOCTYPE svg PUBLIC "-//W3C//DTD SVG 1.1//EN" "http://www.w3.org/Graphics/SVG/1.1/DTD/svg11.dtd">
<svg version="1.1" id="Layer_1" xmlns="http://www.w3.org/2000/svg" xmlns:xlink="http://www.w3.org/1999/xlink" x="0px" y="0px"
	 viewBox="0 0 364 364" enable-background="new 0 0 364 364" xml:space="preserve">
<path fill="#BFB9B0" d="M300.5,232.4c-21.7,0-40.9,11.1-52.1,27.9l-124.1-60.2c1.8-5.8,2.8-12,2.8-18.4c0-0.8-0.1-1.6-0.1-2.4
	l128.5-68.5c11.4,11.8,27.3,19.2,45,19.2c34.5,0,62.5-28,62.5-62.5C363,33,335,5,300.5,5C266,5,238,33,238,67.5
	c0,3.6,0.4,7.1,0.9,10.5l-124.3,66.3c-11.4-15.2-29.5-25.1-50-25.1C30,119.2,2,147.2,2,181.7s28,62.5,62.5,62.5
	c14.7,0,28.1-5.1,38.8-13.5L238,296c0.6,34,28.3,61.4,62.5,61.4c34.5,0,62.5-28,62.5-62.5C363,260.4,335,232.4,300.5,232.4z"/>
</svg>
