<!-- Generator: Adobe Illustrator 18.1.1, SVG Export Plug-In  -->
<svg version="1.1"
	 xmlns="http://www.w3.org/2000/svg" xmlns:xlink="http://www.w3.org/1999/xlink" xmlns:a="http://ns.adobe.com/AdobeSVGViewerExtensions/3.0/"
	 x="0px" y="0px" width="191.9px" height="68.9px" viewBox="0 0 191.9 68.9" enable-background="new 0 0 191.9 68.9"
	 xml:space="preserve">
<defs>
</defs>
<path fill="#F5B003" d="M4,43.3c0,1.7,0,4.1-0.2,7.3c-0.2,3.4-0.3,5.8-0.3,7.3c0,1,0,1.9,0.1,2.8c0,0.6-0.2,0.9-0.7,0.9
	c-1.5,0-2.3-0.3-2.5-1c-0.3-1.4-0.5-3-0.5-4.8c0-1.2,0.1-3.1,0.3-5.7c0.2-2.5,0.3-4.4,0.3-5.6c0-1.6-0.1-3-0.4-4.3
	c0-0.2,0-0.4,0.2-0.6c0.2-0.2,0.3-0.4,0.5-0.4c1-0.3,1.7-0.2,2.2,0.5C3.7,40.4,4,41.6,4,43.3z"/>
<path fill="#F5B003" d="M17.5,48.3c0.1,0.5,0.1,1,0.1,1.5c0,2.7-0.9,5.2-2.8,7.3c-1.5,1.7-3,2.6-4.5,2.5C9.1,59.5,8.2,59,7.4,58
	c-1.1-1.4-1.6-3.2-1.6-5.4c0-2.1,0.5-4.3,1.4-6.6c0.6-1.5,1.2-2.5,1.9-3.1c1-0.8,2.2-1.2,3.5-1.2c0.9,0,1.7,0.3,2.3,0.8
	c0.8,0.7,1.3,1.3,1.7,2c0.3,0.6,0.6,1.2,0.7,1.9C17.3,47,17.4,47.7,17.5,48.3z M14.4,47.9c-0.1-0.6-0.3-1.2-0.4-1.8
	c-0.2-0.7-0.5-1.1-1-1.4c-0.3-0.2-0.6-0.3-0.8-0.3c-0.2,0-0.4,0.1-0.7,0.4c-1.9,1.9-2.8,4.4-2.8,7.3c0,1.7,0.4,3.2,1.2,4.5
	c0.1,0.2,0.3,0.3,0.4,0.3c0.2,0,0.6-0.3,1.3-1c1.9-2,2.8-4.1,2.8-6.2C14.7,49.2,14.6,48.5,14.4,47.9z"/>
<path fill="#F5B003" d="M30.8,40.4C30,41.1,28.8,41.6,27,42c-2,0.5-3.3,0.9-4,1.3c-0.9,2.3-1.5,4.3-1.6,5.8c3.6,1.1,5.6,2.7,6,4.9
	c0.2,1.1,0.3,2.2,0.3,3.2c0,4.4-1.3,8-3.9,10.9c-0.4,0.5-0.9,0.7-1.3,0.7c-0.2,0-0.4-0.1-0.5-0.2c-0.3-0.2-0.7-0.3-1-0.5
	c-0.4-0.2-0.6-0.6-0.7-1c-0.1-0.6,0.1-1.1,0.7-1.3c0.8-0.4,1.3-0.8,1.6-1.3c1.4-2.3,2.2-4.7,2.2-7.4c0-1.5-0.3-2.9-0.9-4
	c-0.3-0.6-0.9-0.9-1.8-1C20.7,52.1,20,52,19.8,52c-1.1-0.4-1.6-0.9-1.5-1.4c0.1-2.7,1.1-6.6,3.1-11.5c0.1-0.4,0.5-0.5,1.1-0.5
	c0.8,0,1.2,0.3,1.4,0.8c0.2,0.1,0.5,0.2,0.8,0.2c0.4,0,1.1-0.2,2.1-0.5c1-0.3,1.7-0.5,2.2-0.5c0.6,0,1.2,0.2,1.6,0.6
	C30.8,39.5,30.9,40,30.8,40.4z"/>
<path fill="#F5B003" d="M37.1,55.7c-0.7,3.4-1.1,5.3-1.2,5.5c-0.5,2.1-1.1,3.8-1.8,5.3C34,66.8,33.7,67,33.3,67s-0.9-0.1-1.4-0.4
	c-0.5-0.2-0.8-0.6-0.8-1.2c0-0.3,0.1-0.8,0.3-1.4c0.2-0.4,0.3-0.8,0.5-1.2c0.6-2.3,1-3.7,1.2-4.2c0.4-1.6,0.6-3.1,0.8-4.3
	c0-0.6,0.3-1,0.7-1.1c0.2-0.1,0.5-0.1,0.7-0.1c0.6,0,1.2,0.2,1.7,0.6C37.3,53.9,37.4,54.6,37.1,55.7z"/>
<path fill="#F5B003" d="M53,52.4c0,0.1,0.1,0.2,0.1,0.4c0,0.3-0.4,0.8-1.2,1.3c-0.5,0.3-1.1,0.5-1.8,0.6c-0.9,0.1-1.4,0.3-1.7,0.4
	c-0.2,0.8-0.4,2.7-0.7,5.6c-0.2,2.3-0.6,4.1-1.1,5.3c-0.7,0.3-1.4,0.2-1.9-0.4c-0.2-0.8-0.3-1.7-0.3-2.7c0-1,0.1-2.3,0.3-3.8
	c0.2-1.3,0.4-2.5,0.6-3.8c-0.2,0-0.4,0-0.6,0c-0.5,0-1.1,0.1-1.8,0.3c-1,0.3-1.6,0.5-1.7,0.5c-0.1-0.2-0.4-0.5-0.9-0.8
	c-0.5-0.4-0.8-0.7-0.8-0.9c0-0.2,0.1-0.4,0.4-0.6c0.7-0.5,1.6-0.9,2.9-1.1c1.5-0.2,2.5-0.4,2.9-0.5c0.1-0.8,0.3-2.4,0.5-4.6
	c0.2-2,0.4-3.5,0.7-4.5c-0.3,0-0.6-0.1-0.9-0.1c-0.6,0-1.4,0.1-2.3,0.4c-0.8,0.3-1.6,0.6-2.3,0.8c0-0.1-0.4-0.4-1-0.9
	c-0.4-0.3-0.7-0.7-0.7-1c0-0.1,0-0.3,0.1-0.5c0.7-0.5,1.6-0.8,2.8-1.1c1.7-0.4,2.7-0.6,2.9-0.6c0.2,0,0.7-0.2,1.6-0.4
	c0.7-0.2,1.3-0.3,1.7-0.3c0.7,0,1.2,0.3,1.5,0.8c-0.1,1-0.4,3-0.9,5.9c-0.5,2.5-0.7,4.5-0.6,6c0.3,0,0.8,0,1.4-0.2
	c0.7-0.2,1.1-0.3,1.4-0.3C52.2,51.5,52.7,51.8,53,52.4z"/>
<path fill="#F5B003" d="M66.4,52.4c0,0.1,0.1,0.2,0.1,0.4c0,0.3-0.4,0.8-1.2,1.3c-0.5,0.3-1.1,0.5-1.8,0.6c-0.9,0.1-1.4,0.3-1.7,0.4
	c-0.2,0.8-0.4,2.7-0.7,5.6c-0.2,2.3-0.6,4.1-1.1,5.3c-0.7,0.3-1.4,0.2-1.9-0.4c-0.2-0.8-0.3-1.7-0.3-2.7c0-1,0.1-2.3,0.3-3.8
	c0.2-1.3,0.4-2.5,0.6-3.8c-0.2,0-0.4,0-0.6,0c-0.5,0-1.1,0.1-1.8,0.3c-1,0.3-1.6,0.5-1.7,0.5c-0.1-0.2-0.4-0.5-0.9-0.8
	c-0.5-0.4-0.8-0.7-0.8-0.9c0-0.2,0.1-0.4,0.4-0.6c0.7-0.5,1.6-0.9,2.9-1.1c1.5-0.2,2.5-0.4,2.9-0.5c0.1-0.8,0.3-2.4,0.5-4.6
	c0.2-2,0.4-3.5,0.7-4.5c-0.3,0-0.6-0.1-0.9-0.1c-0.6,0-1.4,0.1-2.3,0.4c-0.8,0.3-1.6,0.6-2.3,0.8c0-0.1-0.4-0.4-1-0.9
	c-0.4-0.3-0.7-0.7-0.7-1c0-0.1,0-0.3,0.1-0.5c0.7-0.5,1.6-0.8,2.8-1.1c1.7-0.4,2.7-0.6,2.9-0.6c0.2,0,0.7-0.2,1.6-0.4
	c0.7-0.2,1.3-0.3,1.7-0.3c0.7,0,1.2,0.3,1.5,0.8c-0.1,1-0.4,3-0.9,5.9c-0.5,2.5-0.7,4.5-0.6,6c0.3,0,0.8,0,1.4-0.2s1.1-0.3,1.4-0.3
	C65.7,51.5,66.1,51.8,66.4,52.4z"/>
<path fill="#F5B003" d="M79.9,52.4c0,0.1,0.1,0.2,0.1,0.4c0,0.3-0.4,0.8-1.2,1.3c-0.5,0.3-1.1,0.5-1.8,0.6c-0.9,0.1-1.4,0.3-1.7,0.4
	c-0.2,0.8-0.4,2.7-0.7,5.6c-0.2,2.3-0.6,4.1-1.1,5.3c-0.7,0.3-1.4,0.2-1.9-0.4c-0.2-0.8-0.3-1.7-0.3-2.7c0-1,0.1-2.3,0.3-3.8
	c0.2-1.3,0.4-2.5,0.6-3.8c-0.2,0-0.4,0-0.6,0c-0.5,0-1.1,0.1-1.8,0.3c-1,0.3-1.6,0.5-1.7,0.5c-0.1-0.2-0.4-0.5-0.9-0.8
	c-0.5-0.4-0.8-0.7-0.8-0.9c0-0.2,0.1-0.4,0.4-0.6c0.7-0.5,1.6-0.9,2.9-1.1c1.5-0.2,2.5-0.4,2.9-0.5c0.1-0.8,0.3-2.4,0.5-4.6
	c0.2-2,0.4-3.5,0.7-4.5c-0.3,0-0.6-0.1-0.9-0.1c-0.6,0-1.4,0.1-2.3,0.4c-0.8,0.3-1.6,0.6-2.3,0.8c0-0.1-0.4-0.4-1-0.9
	c-0.4-0.3-0.7-0.7-0.7-1c0-0.1,0-0.3,0.1-0.5c0.7-0.5,1.6-0.8,2.8-1.1c1.7-0.4,2.7-0.6,2.9-0.6c0.2,0,0.7-0.2,1.6-0.4
	c0.7-0.2,1.3-0.3,1.7-0.3c0.7,0,1.2,0.3,1.5,0.8c-0.1,1-0.4,3-0.9,5.9c-0.5,2.5-0.7,4.5-0.6,6c0.3,0,0.8,0,1.4-0.2s1.1-0.3,1.4-0.3
	C79.1,51.5,79.6,51.8,79.9,52.4z"/>
<path fill="#F5B003" d="M96.1,45.4c-0.1,1.2-0.5,2.8-1,4.9c-0.8,2.7-1.2,4.4-1.4,4.9c-0.4,1.8-1.1,3.3-2.2,4.8
	c-0.7,0.9-1.5,1.4-2.3,1.4c-0.8,0-1.4-0.5-1.7-1.5c-0.7-1.6-1-3.5-1-5.7c0-1.3,0.1-2.9,0.4-4.9c0,0.2,0-0.4,0-1.6
	c0-1.1,0.4-1.6,1.2-1.6c0.2,0,0.4,0,0.6,0.1c0.2,0.1,0.4,0.2,0.6,0.3c0,0.9,0,2.2-0.1,3.9c-0.1,1.8-0.1,3.2-0.1,4
	c0,0.9,0,1.7,0.1,2.4c0,0.4,0.2,1.1,0.5,2.1c0.7-0.8,1.3-1.9,1.7-3.3c0.1-0.5,0.4-1.7,0.8-3.7c0.3-1.5,0.7-2.7,1.1-3.6
	c0.1-0.2,0.2-0.7,0.3-1.4c0.1-0.7,0.2-1.1,0.3-1.4c0.2-0.4,0.5-0.6,1-0.6C95.4,44.9,95.8,45.1,96.1,45.4z"/>
<path fill="#F5B003" d="M107.9,43.9c-0.2,2.3-0.5,4.7-0.7,7c-0.3,2.8-0.4,5.1-0.4,6.9c0,0.6,0,1.2,0.1,1.8c0,0.3-0.1,0.5-0.3,0.7
	c-0.2,0.2-0.5,0.3-0.7,0.3c-0.5,0-1-0.4-1.4-1.1c-1.1-2.2-2.5-5.6-4.1-10.2c0-0.1-0.1-0.2-0.1-0.2c-0.1,0-0.2,0.1-0.2,0.4
	c-0.3,2.5-0.4,5.1-0.4,7.8c0,1.3,0,2.7,0.1,4c0,0.5-0.1,0.8-0.4,1c-0.1,0.1-0.3,0.2-0.4,0.2c-0.1,0-0.3-0.1-0.5-0.2
	c-0.3-0.1-0.4-0.2-0.5-0.2c-0.2-0.1-0.4-0.3-0.4-0.6c0-0.3,0-0.6-0.1-0.9c-0.1-1-0.1-2-0.1-3c0-1.8,0.1-4.1,0.3-6.9
	c0.3-4.2,0.5-6.5,0.5-7c0-0.4,0.3-0.6,1-0.6c0.3,0,0.7,0.2,1.3,0.6c0.6,1.1,1.2,2.8,2.1,5.1c0.8,2.3,1.5,4,2.1,5.2
	c0.3-2.3,0.7-5.8,1.2-10.5c0.1-0.3,0.3-0.5,0.8-0.5c0.2,0,0.3,0,0.5,0.1c0.3,0.1,0.4,0.1,0.5,0.1C107.7,43.6,107.8,43.7,107.9,43.9z
	"/>
<path fill="#F5B003" d="M112.1,46.5c0,0.5,0.1,1,0.1,1.6c0,1.2-0.1,3-0.4,5.3c-0.2,2.4-0.4,4.2-0.4,5.4c0,0.5,0,0.9,0,1.3
	c-0.2,0.5-0.5,0.7-1,0.7c-0.7,0-1.2-0.4-1.2-1s-0.1-1.2-0.1-1.9c0-1.2,0.1-2.9,0.4-5.3c0.3-2.3,0.4-4.1,0.4-5.3c0-0.5,0-0.9-0.1-1.3
	c0.2-0.3,0.5-0.5,0.9-0.5c0.3,0,0.7,0.1,1,0.3c0.1-0.1,0.1-0.1,0.2-0.1c0.1,0,0.1,0.1,0.1,0.3c0,0.2,0,0.3,0,0.4
	C112.1,46.4,112.1,46.4,112.1,46.5z"/>
<path fill="#F5B003" d="M124,61.8c0.1,0.1,0.1,0.2,0.1,0.3c0,0.2-0.1,0.4-0.3,0.6c-0.2,0.2-0.5,0.2-0.7,0.2c-0.3,0-0.6-0.2-0.9-0.5
	c-0.2-0.3-0.5-0.5-0.7-0.8c-0.4-0.4-0.8-0.9-1.2-1.5c-0.3-0.5-0.7-1.1-1-1.6c-0.4,0.3-0.8,0.6-1.2,0.9c-0.5,0.3-1,0.5-1.4,0.5
	c-0.6,0-1.1-0.2-1.7-0.6c-0.6-0.4-1-0.9-1.2-1.4c-0.4-0.9-0.6-1.9-0.6-3c0-1.7,0.5-3.9,1.5-6.5c0.3-0.7,0.5-1.2,0.8-1.6
	c0.4-0.5,0.9-0.9,1.5-1c0.2,0,0.5-0.2,1-0.4c0.5-0.2,0.8-0.3,1-0.3c0.2,0,0.4,0,0.5,0.1c0.2,0.1,0.6,0.3,1,0.7
	c0.6,0.8,1,1.8,1.2,3.2c0.1,0.8,0.1,2,0.1,3.5c0,0.5-0.2,1.2-0.7,2c-0.4,0.9-0.6,1.5-0.6,2c0,0.8,0.5,1.6,1.4,2.7
	C123.2,60.6,123.8,61.4,124,61.8z M119.4,53.9c0.4-0.9,0.6-1.9,0.6-3.1c0-1.3-0.2-2.6-0.7-3.7c-0.2-0.1-0.4,0-0.8,0.2
	c-0.4,0.2-0.8,0.4-1.2,0.6c-0.6,0.3-1.1,1-1.3,2c-0.1,0.9-0.3,1.7-0.4,2.6c-0.2,1-0.3,1.9-0.3,2.7c0,1.2,0.3,2.1,0.8,2.9
	c0.1,0.1,0.1,0.1,0.3,0.1c0.3,0,0.5-0.2,0.7-0.5c0,0,0.2-0.3,0.6-0.7c0.3-0.3,0.4-0.5,0.4-0.8c0-0.2-0.1-0.4-0.2-0.5
	c-0.6-1.2-0.9-1.8-0.9-1.8c-0.3-0.7-0.4-1.4-0.4-2c0-0.4,0.3-0.6,0.8-0.6c0.5,0,0.9,0.1,1.2,0.5c0.2,0.2,0.3,0.5,0.5,1.1
	C119.2,53.3,119.3,53.7,119.4,53.9z"/>
<path fill="#F5B003" d="M133.3,45.4c-0.1,1.2-0.5,2.8-1,4.9c-0.8,2.7-1.2,4.4-1.4,4.9c-0.4,1.8-1.1,3.3-2.2,4.8
	c-0.7,0.9-1.5,1.4-2.3,1.4c-0.8,0-1.4-0.5-1.7-1.5c-0.7-1.6-1-3.5-1-5.7c0-1.3,0.1-2.9,0.4-4.9c0,0.2,0-0.4,0-1.6
	c0-1.1,0.4-1.6,1.2-1.6c0.2,0,0.4,0,0.6,0.1c0.2,0.1,0.4,0.2,0.6,0.3c0,0.9,0,2.2-0.1,3.9c-0.1,1.8-0.1,3.2-0.1,4
	c0,0.9,0,1.7,0.1,2.4c0,0.4,0.2,1.1,0.5,2.1c0.7-0.8,1.3-1.9,1.7-3.3c0.1-0.5,0.4-1.7,0.8-3.7c0.3-1.5,0.7-2.7,1.1-3.6
	c0.1-0.2,0.2-0.7,0.3-1.4c0.1-0.7,0.2-1.1,0.3-1.4c0.2-0.4,0.5-0.6,1-0.6C132.6,44.9,133,45.1,133.3,45.4z"/>
<path fill="#F5B003" d="M143,46.6c-0.6,0.3-1.6,0.6-2.8,0.9c-1.2,0.3-2.2,0.6-2.8,0.9c-0.2,0.5-0.3,1.5-0.3,3c0.3,0.1,0.6,0.2,1,0.2
	c0.3,0,0.7,0,1.2-0.1c0.6-0.1,1-0.1,1.2-0.1c0.5,0,0.9,0.1,1.2,0.3c0.2,0.3,0.4,0.6,0.4,0.7c0,0.1-0.1,0.2-0.2,0.3
	c0,0-0.2,0.1-0.4,0.4c-0.1,0.2-0.3,0.2-0.5,0.2c-0.4,0.1-1,0.1-2,0.2c-0.8,0-1.5,0.1-2,0.3c-0.3,1.3-0.5,2.3-0.5,3
	c0,0.5,0.1,0.9,0.2,1.2c0.8,0.6,2.2,0.8,4.2,0.7c0.1,0,0.3-0.1,0.4-0.2c0.2-0.1,0.3-0.2,0.4-0.2c0.5-0.1,0.8,0.3,1,1.1
	c0.1,0.3,0,0.5-0.1,0.8c-0.1,0.2-0.4,0.4-0.6,0.4c-2.1,0.1-3.9-0.1-5.5-0.5c-0.5-0.1-0.9-0.4-1.3-0.8c-0.4-0.4-0.6-0.9-0.7-1.4
	c-0.2-1.5-0.2-2.9,0-4.1c-0.5-0.3-0.7-0.6-0.6-1c0-0.2,0.2-0.3,0.4-0.4c0.3-0.1,0.4-0.3,0.4-0.4c0-0.1,0.1-1,0.2-2.5
	c-1-0.2-1.4-0.6-1.4-1.1c0-0.5,0.3-0.9,0.9-1.2c0.6-0.2,1.1-0.5,1.7-0.7c0.6-0.3,1.4-0.6,2.4-0.9c0.8-0.2,1.7-0.4,2.5-0.7
	c0.1,0,0.2,0,0.3,0c0.5,0,1,0.2,1.6,0.5c0,0.1,0.1,0.2,0.1,0.4c0.1,0.2,0.1,0.3,0.1,0.4C143.2,46.4,143.1,46.5,143,46.6z"/>
<path fill="#F5B003" d="M159.4,45.4c-0.1,1.2-0.5,2.8-1,4.9c-0.8,2.7-1.2,4.4-1.4,4.9c-0.4,1.8-1.1,3.3-2.2,4.8
	c-0.7,0.9-1.5,1.4-2.3,1.4c-0.8,0-1.4-0.5-1.7-1.5c-0.7-1.6-1-3.5-1-5.7c0-1.3,0.1-2.9,0.4-4.9c0,0.2,0-0.4,0-1.6
	c0-1.1,0.4-1.6,1.2-1.6c0.2,0,0.4,0,0.6,0.1c0.2,0.1,0.4,0.2,0.6,0.3c0,0.9,0,2.2-0.1,3.9c-0.1,1.8-0.1,3.2-0.1,4
	c0,0.9,0,1.7,0.1,2.4c0,0.4,0.2,1.1,0.5,2.1c0.7-0.8,1.3-1.9,1.7-3.3c0.1-0.5,0.4-1.7,0.8-3.7c0.3-1.5,0.7-2.7,1.1-3.6
	c0.1-0.2,0.2-0.7,0.3-1.4c0.1-0.7,0.2-1.1,0.3-1.4c0.2-0.4,0.5-0.6,1-0.6C158.7,44.9,159.2,45.1,159.4,45.4z"/>
<path fill="#F5B003" d="M165.7,43.9c0,0.3-0.3,0.7-0.8,0.9c-0.1,0.1-0.3,0.1-0.4,0c-0.2-0.1-0.4-0.1-0.4-0.1c-0.1,0-0.2,0.1-0.3,0.2
	c-0.9,0.9-1.4,2.1-1.4,3.4c0,0.5,0.1,1,0.2,1.4c0.1,0.2,0.7,1.5,2,4c0.8,1.7,1.2,3.1,1.2,4.2c0,1-0.2,1.9-0.7,2.8
	c-0.2,0.3-0.5,0.7-1.2,1.1c-0.5,0.4-1,0.5-1.4,0.5c-0.2,0-0.3,0-0.4-0.1c-0.5-0.2-0.8-0.5-0.8-0.9c0-0.2,0.1-0.5,0.4-0.8
	c0.1-0.1,0.2-0.1,0.5-0.2c0.3,0,0.4-0.1,0.5-0.3c0.4-0.8,0.5-1.5,0.5-2.3c0-1.1-0.6-2.8-1.7-4.9c-1.1-2.1-1.7-3.9-1.7-5.1
	c0-1.1,0.2-2,0.6-2.8c0.5-1,1.1-1.6,2-2.1c0.4-0.2,0.8-0.3,1.2-0.3c0.7,0,1.3,0.2,1.6,0.6C165.6,43.5,165.7,43.7,165.7,43.9z"/>
<path fill="#F5B003" d="M176.3,46.6c-0.6,0.3-1.6,0.6-2.8,0.9c-1.2,0.3-2.2,0.6-2.8,0.9c-0.2,0.5-0.3,1.5-0.3,3
	c0.3,0.1,0.6,0.2,1,0.2c0.3,0,0.7,0,1.2-0.1c0.6-0.1,1-0.1,1.2-0.1c0.5,0,0.9,0.1,1.2,0.3c0.2,0.3,0.4,0.6,0.4,0.7
	c0,0.1-0.1,0.2-0.2,0.3c0,0-0.2,0.1-0.4,0.4c-0.1,0.2-0.3,0.2-0.5,0.2c-0.4,0.1-1,0.1-2,0.2c-0.8,0-1.5,0.1-2,0.3
	c-0.3,1.3-0.5,2.3-0.5,3c0,0.5,0.1,0.9,0.2,1.2c0.8,0.6,2.2,0.8,4.2,0.7c0.1,0,0.3-0.1,0.4-0.2c0.2-0.1,0.3-0.2,0.4-0.2
	c0.5-0.1,0.8,0.3,1,1.1c0.1,0.3,0,0.5-0.1,0.8c-0.1,0.2-0.4,0.4-0.6,0.4c-2.1,0.1-3.9-0.1-5.5-0.5c-0.5-0.1-0.9-0.4-1.3-0.8
	c-0.4-0.4-0.6-0.9-0.7-1.4c-0.2-1.5-0.2-2.9,0-4.1c-0.5-0.3-0.7-0.6-0.6-1c0-0.2,0.2-0.3,0.4-0.4c0.3-0.1,0.4-0.3,0.4-0.4
	c0-0.1,0.1-1,0.2-2.5c-1-0.2-1.4-0.6-1.4-1.1c0-0.5,0.3-0.9,0.9-1.2c0.6-0.2,1.1-0.5,1.7-0.7c0.6-0.3,1.4-0.6,2.4-0.9
	c0.8-0.2,1.7-0.4,2.5-0.7c0.1,0,0.2,0,0.3,0c0.5,0,1,0.2,1.6,0.5c0,0.1,0.1,0.2,0.1,0.4c0.1,0.2,0.1,0.3,0.1,0.4
	C176.5,46.4,176.4,46.5,176.3,46.6z"/>
<path fill="#F5B003" d="M187.5,59.8c0.1,0.1,0.1,0.1,0.1,0.2c0,0.4-0.4,0.7-1.2,0.9c-0.9-0.7-2.1-1.8-3.4-3.3
	c-1.5-1.6-2.7-2.8-3.4-3.4c-0.1,0.5-0.1,1.6-0.3,3.5c-0.1,1.4-0.2,2.6-0.5,3.4c0,0-0.1,0-0.3,0.1c-0.2,0.1-0.3,0.1-0.5,0.1
	c-0.8-0.2-1.1-0.7-1.1-1.6c0-0.3,0-0.6,0.1-1c0.1-0.5,0.1-0.8,0.1-0.9c0.1-1,0.1-2.2,0.1-3.6v-2.8c0-2.4,0.1-4.3,0.4-6
	c0.2-1.1,1.2-1.6,3-1.5c0.9,0,1.8,0.5,2.4,1.4c0.6,0.8,1,1.7,1,2.7c0,0.8-0.3,1.6-0.9,2.4c-0.5,0.7-1.2,1.3-1.9,1.7
	c-0.3,0.2-0.5,0.4-0.5,0.6c0,0.2,0.2,0.5,0.5,0.8c0.3,0.2,0.6,0.5,0.8,0.7c0,0,1,0.9,2.9,2.6C186.2,58,187,59,187.5,59.8z M182,48.1
	c0.1-0.3,0.1-0.6,0.1-0.8c-0.1-0.4-0.2-0.7-0.5-1c-0.3-0.3-0.7-0.4-1.2-0.4c-0.4,0-0.7,0.1-0.8,0.4c-0.1,0.4-0.1,0.9-0.1,1.5
	c0,0.2,0,0.8,0.1,1.7c0,0.7,0,1.3,0,1.7C181,50.1,181.8,49.1,182,48.1z"/>
<path fill="#F5B003" d="M191.7,43.9c0,0.3-0.3,0.7-0.8,0.9c-0.1,0.1-0.3,0.1-0.4,0c-0.2-0.1-0.4-0.1-0.4-0.1c-0.1,0-0.2,0.1-0.3,0.2
	c-0.9,0.9-1.4,2.1-1.4,3.4c0,0.5,0.1,1,0.2,1.4c0.1,0.2,0.7,1.5,2,4c0.8,1.7,1.2,3.1,1.2,4.2c0,1-0.2,1.9-0.7,2.8
	c-0.2,0.3-0.5,0.7-1.2,1.1c-0.5,0.4-1,0.5-1.4,0.5c-0.2,0-0.3,0-0.4-0.1c-0.5-0.2-0.8-0.5-0.8-0.9c0-0.2,0.1-0.5,0.4-0.8
	c0.1-0.1,0.2-0.1,0.5-0.2c0.3,0,0.4-0.1,0.5-0.3c0.4-0.8,0.5-1.5,0.5-2.3c0-1.1-0.6-2.8-1.7-4.9c-1.1-2.1-1.7-3.9-1.7-5.1
	c0-1.1,0.2-2,0.6-2.8c0.5-1,1.1-1.6,2-2.1c0.4-0.2,0.8-0.3,1.2-0.3c0.7,0,1.3,0.2,1.6,0.6C191.6,43.5,191.7,43.7,191.7,43.9z"/>
<g>
	<path fill="#F5B003" d="M90.2,0c-2.7,0-4.9,2.2-4.9,4.9c0,2.7,2.2,4.9,4.9,4.9c2.7,0,4.9-2.2,4.9-4.9C95.1,2.2,92.9,0,90.2,0z"/>
	<path fill="#F5B003" d="M92.9,20.1c0-2.8,0.8-5.2,3.2-6.4c-1.1-1.5-3-2.5-5.9-2.5c-5.6,0-7.3,3.3-7.3,7.3l0,10.2c0,0,0,0.3,0.2,0.3
		h9.8L92.9,20.1z"/>
	<path fill="#F5B003" d="M100.8,2.2C98.2,2.2,96,4.3,96,7c0,2.7,2.2,4.9,4.9,4.9c2.7,0,4.9-2.2,4.9-4.9
		C105.7,4.3,103.5,2.2,100.8,2.2z"/>
	<path fill="#F5B003" d="M108.1,30.9l0-10.3c0-4-2-7.3-7.3-7.3c-5.6,0-7.3,3.3-7.3,7.3l0,10.3c0,0,0,0.2,0.2,0.2h14.2
		C107.9,31.1,108.1,31.1,108.1,30.9z"/>
</g>
</svg>
