<!-- Generator: Adobe Illustrator 18.1.1, SVG Export Plug-In  -->
<svg version="1.1"
	 xmlns="http://www.w3.org/2000/svg" xmlns:xlink="http://www.w3.org/1999/xlink" xmlns:a="http://ns.adobe.com/AdobeSVGViewerExtensions/3.0/"
	 x="0px" y="0px" width="186.1px" height="68.9px" viewBox="0 0 186.1 68.9" enable-background="new 0 0 186.1 68.9"
	 xml:space="preserve">
<defs>
</defs>
<path fill="#F5B003" d="M11.7,48.3c0.1,0.5,0.1,1,0.1,1.5c0,2.7-0.9,5.2-2.8,7.3c-1.5,1.7-3,2.6-4.5,2.5C3.4,59.5,2.4,59,1.6,58
	C0.5,56.6,0,54.9,0,52.7c0-2.1,0.5-4.3,1.4-6.6c0.6-1.5,1.2-2.5,1.9-3.1c1-0.8,2.2-1.2,3.5-1.2c0.9,0,1.7,0.3,2.3,0.8
	c0.8,0.7,1.3,1.3,1.7,2c0.3,0.6,0.6,1.2,0.7,1.9C11.5,47,11.6,47.7,11.7,48.3z M8.7,47.9c-0.1-0.6-0.3-1.2-0.4-1.8
	c-0.2-0.7-0.5-1.1-1-1.4c-0.3-0.2-0.6-0.3-0.8-0.3c-0.2,0-0.4,0.1-0.7,0.4c-1.9,1.9-2.8,4.4-2.8,7.3c0,1.7,0.4,3.2,1.2,4.5
	c0.1,0.2,0.3,0.3,0.4,0.3c0.2,0,0.6-0.3,1.3-1c1.9-2,2.8-4.1,2.8-6.2C8.9,49.2,8.8,48.5,8.7,47.9z"/>
<path fill="#F5B003" d="M25.1,40.4c-0.8,0.7-2.1,1.2-3.8,1.6c-2,0.5-3.3,0.9-4,1.3c-0.9,2.3-1.5,4.3-1.6,5.8c3.6,1.1,5.6,2.7,6,4.9
	c0.2,1.1,0.3,2.2,0.3,3.2c0,4.4-1.3,8-3.9,10.9c-0.4,0.5-0.9,0.7-1.3,0.7c-0.2,0-0.4-0.1-0.5-0.2c-0.3-0.2-0.7-0.3-1-0.5
	c-0.4-0.2-0.6-0.6-0.7-1c-0.1-0.6,0.1-1.1,0.7-1.3c0.8-0.4,1.3-0.8,1.6-1.3c1.4-2.3,2.2-4.7,2.2-7.4c0-1.5-0.3-2.9-0.9-4
	c-0.3-0.6-0.9-0.9-1.8-1C15,52.1,14.2,52,14.1,52c-1.1-0.4-1.6-0.9-1.5-1.4c0.1-2.7,1.1-6.6,3.1-11.5c0.1-0.4,0.5-0.5,1.1-0.5
	c0.8,0,1.2,0.3,1.4,0.8c0.2,0.1,0.5,0.2,0.8,0.2c0.4,0,1.1-0.2,2.1-0.5c1-0.3,1.7-0.5,2.2-0.5c0.6,0,1.2,0.2,1.6,0.6
	C25.1,39.5,25.2,40,25.1,40.4z"/>
<path fill="#F5B003" d="M31.4,55.7c-0.7,3.4-1.1,5.3-1.2,5.5c-0.5,2.1-1.1,3.8-1.8,5.3C28.3,66.8,28,67,27.6,67
	c-0.4,0-0.9-0.1-1.4-0.4c-0.5-0.2-0.8-0.6-0.8-1.2c0-0.3,0.1-0.8,0.3-1.4c0.2-0.4,0.3-0.8,0.5-1.2c0.6-2.3,1-3.7,1.2-4.2
	c0.4-1.6,0.6-3.1,0.8-4.3c0-0.6,0.3-1,0.7-1.1c0.2-0.1,0.5-0.1,0.7-0.1c0.6,0,1.2,0.2,1.7,0.6C31.5,53.9,31.6,54.6,31.4,55.7z"/>
<path fill="#F5B003" d="M47.2,52.4c0,0.1,0.1,0.2,0.1,0.4c0,0.3-0.4,0.8-1.2,1.3c-0.5,0.3-1.1,0.5-1.8,0.6c-0.9,0.1-1.4,0.3-1.7,0.4
	c-0.2,0.8-0.4,2.7-0.7,5.6c-0.2,2.3-0.6,4.1-1.1,5.3c-0.7,0.3-1.4,0.2-1.9-0.4c-0.2-0.8-0.3-1.7-0.3-2.7c0-1,0.1-2.3,0.3-3.8
	c0.2-1.3,0.4-2.5,0.6-3.8c-0.2,0-0.4,0-0.6,0c-0.5,0-1.1,0.1-1.8,0.3c-1,0.3-1.6,0.5-1.7,0.5c-0.1-0.2-0.4-0.5-0.9-0.8
	c-0.5-0.4-0.8-0.7-0.8-0.9c0-0.2,0.1-0.4,0.4-0.6c0.7-0.5,1.6-0.9,2.9-1.1c1.5-0.2,2.5-0.4,2.9-0.5c0.1-0.8,0.3-2.4,0.5-4.6
	c0.2-2,0.4-3.5,0.7-4.5c-0.3,0-0.6-0.1-0.9-0.1c-0.6,0-1.4,0.1-2.3,0.4c-0.8,0.3-1.6,0.6-2.3,0.8c0-0.1-0.4-0.4-1-0.9
	c-0.4-0.3-0.7-0.7-0.7-1c0-0.1,0-0.3,0.1-0.5c0.7-0.5,1.6-0.8,2.8-1.1c1.7-0.4,2.7-0.6,2.9-0.6c0.2,0,0.7-0.2,1.6-0.4
	c0.7-0.2,1.3-0.3,1.7-0.3c0.7,0,1.2,0.3,1.5,0.8c-0.1,1-0.4,3-0.9,5.9c-0.5,2.5-0.7,4.5-0.6,6c0.3,0,0.8,0,1.4-0.2
	c0.7-0.2,1.1-0.3,1.4-0.3C46.5,51.5,46.9,51.8,47.2,52.4z"/>
<path fill="#F5B003" d="M60.7,52.4c0,0.1,0.1,0.2,0.1,0.4c0,0.3-0.4,0.8-1.2,1.3c-0.5,0.3-1.1,0.5-1.8,0.6c-0.9,0.1-1.4,0.3-1.7,0.4
	c-0.2,0.8-0.4,2.7-0.7,5.6c-0.2,2.3-0.6,4.1-1.1,5.3c-0.7,0.3-1.4,0.2-1.9-0.4c-0.2-0.8-0.3-1.7-0.3-2.7c0-1,0.1-2.3,0.3-3.8
	c0.2-1.3,0.4-2.5,0.6-3.8c-0.2,0-0.4,0-0.6,0c-0.5,0-1.1,0.1-1.8,0.3c-1,0.3-1.6,0.5-1.7,0.5c-0.1-0.2-0.4-0.5-0.9-0.8
	c-0.5-0.4-0.8-0.7-0.8-0.9c0-0.2,0.1-0.4,0.4-0.6c0.7-0.5,1.6-0.9,2.9-1.1c1.5-0.2,2.5-0.4,2.9-0.5c0.1-0.8,0.3-2.4,0.5-4.6
	c0.2-2,0.4-3.5,0.7-4.5c-0.3,0-0.6-0.1-0.9-0.1c-0.6,0-1.4,0.1-2.3,0.4c-0.8,0.3-1.6,0.6-2.3,0.8c0-0.1-0.4-0.4-1-0.9
	c-0.4-0.3-0.7-0.7-0.7-1c0-0.1,0-0.3,0.1-0.5c0.7-0.5,1.6-0.8,2.8-1.1C52,40.2,53,40,53.2,40c0.2,0,0.7-0.2,1.6-0.4
	c0.7-0.2,1.3-0.3,1.7-0.3c0.7,0,1.2,0.3,1.5,0.8c-0.1,1-0.4,3-0.9,5.9c-0.5,2.5-0.7,4.5-0.6,6c0.3,0,0.8,0,1.4-0.2
	c0.7-0.2,1.1-0.3,1.4-0.3C59.9,51.5,60.4,51.8,60.7,52.4z"/>
<path fill="#F5B003" d="M74.1,52.4c0,0.1,0.1,0.2,0.1,0.4c0,0.3-0.4,0.8-1.2,1.3c-0.5,0.3-1.1,0.5-1.8,0.6c-0.9,0.1-1.4,0.3-1.7,0.4
	c-0.2,0.8-0.4,2.7-0.7,5.6c-0.2,2.3-0.6,4.1-1.1,5.3c-0.7,0.3-1.4,0.2-1.9-0.4c-0.2-0.8-0.3-1.7-0.3-2.7c0-1,0.1-2.3,0.3-3.8
	c0.2-1.3,0.4-2.5,0.6-3.8c-0.2,0-0.4,0-0.6,0c-0.5,0-1.1,0.1-1.8,0.3c-1,0.3-1.6,0.5-1.7,0.5c-0.1-0.2-0.4-0.5-0.9-0.8
	c-0.5-0.4-0.8-0.7-0.8-0.9c0-0.2,0.1-0.4,0.4-0.6c0.7-0.5,1.6-0.9,2.9-1.1c1.5-0.2,2.5-0.4,2.9-0.5c0.1-0.8,0.3-2.4,0.5-4.6
	c0.2-2,0.4-3.5,0.7-4.5c-0.3,0-0.6-0.1-0.9-0.1c-0.6,0-1.4,0.1-2.3,0.4c-0.8,0.3-1.6,0.6-2.3,0.8c0-0.1-0.4-0.4-1-0.9
	c-0.4-0.3-0.7-0.7-0.7-1c0-0.1,0-0.3,0.1-0.5c0.7-0.5,1.6-0.8,2.8-1.1c1.7-0.4,2.7-0.6,2.9-0.6c0.2,0,0.7-0.2,1.6-0.4
	c0.7-0.2,1.3-0.3,1.7-0.3c0.7,0,1.2,0.3,1.5,0.8c-0.1,1-0.4,3-0.9,5.9c-0.5,2.5-0.7,4.5-0.6,6c0.3,0,0.8,0,1.4-0.2s1.1-0.3,1.4-0.3
	C73.4,51.5,73.8,51.8,74.1,52.4z"/>
<path fill="#F5B003" d="M90.3,45.4c-0.1,1.2-0.5,2.8-1,4.9c-0.8,2.7-1.2,4.4-1.4,4.9c-0.4,1.8-1.1,3.3-2.2,4.8
	c-0.7,0.9-1.5,1.4-2.3,1.4c-0.8,0-1.4-0.5-1.7-1.5c-0.7-1.6-1-3.5-1-5.7c0-1.3,0.1-2.9,0.4-4.9c0,0.2,0-0.4,0-1.6
	c0-1.1,0.4-1.6,1.2-1.6c0.2,0,0.4,0,0.6,0.1c0.2,0.1,0.4,0.2,0.6,0.3c0,0.9,0,2.2-0.1,3.9c-0.1,1.8-0.1,3.2-0.1,4
	c0,0.9,0,1.7,0.1,2.4c0,0.4,0.2,1.1,0.5,2.1c0.7-0.8,1.3-1.9,1.7-3.3c0.1-0.5,0.4-1.7,0.8-3.7c0.3-1.5,0.7-2.7,1.1-3.6
	c0.1-0.2,0.2-0.7,0.3-1.4c0.1-0.7,0.2-1.1,0.3-1.4c0.2-0.4,0.5-0.6,1-0.6C89.6,44.9,90.1,45.1,90.3,45.4z"/>
<path fill="#F5B003" d="M102.1,43.9c-0.2,2.3-0.5,4.7-0.7,7c-0.3,2.8-0.4,5.1-0.4,6.9c0,0.6,0,1.2,0.1,1.8c0,0.3-0.1,0.5-0.3,0.7
	c-0.2,0.2-0.5,0.3-0.7,0.3c-0.5,0-1-0.4-1.4-1.1c-1.1-2.2-2.5-5.6-4.1-10.2c0-0.1-0.1-0.2-0.1-0.2c-0.1,0-0.2,0.1-0.2,0.4
	c-0.3,2.5-0.4,5.1-0.4,7.8c0,1.3,0,2.7,0.1,4c0,0.5-0.1,0.8-0.4,1c-0.1,0.1-0.3,0.2-0.4,0.2c-0.1,0-0.3-0.1-0.5-0.2
	c-0.3-0.1-0.4-0.2-0.5-0.2c-0.2-0.1-0.4-0.3-0.4-0.6c0-0.3,0-0.6-0.1-0.9c-0.1-1-0.1-2-0.1-3c0-1.8,0.1-4.1,0.3-6.9
	c0.3-4.2,0.5-6.5,0.5-7c0-0.4,0.3-0.6,1-0.6c0.3,0,0.7,0.2,1.3,0.6c0.6,1.1,1.2,2.8,2.1,5.1c0.8,2.3,1.5,4,2.1,5.2
	c0.3-2.3,0.7-5.8,1.2-10.5c0.1-0.3,0.3-0.5,0.8-0.5c0.2,0,0.3,0,0.5,0.1c0.3,0.1,0.4,0.1,0.5,0.1C101.9,43.6,102,43.7,102.1,43.9z"
	/>
<path fill="#F5B003" d="M106.4,46.5c0,0.5,0.1,1,0.1,1.6c0,1.2-0.1,3-0.4,5.3c-0.2,2.4-0.4,4.2-0.4,5.4c0,0.5,0,0.9,0,1.3
	c-0.2,0.5-0.5,0.7-1,0.7c-0.7,0-1.2-0.4-1.2-1s-0.1-1.2-0.1-1.9c0-1.2,0.1-2.9,0.4-5.3c0.3-2.3,0.4-4.1,0.4-5.3c0-0.5,0-0.9-0.1-1.3
	c0.2-0.3,0.5-0.5,0.9-0.5c0.3,0,0.7,0.1,1,0.3c0.1-0.1,0.1-0.1,0.2-0.1c0.1,0,0.1,0.1,0.1,0.3c0,0.2,0,0.3,0,0.4
	C106.3,46.4,106.4,46.4,106.4,46.5z"/>
<path fill="#F5B003" d="M118.2,61.8c0.1,0.1,0.1,0.2,0.1,0.3c0,0.2-0.1,0.4-0.3,0.6c-0.2,0.2-0.5,0.2-0.7,0.2
	c-0.3,0-0.6-0.2-0.9-0.5c-0.2-0.3-0.5-0.5-0.7-0.8c-0.4-0.4-0.8-0.9-1.2-1.5c-0.3-0.5-0.7-1.1-1-1.6c-0.4,0.3-0.8,0.6-1.2,0.9
	c-0.5,0.3-1,0.5-1.4,0.5c-0.6,0-1.1-0.2-1.7-0.6c-0.6-0.4-1-0.9-1.2-1.4c-0.4-0.9-0.6-1.9-0.6-3c0-1.7,0.5-3.9,1.5-6.5
	c0.3-0.7,0.5-1.2,0.8-1.6c0.4-0.5,0.9-0.9,1.5-1c0.2,0,0.5-0.2,1-0.4c0.5-0.2,0.8-0.3,1-0.3c0.2,0,0.4,0,0.5,0.1
	c0.2,0.1,0.6,0.3,1,0.7c0.6,0.8,1,1.8,1.2,3.2c0.1,0.8,0.1,2,0.1,3.5c0,0.5-0.2,1.2-0.7,2c-0.4,0.9-0.6,1.5-0.6,2
	c0,0.8,0.5,1.6,1.4,2.7C117.4,60.6,118.1,61.4,118.2,61.8z M113.7,53.9c0.4-0.9,0.6-1.9,0.6-3.1c0-1.3-0.2-2.6-0.7-3.7
	c-0.2-0.1-0.4,0-0.8,0.2c-0.4,0.2-0.8,0.4-1.2,0.6c-0.6,0.3-1.1,1-1.3,2c-0.1,0.9-0.3,1.7-0.4,2.6c-0.2,1-0.3,1.9-0.3,2.7
	c0,1.2,0.3,2.1,0.8,2.9c0.1,0.1,0.1,0.1,0.3,0.1c0.3,0,0.5-0.2,0.7-0.5c0,0,0.2-0.3,0.6-0.7c0.3-0.3,0.4-0.5,0.4-0.8
	c0-0.2-0.1-0.4-0.2-0.5c-0.6-1.2-0.9-1.8-0.9-1.8c-0.3-0.7-0.4-1.4-0.4-2c0-0.4,0.3-0.6,0.8-0.6c0.5,0,0.9,0.1,1.2,0.5
	c0.2,0.2,0.3,0.5,0.5,1.1C113.4,53.3,113.5,53.7,113.7,53.9z"/>
<path fill="#F5B003" d="M127.5,45.4c-0.1,1.2-0.5,2.8-1,4.9c-0.8,2.7-1.2,4.4-1.4,4.9c-0.4,1.8-1.1,3.3-2.2,4.8
	c-0.7,0.9-1.5,1.4-2.3,1.4c-0.8,0-1.4-0.5-1.7-1.5c-0.7-1.6-1-3.5-1-5.7c0-1.3,0.1-2.9,0.4-4.9c0,0.2,0-0.4,0-1.6
	c0-1.1,0.4-1.6,1.2-1.6c0.2,0,0.4,0,0.6,0.1c0.2,0.1,0.4,0.2,0.6,0.3c0,0.9,0,2.2-0.1,3.9c-0.1,1.8-0.1,3.2-0.1,4
	c0,0.9,0,1.7,0.1,2.4c0,0.4,0.2,1.1,0.5,2.1c0.7-0.8,1.3-1.9,1.7-3.3c0.1-0.5,0.4-1.7,0.8-3.7c0.3-1.5,0.7-2.7,1.1-3.6
	c0.1-0.2,0.2-0.7,0.3-1.4c0.1-0.7,0.2-1.1,0.3-1.4c0.2-0.4,0.5-0.6,1-0.6C126.8,44.9,127.3,45.1,127.5,45.4z"/>
<path fill="#F5B003" d="M137.2,46.6c-0.6,0.3-1.6,0.6-2.8,0.9c-1.2,0.3-2.2,0.6-2.8,0.9c-0.2,0.5-0.3,1.5-0.3,3
	c0.3,0.1,0.6,0.2,1,0.2c0.3,0,0.7,0,1.2-0.1c0.6-0.1,1-0.1,1.2-0.1c0.5,0,0.9,0.1,1.2,0.3c0.2,0.3,0.4,0.6,0.4,0.7
	c0,0.1-0.1,0.2-0.2,0.3c0,0-0.2,0.1-0.4,0.4c-0.1,0.2-0.3,0.2-0.5,0.2c-0.4,0.1-1,0.1-2,0.2c-0.8,0-1.5,0.1-2,0.3
	c-0.3,1.3-0.5,2.3-0.5,3c0,0.5,0.1,0.9,0.2,1.2c0.8,0.6,2.2,0.8,4.2,0.7c0.1,0,0.3-0.1,0.4-0.2c0.2-0.1,0.3-0.2,0.4-0.2
	c0.5-0.1,0.8,0.3,1,1.1c0.1,0.3,0,0.5-0.1,0.8c-0.1,0.2-0.4,0.4-0.6,0.4c-2.1,0.1-3.9-0.1-5.5-0.5c-0.5-0.1-0.9-0.4-1.3-0.8
	c-0.4-0.4-0.6-0.9-0.7-1.4c-0.2-1.5-0.2-2.9,0-4.1c-0.5-0.3-0.7-0.6-0.6-1c0-0.2,0.2-0.3,0.4-0.4c0.3-0.1,0.4-0.3,0.4-0.4
	c0-0.1,0.1-1,0.2-2.5c-1-0.2-1.4-0.6-1.4-1.1c0-0.5,0.3-0.9,0.9-1.2c0.6-0.2,1.1-0.5,1.7-0.7c0.6-0.3,1.4-0.6,2.4-0.9
	c0.8-0.2,1.7-0.4,2.5-0.7c0.1,0,0.2,0,0.3,0c0.5,0,1,0.2,1.6,0.5c0,0.1,0.1,0.2,0.1,0.4c0.1,0.2,0.1,0.3,0.1,0.4
	C137.4,46.4,137.4,46.5,137.2,46.6z"/>
<path fill="#F5B003" d="M153.7,45.4c-0.1,1.2-0.5,2.8-1,4.9c-0.8,2.7-1.2,4.4-1.4,4.9c-0.4,1.8-1.1,3.3-2.2,4.8
	c-0.7,0.9-1.5,1.4-2.3,1.4c-0.8,0-1.4-0.5-1.7-1.5c-0.7-1.6-1-3.5-1-5.7c0-1.3,0.1-2.9,0.4-4.9c0,0.2,0-0.4,0-1.6
	c0-1.1,0.4-1.6,1.2-1.6c0.2,0,0.4,0,0.6,0.1c0.2,0.1,0.4,0.2,0.6,0.3c0,0.9,0,2.2-0.1,3.9c-0.1,1.8-0.1,3.2-0.1,4
	c0,0.9,0,1.7,0.1,2.4c0,0.4,0.2,1.1,0.5,2.1c0.7-0.8,1.3-1.9,1.7-3.3c0.1-0.5,0.4-1.7,0.8-3.7c0.3-1.5,0.7-2.7,1.1-3.6
	c0.1-0.2,0.2-0.7,0.3-1.4c0.1-0.7,0.2-1.1,0.3-1.4c0.2-0.4,0.5-0.6,1-0.6C153,44.9,153.4,45.1,153.7,45.4z"/>
<path fill="#F5B003" d="M160,43.9c0,0.3-0.3,0.7-0.8,0.9c-0.1,0.1-0.3,0.1-0.4,0c-0.2-0.1-0.4-0.1-0.4-0.1c-0.1,0-0.2,0.1-0.3,0.2
	c-0.9,0.9-1.4,2.1-1.4,3.4c0,0.5,0.1,1,0.2,1.4c0.1,0.2,0.7,1.5,2,4c0.8,1.7,1.2,3.1,1.2,4.2c0,1-0.2,1.9-0.7,2.8
	c-0.2,0.3-0.5,0.7-1.2,1.1c-0.5,0.4-1,0.5-1.4,0.5c-0.2,0-0.3,0-0.4-0.1c-0.5-0.2-0.8-0.5-0.8-0.9c0-0.2,0.1-0.5,0.4-0.8
	c0.1-0.1,0.2-0.1,0.5-0.2c0.3,0,0.4-0.1,0.5-0.3c0.4-0.8,0.5-1.5,0.5-2.3c0-1.1-0.6-2.8-1.7-4.9c-1.1-2.1-1.7-3.9-1.7-5.1
	c0-1.1,0.2-2,0.6-2.8c0.5-1,1.1-1.6,2-2.1c0.4-0.2,0.8-0.3,1.2-0.3c0.7,0,1.3,0.2,1.6,0.6C159.9,43.5,160,43.7,160,43.9z"/>
<path fill="#F5B003" d="M170.6,46.6c-0.6,0.3-1.6,0.6-2.8,0.9c-1.2,0.3-2.2,0.6-2.8,0.9c-0.2,0.5-0.3,1.5-0.3,3
	c0.3,0.1,0.6,0.2,1,0.2c0.3,0,0.7,0,1.2-0.1c0.6-0.1,1-0.1,1.2-0.1c0.5,0,0.9,0.1,1.2,0.3c0.2,0.3,0.4,0.6,0.4,0.7
	c0,0.1-0.1,0.2-0.2,0.3c0,0-0.2,0.1-0.4,0.4c-0.1,0.2-0.3,0.2-0.5,0.2c-0.4,0.1-1,0.1-2,0.2c-0.8,0-1.5,0.1-2,0.3
	c-0.3,1.3-0.5,2.3-0.5,3c0,0.5,0.1,0.9,0.2,1.2c0.8,0.6,2.2,0.8,4.2,0.7c0.1,0,0.3-0.1,0.4-0.2c0.2-0.1,0.3-0.2,0.4-0.2
	c0.5-0.1,0.8,0.3,1,1.1c0.1,0.3,0,0.5-0.1,0.8c-0.1,0.2-0.4,0.4-0.6,0.4c-2.1,0.1-3.9-0.1-5.5-0.5c-0.5-0.1-0.9-0.4-1.3-0.8
	c-0.4-0.4-0.6-0.9-0.7-1.4c-0.2-1.5-0.2-2.9,0-4.1c-0.5-0.3-0.7-0.6-0.6-1c0-0.2,0.2-0.3,0.4-0.4c0.3-0.1,0.4-0.3,0.4-0.4
	c0-0.1,0.1-1,0.2-2.5c-1-0.2-1.4-0.6-1.4-1.1c0-0.5,0.3-0.9,0.9-1.2c0.6-0.2,1.1-0.5,1.7-0.7c0.6-0.3,1.4-0.6,2.4-0.9
	c0.8-0.2,1.7-0.4,2.5-0.7c0.1,0,0.2,0,0.3,0c0.5,0,1,0.2,1.6,0.5c0,0.1,0.1,0.2,0.1,0.4c0.1,0.2,0.1,0.3,0.1,0.4
	C170.7,46.4,170.7,46.5,170.6,46.6z"/>
<path fill="#F5B003" d="M181.7,59.8c0.1,0.1,0.1,0.1,0.1,0.2c0,0.4-0.4,0.7-1.2,0.9c-0.9-0.7-2.1-1.8-3.4-3.3
	c-1.5-1.6-2.7-2.8-3.4-3.4c-0.1,0.5-0.1,1.6-0.3,3.5c-0.1,1.4-0.2,2.6-0.5,3.4c0,0-0.1,0-0.3,0.1c-0.2,0.1-0.3,0.1-0.5,0.1
	c-0.8-0.2-1.1-0.7-1.1-1.6c0-0.3,0-0.6,0.1-1c0.1-0.5,0.1-0.8,0.1-0.9c0.1-1,0.1-2.2,0.1-3.6v-2.8c0-2.4,0.1-4.3,0.4-6
	c0.2-1.1,1.2-1.6,3-1.5c0.9,0,1.8,0.5,2.4,1.4c0.6,0.8,1,1.7,1,2.7c0,0.8-0.3,1.6-0.9,2.4c-0.5,0.7-1.2,1.3-1.9,1.7
	c-0.3,0.2-0.5,0.4-0.5,0.6c0,0.2,0.2,0.5,0.5,0.8c0.3,0.2,0.6,0.5,0.8,0.7c0,0,1,0.9,2.9,2.6C180.4,58,181.2,59,181.7,59.8z
	 M176.3,48.1c0.1-0.3,0.1-0.6,0.1-0.8c-0.1-0.4-0.2-0.7-0.5-1c-0.3-0.3-0.7-0.4-1.2-0.4c-0.4,0-0.7,0.1-0.8,0.4
	c-0.1,0.4-0.1,0.9-0.1,1.5c0,0.2,0,0.8,0.1,1.7c0,0.7,0,1.3,0,1.7C175.3,50.1,176.1,49.1,176.3,48.1z"/>
<path fill="#F5B003" d="M186,43.9c0,0.3-0.3,0.7-0.8,0.9c-0.1,0.1-0.3,0.1-0.4,0c-0.2-0.1-0.4-0.1-0.4-0.1c-0.1,0-0.2,0.1-0.3,0.2
	c-0.9,0.9-1.4,2.1-1.4,3.4c0,0.5,0.1,1,0.2,1.4c0.1,0.2,0.7,1.5,2,4c0.8,1.7,1.2,3.1,1.2,4.2c0,1-0.2,1.9-0.7,2.8
	c-0.2,0.3-0.5,0.7-1.2,1.1c-0.5,0.4-1,0.5-1.4,0.5c-0.2,0-0.3,0-0.4-0.1c-0.5-0.2-0.8-0.5-0.8-0.9c0-0.2,0.1-0.5,0.4-0.8
	c0.1-0.1,0.2-0.1,0.5-0.2c0.3,0,0.4-0.1,0.5-0.3c0.4-0.8,0.5-1.5,0.5-2.3c0-1.1-0.6-2.8-1.7-4.9c-1.1-2.1-1.7-3.9-1.7-5.1
	c0-1.1,0.2-2,0.6-2.8c0.5-1,1.1-1.6,2-2.1c0.4-0.2,0.8-0.3,1.2-0.3c0.7,0,1.3,0.2,1.6,0.6C185.9,43.5,186,43.7,186,43.9z"/>
<g>
	<path fill="#F5B003" d="M84.4,0c-2.7,0-4.9,2.2-4.9,4.9c0,2.7,2.2,4.9,4.9,4.9c2.7,0,4.9-2.2,4.9-4.9C89.3,2.2,87.1,0,84.4,0z"/>
	<path fill="#F5B003" d="M87.2,20.1c0-2.8,0.8-5.2,3.2-6.4c-1.1-1.5-3-2.5-5.9-2.5c-5.6,0-7.3,3.3-7.3,7.3l0,10.2c0,0,0,0.3,0.2,0.3
		h9.8L87.2,20.1z"/>
	<path fill="#F5B003" d="M95.1,2.2c-2.7,0-4.9,2.2-4.9,4.9c0,2.7,2.2,4.9,4.9,4.9c2.7,0,4.9-2.2,4.9-4.9C100,4.3,97.8,2.2,95.1,2.2z
		"/>
	<path fill="#F5B003" d="M102.4,30.9l0-10.3c0-4-2-7.3-7.3-7.3c-5.6,0-7.3,3.3-7.3,7.3l0,10.3c0,0,0,0.2,0.2,0.2h14.2
		C102.2,31.1,102.4,31.1,102.4,30.9z"/>
</g>
</svg>
