<!-- Generator: Adobe Illustrator 18.1.1, SVG Export Plug-In  -->
<svg version="1.1"
	 xmlns="http://www.w3.org/2000/svg" xmlns:xlink="http://www.w3.org/1999/xlink" xmlns:a="http://ns.adobe.com/AdobeSVGViewerExtensions/3.0/"
	 x="0px" y="0px" width="256.9px" height="63.9px" viewBox="0 0 256.9 63.9" enable-background="new 0 0 256.9 63.9"
	 xml:space="preserve">
<defs>
</defs>
<g>
	<path fill="#0064D2" d="M10.6,55.9c-0.2,0.4-0.7,0.7-1.6,0.8c-0.7,0.1-1.6,0.1-2.7,0.1c-1.4,0-2.2,0-2.6,0c-0.7,0-1.1,0-1.2,0
		c-1.3,0-2.2-0.5-2.6-1.4c0.5-1.3,1.4-3.1,2.7-5.4c1.3-2.4,2.2-4.2,2.7-5.4c0.3-0.7,0.6-1.4,1-2.1c0.4-0.9,0.5-1.6,0.5-2.1
		c0-0.9-0.2-1.4-0.7-1.4c-0.3,0-0.6,0.3-0.9,0.9c-0.4,0.6-0.7,1.2-1,1.7c0,0.1-0.1,0.2-0.1,0.3c0,0.1,0.1,0.3,0.2,0.6
		c0.1,0.3,0.2,0.6,0.2,0.7c0,0.2-0.1,0.4-0.3,0.6c-0.2,0.2-0.4,0.3-0.6,0.3c-0.3,0-0.9-0.4-1.8-1.3c-0.3-0.3-0.4-0.6-0.4-1.1
		c0-0.5,0.2-1.2,0.6-1.9c1-1.8,2.4-2.9,4.4-3.5c0.2-0.1,0.5-0.1,0.7-0.1c1,0,1.7,0.5,2,1.4c0.2,0.6,0.3,1.3,0.3,2
		c0,1.1-0.3,2.3-0.8,3.8c-0.5,1.2-1.1,2.4-1.6,3.6c-0.3,0.7-0.9,1.7-1.7,3.3c-0.8,1.3-1.3,2.4-1.6,3.3c0.4,0,1.4,0,3,0
		c1.2,0,2.2,0.1,3,0.3c0.6,0.2,0.9,0.6,0.9,1.3C10.7,55.6,10.6,55.8,10.6,55.9z"/>
	<path fill="#0064D2" d="M22.1,45.3c0.1,0.4,0.1,0.9,0.1,1.3c0,2.5-0.9,4.7-2.6,6.6c-1.4,1.6-2.7,2.3-4.1,2.2
		c-1-0.1-1.9-0.5-2.6-1.4c-1-1.2-1.5-2.9-1.5-4.8c0-1.9,0.4-3.9,1.2-6c0.5-1.3,1.1-2.3,1.7-2.8c0.9-0.8,2-1.1,3.2-1.1
		c0.8,0,1.5,0.2,2.1,0.7c0.7,0.6,1.2,1.2,1.6,1.8c0.3,0.5,0.5,1.1,0.6,1.7C22,44.1,22.1,44.7,22.1,45.3z M19.4,44.9
		c-0.1-0.5-0.2-1.1-0.3-1.6c-0.2-0.6-0.4-1-0.9-1.3c-0.3-0.2-0.5-0.3-0.7-0.3c-0.2,0-0.4,0.1-0.6,0.4c-1.7,1.7-2.5,4-2.5,6.6
		c0,1.6,0.4,2.9,1.1,4.1c0.1,0.2,0.2,0.3,0.4,0.3c0.2,0,0.6-0.3,1.2-0.9c1.7-1.8,2.6-3.7,2.6-5.6C19.6,46,19.5,45.5,19.4,44.9z"/>
	<path fill="#0064D2" d="M28.5,52c-0.6,3.1-1,4.8-1.1,5c-0.4,1.9-1,3.5-1.6,4.8c-0.1,0.3-0.4,0.4-0.8,0.4c-0.4,0-0.8-0.1-1.3-0.3
		c-0.5-0.2-0.7-0.6-0.7-1.1c0-0.3,0.1-0.7,0.3-1.2c0.2-0.4,0.3-0.8,0.4-1.1c0.6-2.1,0.9-3.3,1.1-3.8c0.4-1.5,0.6-2.8,0.7-3.9
		c0-0.5,0.3-0.9,0.6-1c0.2-0.1,0.4-0.1,0.6-0.1c0.6,0,1.1,0.2,1.5,0.5C28.7,50.3,28.8,50.9,28.5,52z"/>
	<path fill="#0064D2" d="M35.8,40.7c0,1.5,0,3.7-0.2,6.6c-0.2,3.1-0.3,5.3-0.3,6.6c0,0.9,0,1.8,0.1,2.6c0,0.6-0.2,0.8-0.6,0.8
		c-1.4,0-2.1-0.3-2.2-0.9c-0.3-1.3-0.4-2.7-0.4-4.3c0-1.1,0.1-2.8,0.3-5.1c0.2-2.3,0.3-4,0.3-5.1c0-1.4-0.1-2.7-0.3-3.9
		c0-0.2,0-0.3,0.2-0.5c0.1-0.2,0.3-0.3,0.5-0.4c0.9-0.3,1.6-0.2,2,0.5C35.5,38.1,35.7,39.2,35.8,40.7z"/>
	<path fill="#0064D2" d="M47.9,55.9c-0.2,0.4-0.7,0.7-1.6,0.8c-0.7,0.1-1.6,0.1-2.7,0.1c-1.4,0-2.2,0-2.6,0c-0.7,0-1.1,0-1.2,0
		c-1.3,0-2.2-0.5-2.6-1.4c0.5-1.3,1.4-3.1,2.7-5.4c1.3-2.4,2.2-4.2,2.7-5.4c0.3-0.7,0.6-1.4,1-2.1c0.4-0.9,0.5-1.6,0.5-2.1
		c0-0.9-0.2-1.4-0.7-1.4c-0.3,0-0.6,0.3-0.9,0.9c-0.4,0.6-0.7,1.2-1,1.7c0,0.1-0.1,0.2-0.1,0.3c0,0.1,0.1,0.3,0.2,0.6
		c0.1,0.3,0.2,0.6,0.2,0.7c0,0.2-0.1,0.4-0.3,0.6c-0.2,0.2-0.4,0.3-0.6,0.3c-0.3,0-0.9-0.4-1.8-1.3c-0.3-0.3-0.4-0.6-0.4-1.1
		c0-0.5,0.2-1.2,0.6-1.9c1-1.8,2.4-2.9,4.4-3.5c0.2-0.1,0.5-0.1,0.7-0.1c1,0,1.7,0.5,2,1.4c0.2,0.6,0.3,1.3,0.3,2
		c0,1.1-0.3,2.3-0.8,3.8c-0.5,1.2-1.1,2.4-1.6,3.6c-0.3,0.7-0.9,1.7-1.7,3.3c-0.8,1.3-1.3,2.4-1.6,3.3c0.4,0,1.4,0,3,0
		c1.2,0,2.2,0.1,3,0.3c0.6,0.2,0.9,0.6,0.9,1.3C48,55.6,48,55.8,47.9,55.9z"/>
	<path fill="#0064D2" d="M59.5,55.9c-0.2,0.4-0.7,0.7-1.6,0.8c-0.7,0.1-1.6,0.1-2.7,0.1c-1.4,0-2.2,0-2.6,0c-0.7,0-1.1,0-1.2,0
		c-1.3,0-2.2-0.5-2.6-1.4c0.5-1.3,1.4-3.1,2.7-5.4c1.3-2.4,2.2-4.2,2.7-5.4c0.3-0.7,0.6-1.4,1-2.1c0.4-0.9,0.5-1.6,0.5-2.1
		c0-0.9-0.2-1.4-0.7-1.4c-0.3,0-0.6,0.3-0.9,0.9c-0.4,0.6-0.7,1.2-1,1.7c0,0.1-0.1,0.2-0.1,0.3c0,0.1,0.1,0.3,0.2,0.6
		c0.1,0.3,0.2,0.6,0.2,0.7c0,0.2-0.1,0.4-0.3,0.6c-0.2,0.2-0.4,0.3-0.6,0.3c-0.3,0-0.9-0.4-1.8-1.3c-0.3-0.3-0.4-0.6-0.4-1.1
		c0-0.5,0.2-1.2,0.6-1.9c1-1.8,2.4-2.9,4.4-3.5c0.2-0.1,0.5-0.1,0.7-0.1c1,0,1.7,0.5,2,1.4c0.2,0.6,0.3,1.3,0.3,2
		c0,1.1-0.3,2.3-0.8,3.8c-0.5,1.2-1.1,2.4-1.6,3.6c-0.3,0.7-0.9,1.7-1.7,3.3c-0.8,1.3-1.3,2.4-1.6,3.3c0.4,0,1.4,0,3,0
		c1.2,0,2.2,0.1,3,0.3c0.6,0.2,0.9,0.6,0.9,1.3C59.6,55.6,59.5,55.8,59.5,55.9z"/>
	<path fill="#0064D2" d="M66.7,52c-0.6,3.1-1,4.8-1.1,5c-0.4,1.9-1,3.5-1.6,4.8c-0.1,0.3-0.4,0.4-0.8,0.4c-0.4,0-0.8-0.1-1.3-0.3
		c-0.5-0.2-0.7-0.6-0.7-1.1c0-0.3,0.1-0.7,0.3-1.2c0.2-0.4,0.3-0.8,0.4-1.1c0.6-2.1,0.9-3.3,1.1-3.8c0.4-1.5,0.6-2.8,0.7-3.9
		c0-0.5,0.3-0.9,0.6-1c0.2-0.1,0.4-0.1,0.6-0.1c0.6,0,1.1,0.2,1.5,0.5C66.9,50.3,66.9,50.9,66.7,52z"/>
	<path fill="#0064D2" d="M81.1,49c0,0.1,0.1,0.2,0.1,0.3c0,0.3-0.4,0.7-1.1,1.2c-0.4,0.3-1,0.5-1.7,0.6c-0.8,0.1-1.3,0.2-1.5,0.3
		c-0.2,0.8-0.4,2.4-0.7,5c-0.2,2.1-0.6,3.7-1,4.8c-0.7,0.3-1.2,0.2-1.7-0.3c-0.2-0.7-0.3-1.5-0.3-2.5c0-0.9,0.1-2,0.3-3.4
		c0.2-1.2,0.4-2.3,0.5-3.4c-0.2,0-0.4,0-0.5,0c-0.4,0-1,0.1-1.6,0.3c-0.9,0.3-1.4,0.4-1.6,0.4c-0.1-0.2-0.4-0.4-0.8-0.8
		c-0.5-0.3-0.7-0.6-0.7-0.8c0-0.2,0.1-0.4,0.4-0.6c0.6-0.5,1.5-0.8,2.6-1c1.4-0.2,2.3-0.4,2.6-0.5c0.1-0.8,0.3-2.1,0.5-4.2
		c0.2-1.8,0.4-3.1,0.6-4.1c-0.2,0-0.5-0.1-0.8-0.1c-0.6,0-1.3,0.1-2.1,0.4c-0.7,0.3-1.4,0.5-2.1,0.8c0-0.1-0.3-0.3-0.9-0.8
		c-0.4-0.3-0.6-0.6-0.6-0.9c0-0.1,0-0.3,0.1-0.4c0.6-0.4,1.5-0.7,2.5-1c1.6-0.3,2.5-0.5,2.7-0.6c0.2,0,0.7-0.2,1.4-0.4
		c0.6-0.2,1.2-0.3,1.5-0.3c0.6,0,1.1,0.2,1.3,0.7c-0.1,0.9-0.3,2.7-0.8,5.3c-0.4,2.2-0.6,4.1-0.6,5.4c0.3,0,0.7,0,1.3-0.2
		s1-0.2,1.3-0.2C80.4,48.2,80.8,48.4,81.1,49z"/>
	<path fill="#0064D2" d="M92.8,38.1c-0.7,0.6-1.9,1.1-3.4,1.5c-1.8,0.4-3,0.8-3.7,1.2c-0.8,2.1-1.3,3.9-1.5,5.3
		c3.3,1,5.1,2.4,5.4,4.4c0.2,1,0.2,1.9,0.2,2.9c0,4-1.2,7.3-3.5,9.9c-0.4,0.4-0.8,0.7-1.2,0.7c-0.2,0-0.3-0.1-0.5-0.2
		c-0.3-0.2-0.6-0.3-0.9-0.4c-0.4-0.2-0.6-0.5-0.6-0.9c-0.1-0.6,0.1-1,0.6-1.2c0.7-0.4,1.2-0.8,1.5-1.2c1.3-2.1,2-4.3,2-6.7
		c0-1.4-0.3-2.6-0.8-3.7c-0.3-0.5-0.8-0.8-1.6-0.9c-1.2-0.1-1.9-0.2-2-0.2c-1-0.4-1.4-0.8-1.4-1.3c0.1-2.5,1-5.9,2.8-10.4
		c0.1-0.3,0.5-0.5,1-0.5c0.7,0,1.1,0.3,1.3,0.8c0.2,0.1,0.5,0.2,0.8,0.2c0.4,0,1-0.2,1.9-0.5c0.9-0.3,1.5-0.5,2-0.5
		c0.6,0,1.1,0.2,1.5,0.6C92.8,37.3,92.8,37.7,92.8,38.1z"/>
	<path fill="#0064D2" d="M104.7,49c0,0.1,0.1,0.2,0.1,0.3c0,0.3-0.4,0.7-1.1,1.2c-0.4,0.3-1,0.5-1.7,0.6c-0.8,0.1-1.3,0.2-1.5,0.3
		c-0.2,0.8-0.4,2.4-0.7,5c-0.2,2.1-0.6,3.7-1,4.8c-0.7,0.3-1.2,0.2-1.7-0.3c-0.2-0.7-0.3-1.5-0.3-2.5c0-0.9,0.1-2,0.3-3.4
		c0.2-1.2,0.4-2.3,0.5-3.4c-0.2,0-0.4,0-0.5,0c-0.4,0-1,0.1-1.6,0.3c-0.9,0.3-1.4,0.4-1.6,0.4c-0.1-0.2-0.4-0.4-0.8-0.8
		c-0.5-0.3-0.7-0.6-0.7-0.8c0-0.2,0.1-0.4,0.4-0.6c0.6-0.5,1.5-0.8,2.6-1c1.4-0.2,2.3-0.4,2.6-0.5c0.1-0.8,0.3-2.1,0.5-4.2
		c0.2-1.8,0.4-3.1,0.6-4.1c-0.2,0-0.5-0.1-0.8-0.1c-0.6,0-1.3,0.1-2.1,0.4c-0.7,0.3-1.4,0.5-2.1,0.8c0-0.1-0.3-0.3-0.9-0.8
		c-0.4-0.3-0.6-0.6-0.6-0.9c0-0.1,0-0.3,0.1-0.4c0.6-0.4,1.5-0.7,2.5-1c1.6-0.3,2.5-0.5,2.7-0.6c0.2,0,0.7-0.2,1.4-0.4
		c0.6-0.2,1.2-0.3,1.5-0.3c0.6,0,1.1,0.2,1.3,0.7c-0.1,0.9-0.3,2.7-0.8,5.3c-0.4,2.2-0.6,4.1-0.6,5.4c0.3,0,0.7,0,1.3-0.2
		s1-0.2,1.3-0.2C104,48.2,104.4,48.4,104.7,49z"/>
	<path fill="#0064D2" d="M119.7,41.3c0,0.4-0.3,0.7-0.8,0.8c-0.7,0.1-1.2,0.3-1.4,0.5c-1.8,1.9-2.6,4.2-2.6,7.2
		c0,1.4,0.2,2.7,0.7,3.9c0.4,1,0.6,1.7,0.8,2c0.4,0.8,0.9,1.3,1.4,1.6c0.2,0.1,0.5,0.2,0.7,0.3c0.3,0.1,0.4,0.3,0.4,0.6
		c0,0.3-0.1,0.5-0.2,0.7c-0.2,0.2-0.3,0.3-0.5,0.2c-0.2,0-0.5-0.1-0.9-0.3c-0.8-0.4-1.6-1.4-2.5-2.8c-0.2-0.4-0.4-0.7-0.7-1.1
		c-0.2-0.4-0.4-0.7-0.5-1.1c-0.1-0.3-0.2-1.3-0.4-3c-0.1-0.5-0.1-1.1-0.1-1.6c0-2.8,0.8-5.1,2.4-7.1c0.9-1.1,1.9-1.7,2.9-1.7
		c0.4,0,0.8,0.1,1.2,0.4C119.7,40.9,119.7,41,119.7,41.3z"/>
	<path fill="#0064D2" d="M127.4,42.3c0,1.4-0.3,3.6-0.7,6.6c-0.4,2.9-0.6,5.1-0.6,6.6c0,0.5,0,1,0,1.4c0,0.1,0,0.2-0.1,0.3
		c-0.1,0.1-0.2,0.2-0.3,0.2c-0.4,0-0.7,0-0.9-0.1c-0.6-0.3-0.9-1-0.9-2c0-0.2,0-0.5,0-0.9c0-0.4,0-0.7,0-0.9c0-0.3,0-0.8,0.1-1.4
		c0.1-0.6,0.1-1.1,0.1-1.5c-0.2,0-0.5,0-0.9-0.1c-0.4-0.1-0.7-0.1-0.8-0.1c-0.2,0-0.4,0-0.6,0.1c-0.4,1.2-0.6,3.1-0.7,5.5
		c-0.5,0.2-1.1,0.2-1.6-0.1c-0.4-0.2-0.5-0.6-0.5-1.1c0-0.1,0-0.3,0-0.5c0-0.2,0-0.3,0-0.4c0-0.8,0.2-2.5,0.5-5
		c0.3-2.1,0.4-3.8,0.4-5c0-0.2,0.1-0.3,0.4-0.3c0.2,0,0.4-0.1,0.4-0.1c0.1,0.1,0.3,0.2,0.7,0.3c0.3,0.1,0.5,0.2,0.5,0.4
		c0.1,0.4,0.2,0.8,0.2,1.3c0,0.3-0.1,0.9-0.2,1.6c-0.1,0.7-0.2,1.3-0.2,1.7c0.2,0.1,0.4,0.2,0.7,0.3c0.2,0,0.5,0,0.8,0
		c0.5,0,0.7,0,0.8,0c0.4-1.6,0.7-3.8,1-6.4c0.1-0.5,0.3-0.8,0.6-0.8C126.9,41.8,127.3,41.9,127.4,42.3z"/>
	<path fill="#0064D2" d="M137.4,54.4c0.1,0.3,0.1,0.5,0.1,0.7c0,0.3-0.1,0.6-0.4,0.8c-0.3,0.2-0.4,0.3-0.5,0.3
		c-0.8-0.1-1.3-0.8-1.5-1.9c-0.2-1.2-0.5-2.2-0.8-3c-0.5,0-1.1,0.1-1.6,0.1c-0.6,0.1-1.1,0.3-1.4,0.6c-0.2,0.5-0.4,1.4-0.7,2.6
		c-0.3,1.1-0.5,2-0.8,2.6c-0.1,0.3-0.4,0.4-0.8,0.2c-0.5-0.2-0.8-0.4-0.8-0.7c0-0.6,0.1-1.4,0.5-2.4c0.5-1.1,0.7-2,0.8-2.5
		c0-0.1-0.1-0.3-0.3-0.5c-0.2-0.2-0.3-0.3-0.3-0.4c0-0.1,0-0.2,0.1-0.2c0.1-0.1,0.2-0.2,0.5-0.2c0.3-0.1,0.4-0.1,0.4-0.2
		c0.3-0.8,0.7-2.2,1.3-4.4c0.5-1.9,1-3.3,1.4-4.3c0.1-0.2,0.3-0.3,0.6-0.3c0.2,0,0.4,0.1,0.6,0.2c0.4,0.4,0.7,0.9,0.8,1.7
		c0.1,0.6,0.2,1.3,0.3,1.9C135.8,48.9,136.6,52,137.4,54.4z M134,49.9c0-0.6-0.1-1.2-0.3-2c-0.2-0.6-0.3-1.3-0.4-1.9
		c-0.5,1.3-0.9,2.6-1.2,3.9C132.3,49.9,132.9,49.9,134,49.9z"/>
	<path fill="#0064D2" d="M147.9,55.7c0,0.1,0.1,0.1,0.1,0.2c0,0.4-0.4,0.6-1.1,0.8c-0.8-0.6-1.9-1.6-3.1-3c-1.4-1.5-2.4-2.5-3.1-3.1
		c0,0.4-0.1,1.5-0.3,3.2c-0.1,1.3-0.2,2.3-0.4,3.1c0,0-0.1,0-0.3,0.1c-0.2,0.1-0.3,0.1-0.4,0.1c-0.7-0.2-1-0.6-1-1.4
		c0-0.2,0-0.5,0.1-0.9c0.1-0.5,0.1-0.7,0.1-0.8c0.1-0.9,0.1-2,0.1-3.3v-2.6c0-2.1,0.1-3.9,0.4-5.4c0.2-1,1.1-1.4,2.8-1.3
		c0.8,0,1.6,0.5,2.2,1.3c0.6,0.8,0.9,1.6,0.9,2.5c0,0.7-0.3,1.5-0.8,2.2c-0.5,0.7-1.1,1.2-1.7,1.6c-0.3,0.2-0.4,0.3-0.4,0.5
		c0,0.2,0.2,0.4,0.5,0.7c0.3,0.2,0.5,0.4,0.8,0.6c0,0,0.9,0.8,2.6,2.4C146.6,54,147.4,54.9,147.9,55.7z M142.9,45.1
		c0-0.3,0.1-0.5,0-0.8c0-0.3-0.2-0.6-0.4-0.9c-0.2-0.3-0.6-0.4-1.1-0.4c-0.4,0-0.6,0.1-0.7,0.4c-0.1,0.4-0.1,0.8-0.1,1.3
		c0,0.2,0,0.7,0.1,1.6c0,0.6,0,1.2,0,1.6C142,46.9,142.7,46,142.9,45.1z"/>
	<path fill="#0064D2" d="M149.3,43.6c0,0.5,0,0.9,0,1.4c0,1.1-0.1,2.7-0.3,4.8c-0.2,2.2-0.3,3.8-0.3,4.9c0,0.4,0,0.8,0,1.2
		c-0.1,0.4-0.4,0.7-0.9,0.6c-0.7,0-1-0.3-1.1-0.9s-0.1-1.1-0.1-1.7c0-1.1,0.1-2.7,0.4-4.8c0.3-2.1,0.4-3.7,0.4-4.8
		c0-0.4,0-0.8,0-1.2c0.2-0.3,0.4-0.4,0.8-0.4c0.3,0,0.6,0.1,0.9,0.3c0.1,0,0.1-0.1,0.1-0.1c0,0,0.1,0.1,0.1,0.2
		C149.2,43.4,149.2,43.5,149.3,43.6C149.3,43.6,149.3,43.6,149.3,43.6z"/>
	<path fill="#0064D2" d="M162.5,40.8c-0.1,0.6-0.4,0.9-0.8,1c-1,0.3-2.8,0.6-5.3,1c-0.3,3.9-0.5,7.2-0.5,9.8c0,1,0,2,0,2.9
		c0,0.3,0,0.5,0,0.7c-0.1,0.3-0.2,0.4-0.5,0.4c-0.5,0-0.8-0.2-1.1-0.6c-0.3-0.4-0.5-0.8-0.5-1.2c0-0.6,0-1.2,0-1.8
		c0-1,0.1-2.7,0.2-4.9c0.1-2.2,0.2-3.8,0.2-4.9c-0.4,0-1,0-1.8,0.1c-0.9,0.1-1.5,0.2-1.8,0.2c-0.8,0-1.4-0.2-1.9-0.6
		c-0.2-0.4-0.3-0.6-0.3-0.6c0-0.1,0.1-0.2,0.2-0.4c0.5-0.2,1.5-0.3,3.1-0.5c1.4-0.1,2.4-0.4,3.1-0.8c0.6,0.2,1.2,0.3,1.9,0.3
		c0.7,0,1.4-0.1,2-0.3c0.2,0,0.7-0.1,1.4-0.3c0.6-0.1,1-0.2,1.4-0.1c0.3,0,0.4,0.1,0.4,0.4C162.3,40.4,162.5,40.6,162.5,40.8z"/>
	<path fill="#0064D2" d="M167.9,54.4c0.1,0.3,0.1,0.5,0.1,0.7c0,0.3-0.1,0.6-0.4,0.8c-0.3,0.2-0.4,0.3-0.5,0.3
		c-0.8-0.1-1.3-0.8-1.5-1.9c-0.2-1.2-0.5-2.2-0.8-3c-0.5,0-1.1,0.1-1.6,0.1c-0.6,0.1-1.1,0.3-1.4,0.6c-0.2,0.5-0.4,1.4-0.7,2.6
		c-0.3,1.1-0.5,2-0.8,2.6c-0.1,0.3-0.4,0.4-0.8,0.2c-0.5-0.2-0.8-0.4-0.8-0.7c0-0.6,0.1-1.4,0.5-2.4c0.5-1.1,0.7-2,0.8-2.5
		c0-0.1-0.1-0.3-0.3-0.5c-0.2-0.2-0.3-0.3-0.3-0.4c0-0.1,0-0.2,0.1-0.2c0.1-0.1,0.2-0.2,0.5-0.2c0.3-0.1,0.4-0.1,0.4-0.2
		c0.3-0.8,0.7-2.2,1.3-4.4c0.5-1.9,1-3.3,1.4-4.3c0.1-0.2,0.3-0.3,0.6-0.3c0.2,0,0.4,0.1,0.6,0.2c0.4,0.4,0.7,0.9,0.8,1.7
		c0.1,0.6,0.2,1.3,0.3,1.9C166.2,48.9,167,52,167.9,54.4z M164.4,49.9c0-0.6-0.1-1.2-0.3-2c-0.2-0.6-0.3-1.3-0.4-1.9
		c-0.5,1.3-0.9,2.6-1.2,3.9C162.7,49.9,163.4,49.9,164.4,49.9z"/>
	<path fill="#0064D2" d="M176.8,45.3c-0.2,0.8-0.7,1.6-1.6,2.3c-0.8,0.6-1.6,1.1-2.4,1.7c0,0.2,0.2,0.4,0.5,0.5
		c0.3,0.1,0.5,0.2,0.8,0.3c1.3,0.8,2,1.9,2,3c0,0.9-0.3,1.7-0.9,2.5c-0.5,0.6-1.2,1.2-2.1,1.7c-0.8,0.4-1.5,0.9-2.3,1.3
		c-0.2,0.1-0.4,0.2-0.6,0.2c-0.5,0-0.9-0.2-1.1-0.6c0-1.3,0.1-2.6,0.1-3.9c0-1.6,0.1-2.9,0.3-3.9c-0.3-0.2-0.5-0.5-0.5-0.8
		c0-0.1,0.1-0.3,0.2-0.4c0.1-0.1,0.3-0.2,0.5-0.4c0.2-2.4,0.2-4.6,0.1-6.6c-0.7-0.1-1.2-0.5-1.5-1c0-0.1,0-0.2,0.1-0.3
		c0.1-0.1,0.1-0.2,0.1-0.3c0.4-0.3,0.8-0.4,1.2-0.4c0.3,0,1,0.1,2.2,0.3c0.6,0.1,1.2,0.3,1.8,0.6c1.7,0.9,2.7,1.7,3,2.6
		C176.8,44.4,176.9,44.9,176.8,45.3z M173.9,53.3c0-0.2,0-0.3,0-0.5c0-0.5-0.1-0.9-0.4-1.2c-0.8-0.4-1.3-0.6-1.5-0.6
		c-0.1,0-0.2,0-0.4,0.1c0,0.2,0,0.3,0,0.5c0,0.3,0,0.8-0.1,1.5c-0.1,0.7-0.1,1.2-0.1,1.5c0,0.5,0.1,1,0.2,1.4
		c0.2-0.2,0.5-0.5,0.9-0.7c0.4-0.2,0.7-0.5,0.8-0.6C173.5,54.3,173.8,53.9,173.9,53.3z M174.6,44.1c-0.1-0.6-0.6-1-1.4-1.3
		c-0.1,0-0.3-0.1-0.6-0.3c-0.2-0.1-0.3-0.2-0.5-0.2c-0.1,0-0.1,0-0.2,0c0,0.3,0,0.5,0,0.8c0,0.4,0,1.1,0.1,2.1c0,0.9,0.1,1.6,0,2.1
		c0.1,0,0.3-0.1,0.5-0.2c0.2-0.2,0.3-0.3,0.4-0.3c0.5-0.2,0.9-0.6,1.2-1.1C174.5,45.2,174.6,44.6,174.6,44.1z"/>
	<path fill="#0064D2" d="M184.6,52.8c0,0-0.9,0.7-2.8,2c-1.1,0.8-2,1.3-2.8,1.7c-0.1,0-0.2,0.1-0.3,0.1c-0.2,0-0.4-0.1-0.6-0.4
		c-0.3-0.4-0.4-0.6-0.4-0.6c0-1.4,0.1-3.3,0.3-5.8c0.2-2.6,0.4-4.5,0.4-5.7c0-0.8,0-1.6-0.1-2.3c0.2-0.2,0.5-0.3,0.8-0.3
		c0.6,0,0.9,0.2,1,0.7c0,1.3,0,3.2-0.2,5.8c-0.2,2.6-0.2,4.5-0.2,5.8c0.4-0.2,1-0.5,1.7-1c0.8-0.5,1.3-0.9,1.7-1.1
		c0.1,0,0.2,0,0.4,0c0.2,0,0.3,0,0.4,0c0.3,0,0.5,0.1,0.7,0.4C184.7,52.3,184.7,52.6,184.6,52.8z"/>
	<path fill="#0064D2" d="M193.3,43.7c-0.6,0.2-1.4,0.5-2.6,0.8c-1.1,0.3-2,0.6-2.6,0.8c-0.1,0.4-0.2,1.3-0.3,2.7
		c0.3,0.1,0.5,0.1,0.9,0.1c0.2,0,0.6,0,1.1-0.1c0.5-0.1,0.9-0.1,1.1-0.1c0.4,0,0.8,0.1,1.1,0.3c0.2,0.3,0.3,0.5,0.3,0.6
		c0,0.1-0.1,0.2-0.2,0.3c0,0-0.1,0.1-0.3,0.3c-0.1,0.1-0.3,0.2-0.5,0.2c-0.3,0.1-0.9,0.1-1.8,0.1c-0.7,0-1.3,0.1-1.8,0.3
		c-0.3,1.2-0.4,2.1-0.4,2.8c0,0.5,0.1,0.8,0.2,1.1c0.7,0.5,2,0.7,3.8,0.7c0.1,0,0.3-0.1,0.4-0.2s0.3-0.2,0.4-0.2
		c0.4-0.1,0.7,0.2,0.9,1c0,0.3,0,0.5-0.1,0.7c-0.1,0.2-0.3,0.3-0.6,0.3c-1.9,0.1-3.5-0.1-4.9-0.4c-0.4-0.1-0.8-0.4-1.2-0.7
		c-0.4-0.4-0.6-0.8-0.6-1.3c-0.1-1.4-0.1-2.6,0-3.7c-0.4-0.3-0.6-0.6-0.6-0.9c0-0.1,0.1-0.3,0.4-0.4c0.2-0.1,0.4-0.2,0.4-0.4
		c0-0.1,0.1-0.9,0.2-2.2c-0.9-0.2-1.3-0.5-1.3-1c0-0.5,0.3-0.8,0.8-1.1c0.5-0.2,1-0.4,1.5-0.6c0.6-0.3,1.3-0.6,2.2-0.8
		c0.8-0.2,1.5-0.4,2.3-0.6c0.1,0,0.2,0,0.3,0c0.4,0,0.9,0.2,1.5,0.5c0,0.1,0.1,0.2,0.1,0.4c0.1,0.2,0.1,0.3,0.1,0.4
		C193.5,43.6,193.4,43.7,193.3,43.7z"/>
	<path fill="#0064D2" d="M206.5,52.8c0,0-0.9,0.7-2.8,2c-1.1,0.8-2,1.3-2.8,1.7c-0.1,0-0.2,0.1-0.3,0.1c-0.2,0-0.4-0.1-0.6-0.4
		c-0.3-0.4-0.4-0.6-0.4-0.6c0-1.4,0.1-3.3,0.3-5.8c0.2-2.6,0.4-4.5,0.4-5.7c0-0.8,0-1.6-0.1-2.3c0.2-0.2,0.5-0.3,0.8-0.3
		c0.6,0,0.9,0.2,1,0.7c0,1.3,0,3.2-0.2,5.8s-0.2,4.5-0.2,5.8c0.4-0.2,1-0.5,1.7-1c0.8-0.5,1.3-0.9,1.7-1.1c0.1,0,0.2,0,0.4,0
		c0.2,0,0.3,0,0.4,0c0.3,0,0.5,0.1,0.7,0.4C206.7,52.3,206.7,52.6,206.5,52.8z"/>
	<path fill="#0064D2" d="M209.9,43.6c0,0.5,0,0.9,0,1.4c0,1.1-0.1,2.7-0.3,4.8c-0.2,2.2-0.3,3.8-0.3,4.9c0,0.4,0,0.8,0,1.2
		c-0.1,0.4-0.4,0.7-0.9,0.6c-0.7,0-1-0.3-1.1-0.9s-0.1-1.1-0.1-1.7c0-1.1,0.1-2.7,0.4-4.8s0.4-3.7,0.4-4.8c0-0.4,0-0.8,0-1.2
		c0.2-0.3,0.4-0.4,0.8-0.4c0.3,0,0.6,0.1,0.9,0.3c0.1,0,0.1-0.1,0.1-0.1c0,0,0.1,0.1,0.1,0.2C209.8,43.4,209.8,43.5,209.9,43.6
		C209.8,43.6,209.8,43.6,209.9,43.6z"/>
	<path fill="#0064D2" d="M216.2,41.3c0,0.3-0.2,0.6-0.7,0.8c-0.1,0.1-0.3,0.1-0.4,0c-0.2-0.1-0.3-0.1-0.4-0.1c-0.1,0-0.2,0-0.3,0.1
		c-0.8,0.8-1.3,1.9-1.3,3.1c0,0.5,0.1,0.9,0.2,1.3c0.1,0.2,0.7,1.4,1.8,3.7c0.8,1.5,1.1,2.8,1.1,3.8c0,0.9-0.2,1.7-0.6,2.5
		c-0.1,0.3-0.5,0.6-1.1,1c-0.5,0.3-0.9,0.5-1.2,0.5c-0.1,0-0.3,0-0.4-0.1c-0.5-0.2-0.7-0.5-0.7-0.8c0-0.2,0.1-0.4,0.4-0.7
		c0.1-0.1,0.2-0.1,0.4-0.1c0.2,0,0.4-0.1,0.5-0.3c0.3-0.7,0.5-1.4,0.5-2.1c0-1-0.5-2.5-1.5-4.4c-1-1.9-1.5-3.5-1.5-4.7
		c0-1,0.2-1.8,0.6-2.6c0.4-0.9,1-1.5,1.8-1.9c0.4-0.2,0.7-0.3,1.1-0.3c0.7,0,1.2,0.2,1.5,0.5C216.2,40.9,216.2,41.1,216.2,41.3z"/>
	<path fill="#0064D2" d="M229.6,40.8c-0.1,0.6-0.4,0.9-0.8,1c-1,0.3-2.8,0.6-5.3,1c-0.3,3.9-0.5,7.2-0.5,9.8c0,1,0,2,0,2.9
		c0,0.3,0,0.5,0,0.7c-0.1,0.3-0.2,0.4-0.5,0.4c-0.5,0-0.8-0.2-1.1-0.6c-0.3-0.4-0.5-0.8-0.5-1.2c0-0.6,0-1.2,0-1.8
		c0-1,0.1-2.7,0.2-4.9c0.1-2.2,0.2-3.8,0.2-4.9c-0.4,0-1,0-1.8,0.1c-0.9,0.1-1.5,0.2-1.8,0.2c-0.8,0-1.4-0.2-1.9-0.6
		c-0.2-0.4-0.3-0.6-0.3-0.6c0-0.1,0.1-0.2,0.2-0.4c0.5-0.2,1.5-0.3,3.1-0.5c1.4-0.1,2.4-0.4,3.1-0.8c0.6,0.2,1.2,0.3,1.9,0.3
		c0.7,0,1.4-0.1,2-0.3c0.2,0,0.7-0.1,1.4-0.3c0.6-0.1,1-0.2,1.4-0.1c0.3,0,0.4,0.1,0.4,0.4C229.4,40.4,229.6,40.6,229.6,40.8z"/>
	<path fill="#0064D2" d="M229.1,43.6c0,0.5,0,0.9,0,1.4c0,1.1-0.1,2.7-0.3,4.8c-0.2,2.2-0.3,3.8-0.3,4.9c0,0.4,0,0.8,0,1.2
		c-0.1,0.4-0.4,0.7-0.9,0.6c-0.7,0-1-0.3-1.1-0.9s-0.1-1.1-0.1-1.7c0-1.1,0.1-2.7,0.4-4.8s0.4-3.7,0.4-4.8c0-0.4,0-0.8,0-1.2
		c0.2-0.3,0.4-0.4,0.8-0.4c0.3,0,0.6,0.1,0.9,0.3c0.1,0,0.1-0.1,0.1-0.1c0,0,0.1,0.1,0.1,0.2C229,43.4,229,43.5,229.1,43.6
		C229.1,43.6,229.1,43.6,229.1,43.6z"/>
	<path fill="#0064D2" d="M240.4,41.2c-0.2,2.1-0.4,4.2-0.6,6.3c-0.3,2.5-0.4,4.6-0.4,6.3c0,0.6,0,1.1,0,1.6c0,0.3-0.1,0.5-0.3,0.7
		c-0.2,0.2-0.4,0.3-0.7,0.3c-0.5,0-0.9-0.3-1.2-1c-1-2-2.3-5-3.7-9.2c0-0.1-0.1-0.1-0.1-0.1c-0.1,0-0.2,0.1-0.2,0.3
		c-0.3,2.2-0.4,4.6-0.4,7.1c0,1.2,0,2.4,0.1,3.7c0,0.5-0.1,0.8-0.4,0.9c-0.1,0.1-0.2,0.2-0.4,0.2c-0.1,0-0.3,0-0.4-0.1
		c-0.2-0.1-0.4-0.2-0.4-0.2c-0.2-0.1-0.3-0.3-0.4-0.6c0-0.3,0-0.5,0-0.8c0-0.9-0.1-1.8-0.1-2.8c0-1.7,0.1-3.7,0.3-6.2
		c0.3-3.8,0.5-5.9,0.5-6.3c0-0.3,0.3-0.5,0.9-0.5c0.3,0,0.7,0.2,1.2,0.6c0.5,1,1.1,2.5,1.9,4.7c0.7,2.1,1.4,3.6,1.9,4.7
		c0.2-2.1,0.6-5.2,1.1-9.5c0-0.3,0.3-0.5,0.7-0.5c0.1,0,0.3,0,0.5,0.1c0.3,0.1,0.4,0.1,0.4,0.1C240.3,41,240.4,41.1,240.4,41.2z"/>
	<path fill="#0064D2" d="M250.2,49.6c-0.4,1.1-0.7,2.3-0.8,3.9c-0.1,1.3-0.1,2.7-0.2,4c0,0.4-0.3,0.6-0.8,0.6c-0.1,0-0.3,0-0.4-0.1
		c-0.7-0.3-1-0.8-1-1.6c0-0.2,0-0.6,0.1-1c0.1-0.4,0.1-0.8,0.1-1c0.1-0.5,0.1-1.1,0.2-2c-1.1,1-2.3,1.8-3.7,2.3
		c-0.2,0.1-0.4,0.1-0.6,0.1c-0.7,0-1.4-0.4-2-1.2c-0.3-0.5-0.5-1-0.5-1.7c0-0.6,0.1-1.3,0.4-2.1c0.8-2.5,2.2-5,4-7.5
		c0.9-1.2,1.7-1.8,2.4-1.8c0.6,0,1,0.2,1.1,0.7c0.1,0.4-0.1,0.7-0.4,0.8c-0.6,0.3-0.8,0.5-0.9,0.5c-1.3,1.5-2.5,3.3-3.6,5.7
		c-0.7,1.4-1,2.7-1,3.8c0,0.2,0,0.4,0,0.6c0,0,0.1,0.1,0.1,0.2c0.1,0.1,0.1,0.2,0.3,0.1c1-0.4,2.6-1.5,4.7-3.2
		c0.2-0.1,0.3-0.5,0.5-1.1c0.2-0.4,0.4-0.7,0.8-0.7c-0.1,0,0,0,0.4,0c0.2,0,0.3,0,0.4,0.1c0.3,0.4,0.4,0.8,0.4,1.1
		C250.3,49.3,250.2,49.5,250.2,49.6z"/>
	<path fill="#0064D2" d="M256.8,41.3c0,0.3-0.2,0.6-0.7,0.8c-0.1,0.1-0.3,0.1-0.4,0c-0.2-0.1-0.3-0.1-0.4-0.1c-0.1,0-0.2,0-0.3,0.1
		c-0.8,0.8-1.3,1.9-1.3,3.1c0,0.5,0.1,0.9,0.2,1.3c0.1,0.2,0.7,1.4,1.8,3.7c0.8,1.5,1.1,2.8,1.1,3.8c0,0.9-0.2,1.7-0.6,2.5
		c-0.1,0.3-0.5,0.6-1.1,1c-0.5,0.3-0.9,0.5-1.2,0.5c-0.1,0-0.3,0-0.4-0.1c-0.5-0.2-0.7-0.5-0.7-0.8c0-0.2,0.1-0.4,0.4-0.7
		c0.1-0.1,0.2-0.1,0.4-0.1c0.2,0,0.4-0.1,0.5-0.3c0.3-0.7,0.5-1.4,0.5-2.1c0-1-0.5-2.5-1.5-4.4c-1-1.9-1.5-3.5-1.5-4.7
		c0-1,0.2-1.8,0.6-2.6c0.4-0.9,1-1.5,1.8-1.9c0.4-0.2,0.7-0.3,1.1-0.3c0.7,0,1.2,0.2,1.5,0.5C256.7,40.9,256.8,41.1,256.8,41.3z"/>
	<path fill="#0064D2" d="M148.3,22.1c-0.3-0.3-0.8-0.5-1.2-0.5h-0.2c1.4,0,1.4-0.1,1.4-1.3V1.8V1.3c0-1.3-0.1-1.3-1.4-1.3h-31.5
		c-1.4,0-1.4,0-1.4,1.3v0.4v18.5c0,1.3,0,1.3,1.4,1.3h-0.2c-0.4,0-0.9,0.2-1.2,0.5l-5.4,4.9v0.9c0,0,0,1.4,1.4,1.4h42.3
		c1.4,0,1.4-1.4,1.4-1.4V27L148.3,22.1z M115.9,19.7V1.9c0-0.1,0.1-0.1,0.1-0.1h30.4c0.1,0,0.1,0.1,0.1,0.1v17.8c0,0,0,0.1-0.1,0.1
		L115.9,19.7C115.9,19.8,115.9,19.8,115.9,19.7z"/>
</g>
</svg>
